{"glyphs":{"0":{"ha":755,"x_min":50,"x_max":705,"o":"m 378 -18 q 235 15 299 -18 q 132 102 171 47 q 50 366 50 216 q 72 506 50 438 q 133 628 94 573 q 236 715 174 683 q 378 747 300 747 q 520 715 456 747 q 623 628 584 682 q 705 366 705 514 q 624 102 705 216 q 520 15 585 47 q 378 -18 456 -18 m 378 68 q 474 112 433 68 q 536 222 516 155 q 555 366 555 289 q 535 510 555 442 q 473 623 515 578 q 378 667 431 667 q 282 622 323 667 q 220 510 241 578 q 200 366 200 442 q 220 222 200 288 q 281 112 240 156 q 378 68 323 68 z "},"1":{"ha":557,"x_min":58,"x_max":546,"o":"m 79 0 l 79 77 l 244 77 l 244 608 l 100 542 l 58 629 l 307 728 l 390 728 l 390 77 l 546 77 l 546 0 l 79 0 z "},"2":{"ha":718,"x_min":58,"x_max":675,"o":"m 628 -100 l 564 0 l 97 0 q 83 81 85 81 q 110 99 93 87 q 152 127 127 111 q 243 188 201 159 q 337 258 285 216 q 426 336 389 299 q 488 418 463 374 q 513 503 513 462 q 491 587 513 549 q 434 649 469 625 q 355 672 398 672 q 210 608 265 672 q 255 579 235 601 q 275 524 275 557 q 246 452 275 479 q 171 425 217 425 q 86 459 115 425 q 58 539 58 492 q 102 643 58 595 q 219 721 146 691 q 380 750 292 750 q 580 683 507 750 q 653 493 653 615 q 610 378 653 441 q 471 244 566 314 l 288 111 l 650 111 l 675 -93 l 628 -100 z "},"3":{"ha":749,"x_min":43,"x_max":696,"o":"m 302 -207 q 183 -192 237 -207 q 96 -146 130 -178 q 61 -69 61 -114 q 85 1 61 -26 q 157 28 109 28 q 224 -1 199 28 q 250 -66 250 -30 q 239 -115 250 -89 q 234 -125 236 -121 q 232 -132 233 -130 q 266 -136 252 -135 q 288 -138 279 -138 q 400 -118 350 -138 q 482 -67 451 -99 q 546 86 546 0 q 372 261 546 261 q 293 253 343 261 l 277 339 q 498 511 498 373 q 452 625 498 583 q 322 667 405 667 q 232 651 267 667 q 158 593 197 636 q 222 576 193 593 q 249 548 239 567 q 260 505 260 530 q 232 433 260 461 q 161 406 205 406 q 76 440 109 406 q 43 515 43 475 q 127 687 43 625 q 349 749 212 749 q 476 728 420 749 q 564 674 532 708 q 628 515 628 606 q 585 393 628 444 q 454 321 542 343 q 637 247 578 308 q 696 90 696 186 q 647 -63 696 4 q 510 -168 599 -130 q 302 -207 422 -207 z "},"4":{"ha":745,"x_min":57,"x_max":762,"o":"m 273 -262 l 273 -170 l 436 -170 l 436 0 l 74 0 l 57 92 l 411 737 l 582 717 l 582 102 l 762 102 l 750 0 l 582 0 l 582 -170 l 733 -170 l 733 -262 l 273 -262 m 182 102 l 436 102 l 436 627 l 182 102 z "},"5":{"ha":736,"x_min":58,"x_max":685,"o":"m 300 -205 q 180 -191 234 -205 q 93 -144 127 -176 q 58 -68 58 -113 q 82 2 58 -24 q 154 29 106 29 q 222 0 196 29 q 248 -65 248 -28 q 239 -104 248 -83 q 229 -126 229 -126 q 285 -132 273 -132 q 395 -113 347 -132 q 473 -60 444 -94 q 534 100 534 5 q 509 209 534 162 q 442 282 485 255 q 235 335 358 335 q 147 328 203 335 l 107 376 l 158 728 l 619 728 l 579 612 l 241 612 l 210 410 q 259 414 233 412 q 311 415 284 415 q 485 393 412 415 q 602 329 559 370 q 685 115 685 248 q 588 -109 685 -16 q 467 -180 541 -154 q 300 -205 392 -205 z "},"6":{"ha":842,"x_min":96,"x_max":764,"o":"m 437 -18 q 189 91 281 -18 q 96 411 96 200 q 109 559 96 490 q 146 681 122 628 q 273 850 195 789 q 437 930 350 911 q 524 939 479 939 q 653 907 601 939 q 705 825 705 876 q 681 754 705 780 q 614 729 656 729 q 552 754 580 729 q 525 811 525 779 q 526 834 525 823 q 530 856 528 846 q 532 868 532 865 q 385 808 450 861 q 281 670 320 755 q 239 475 243 584 q 350 547 283 522 q 478 572 417 572 q 620 541 556 572 q 724 440 684 509 q 764 278 764 372 q 721 126 764 193 q 605 20 678 59 q 437 -18 531 -18 m 443 66 q 576 127 524 66 q 628 282 628 188 q 581 428 628 372 q 446 484 534 484 q 359 467 406 484 q 275 417 312 450 q 239 346 239 384 q 260 206 239 268 q 328 106 281 144 q 443 66 374 66 z "},"7":{"ha":707,"x_min":66,"x_max":661,"o":"m 239 -306 q 185 -284 208 -306 q 163 -227 163 -262 q 175 -172 163 -199 l 551 632 l 192 632 l 192 467 l 66 467 l 66 728 l 624 728 l 661 625 l 322 -244 q 287 -290 309 -275 q 239 -306 264 -306 z "},"8":{"ha":837,"x_min":64,"x_max":774,"o":"m 419 -18 q 234 12 315 -18 q 109 97 154 42 q 64 225 64 152 q 84 320 64 275 q 132 396 104 366 q 197 452 159 426 q 261 490 234 477 q 288 503 275 497 q 314 513 301 509 q 236 566 269 541 q 173 625 203 592 q 111 789 111 693 q 195 960 111 897 q 422 1023 278 1023 q 583 990 513 1023 q 691 901 652 957 q 730 775 730 845 q 713 691 730 730 q 665 623 695 652 q 535 536 607 568 q 607 491 576 512 q 671 441 638 470 q 726 384 705 412 q 760 317 747 355 q 774 237 774 278 q 680 51 774 121 q 419 -18 585 -18 m 454 581 q 504 609 481 593 q 552 650 528 625 q 591 709 576 675 q 606 782 606 743 q 555 891 606 844 q 422 938 505 938 q 289 896 342 938 q 236 781 236 854 q 243 747 236 764 q 258 716 250 730 q 286 687 267 703 q 319 660 305 671 q 361 633 334 649 q 406 608 389 617 q 425 596 413 603 q 454 581 437 589 m 415 72 q 572 112 513 72 q 632 237 632 153 q 561 366 632 310 q 491 415 525 394 q 404 464 457 435 q 396 468 399 467 q 338 433 366 452 q 280 385 311 414 q 231 320 249 357 q 212 245 212 284 q 267 116 212 159 q 415 72 321 72 z "},"9":{"ha":840,"x_min":82,"x_max":750,"o":"m 322 -192 q 193 -160 245 -192 q 140 -78 140 -128 q 165 -7 140 -33 q 232 18 190 18 q 293 -7 266 18 q 321 -64 321 -32 q 319 -87 321 -76 q 316 -108 318 -98 q 314 -121 314 -118 q 432 -82 376 -117 q 524 5 487 -47 q 587 120 562 58 q 621 248 612 182 q 526 188 585 208 q 406 168 466 168 q 312 177 357 168 q 225 208 267 186 q 151 262 182 230 q 101 345 120 294 q 82 457 82 393 q 125 606 82 538 q 243 711 168 673 q 408 749 318 749 q 657 640 564 749 q 750 319 750 530 q 724 122 750 210 q 656 -24 699 33 q 558 -120 614 -81 q 443 -175 501 -159 q 322 -192 385 -192 m 424 257 q 507 271 465 257 q 583 314 550 285 q 616 382 616 343 q 611 454 616 418 q 591 529 606 490 q 555 597 577 568 q 494 645 532 626 q 408 664 457 664 q 313 638 356 664 q 245 566 270 612 q 220 463 220 521 q 272 309 220 361 q 424 257 325 257 z "},"A":{"ha":1127,"x_min":5,"x_max":1122,"o":"m 5 0 l 5 97 l 127 97 l 485 1021 l 646 1021 l 1008 97 l 1122 97 l 1122 0 l 684 0 l 684 97 l 835 97 l 741 342 l 349 342 l 260 97 l 431 97 l 431 0 l 5 0 m 380 428 l 707 428 l 539 888 l 380 428 z "},"Á":{"ha":1127,"x_min":5,"x_max":1122,"o":"m 5 0 l 5 97 l 127 97 l 485 1021 l 646 1021 l 1008 97 l 1122 97 l 1122 0 l 684 0 l 684 97 l 835 97 l 741 342 l 349 342 l 260 97 l 431 97 l 431 0 l 5 0 m 380 428 l 707 428 l 539 888 l 380 428 m 389 1111 l 370 1137 q 456 1207 406 1168 q 554 1283 505 1246 q 639 1345 604 1320 l 692 1384 l 760 1290 q 690 1242 741 1270 q 579 1188 640 1215 q 467 1141 518 1161 l 389 1111 z "},"Ă":{"ha":1127,"x_min":5,"x_max":1122,"o":"m 5 0 l 5 97 l 127 97 l 485 1021 l 646 1021 l 1008 97 l 1122 97 l 1122 0 l 684 0 l 684 97 l 835 97 l 741 342 l 349 342 l 260 97 l 431 97 l 431 0 l 5 0 m 380 428 l 707 428 l 539 888 l 380 428 m 564 1111 q 493 1127 525 1111 q 441 1168 461 1143 q 400 1278 404 1219 l 488 1278 q 511 1215 488 1239 q 563 1192 533 1192 q 614 1215 591 1192 q 639 1275 637 1238 l 726 1275 q 686 1169 723 1220 q 635 1127 667 1144 q 564 1111 604 1111 z "},"Â":{"ha":1127,"x_min":5,"x_max":1122,"o":"m 5 0 l 5 97 l 127 97 l 485 1021 l 646 1021 l 1008 97 l 1122 97 l 1122 0 l 684 0 l 684 97 l 835 97 l 741 342 l 349 342 l 260 97 l 431 97 l 431 0 l 5 0 m 380 428 l 707 428 l 539 888 l 380 428 m 718 1111 q 563 1296 614 1249 q 524 1256 547 1282 q 477 1201 501 1230 q 435 1148 454 1172 l 409 1114 l 342 1176 l 563 1414 l 785 1172 l 718 1111 z "},"Ȁ":{"ha":1127,"x_min":5,"x_max":1122,"o":"m 5 0 l 5 97 l 127 97 l 485 1021 l 646 1021 l 1008 97 l 1122 97 l 1122 0 l 684 0 l 684 97 l 835 97 l 741 342 l 349 342 l 260 97 l 431 97 l 431 0 l 5 0 m 380 428 l 707 428 l 539 888 l 380 428 m 782 1111 q 747 1128 767 1118 q 704 1152 728 1139 q 642 1185 680 1164 q 563 1232 604 1206 q 488 1280 522 1257 q 439 1318 454 1303 l 507 1412 q 666 1259 593 1328 q 802 1137 740 1190 l 782 1111 m 518 1111 q 484 1128 503 1118 q 440 1152 464 1139 q 378 1185 416 1164 q 299 1232 340 1206 q 224 1280 258 1257 q 175 1318 190 1303 l 243 1412 q 538 1137 415 1243 l 518 1111 z "},"Ä":{"ha":1127,"x_min":5,"x_max":1122,"o":"m 5 0 l 5 97 l 127 97 l 485 1021 l 646 1021 l 1008 97 l 1122 97 l 1122 0 l 684 0 l 684 97 l 835 97 l 741 342 l 349 342 l 260 97 l 431 97 l 431 0 l 5 0 m 380 428 l 707 428 l 539 888 l 380 428 m 724 1111 q 659 1138 686 1111 q 631 1204 631 1166 q 659 1270 631 1242 q 724 1298 686 1298 q 791 1270 762 1298 q 819 1204 819 1242 q 791 1139 819 1166 q 724 1111 762 1111 m 403 1111 q 337 1138 364 1111 q 310 1204 310 1166 q 337 1270 310 1242 q 403 1298 364 1298 q 468 1270 441 1298 q 496 1204 496 1242 q 468 1139 496 1166 q 403 1111 440 1111 z "},"À":{"ha":1127,"x_min":5,"x_max":1122,"o":"m 5 0 l 5 97 l 127 97 l 485 1021 l 646 1021 l 1008 97 l 1122 97 l 1122 0 l 684 0 l 684 97 l 835 97 l 741 342 l 349 342 l 260 97 l 431 97 l 431 0 l 5 0 m 380 428 l 707 428 l 539 888 l 380 428 m 741 1111 q 726 1117 734 1114 q 707 1124 718 1120 q 663 1141 694 1129 q 596 1169 632 1154 q 528 1198 559 1184 q 435 1244 482 1218 q 370 1290 389 1270 l 438 1384 q 618 1252 537 1314 q 760 1137 699 1190 l 741 1111 z "},"Ȃ":{"ha":1127,"x_min":5,"x_max":1122,"o":"m 5 0 l 5 97 l 127 97 l 485 1021 l 646 1021 l 1008 97 l 1122 97 l 1122 0 l 684 0 l 684 97 l 835 97 l 741 342 l 349 342 l 260 97 l 431 97 l 431 0 l 5 0 m 380 428 l 707 428 l 539 888 l 380 428 m 639 1111 q 616 1173 638 1149 q 564 1197 593 1197 q 512 1174 535 1197 q 488 1114 490 1151 l 400 1114 q 441 1220 404 1169 q 491 1262 459 1246 q 562 1278 523 1278 q 634 1262 602 1278 q 686 1220 667 1246 q 715 1166 705 1194 q 726 1111 725 1138 l 639 1111 z "},"Ā":{"ha":1127,"x_min":5,"x_max":1122,"o":"m 5 0 l 5 97 l 127 97 l 485 1021 l 646 1021 l 1008 97 l 1122 97 l 1122 0 l 684 0 l 684 97 l 835 97 l 741 342 l 349 342 l 260 97 l 431 97 l 431 0 l 5 0 m 380 428 l 707 428 l 539 888 l 380 428 m 366 1141 l 366 1235 l 761 1235 l 761 1141 l 366 1141 z "},"Ą":{"ha":1127,"x_min":5,"x_max":1122,"o":"m 5 0 l 5 97 l 127 97 l 485 1021 l 646 1021 l 1008 97 l 1122 97 l 1122 0 l 684 0 l 684 97 l 835 97 l 741 342 l 349 342 l 260 97 l 431 97 l 431 0 l 5 0 m 380 428 l 707 428 l 539 888 l 380 428 m 1008 -261 q 867 -218 922 -261 q 812 -118 812 -174 q 832 -56 812 -83 q 885 -12 852 -28 q 1028 21 951 21 l 1028 0 q 948 -33 975 -9 q 921 -83 921 -56 q 944 -137 921 -115 q 1027 -167 966 -159 l 1008 -261 z "},"Å":{"ha":1127,"x_min":5,"x_max":1122,"o":"m 5 0 l 5 97 l 127 97 l 485 1021 l 646 1021 l 1008 97 l 1122 97 l 1122 0 l 684 0 l 684 97 l 835 97 l 741 342 l 349 342 l 260 97 l 431 97 l 431 0 l 5 0 m 380 428 l 707 428 l 539 888 l 380 428 m 565 1034 q 466 1068 503 1034 q 429 1158 429 1103 q 465 1246 429 1211 q 565 1281 502 1281 q 663 1246 627 1281 q 700 1158 700 1211 q 663 1069 700 1104 q 565 1034 627 1034 m 564 1073 q 617 1096 594 1073 q 640 1158 640 1118 q 618 1221 640 1198 q 565 1244 595 1244 q 511 1221 534 1244 q 488 1158 488 1198 q 511 1095 488 1118 q 564 1073 533 1073 z "},"Ã":{"ha":1127,"x_min":5,"x_max":1122,"o":"m 5 0 l 5 97 l 127 97 l 485 1021 l 646 1021 l 1008 97 l 1122 97 l 1122 0 l 684 0 l 684 97 l 835 97 l 741 342 l 349 342 l 260 97 l 431 97 l 431 0 l 5 0 m 380 428 l 707 428 l 539 888 l 380 428 m 445 1131 q 357 1168 382 1131 q 331 1296 331 1206 l 391 1296 q 404 1247 391 1261 q 450 1234 416 1234 q 561 1265 477 1234 q 682 1297 644 1297 q 770 1260 745 1297 q 796 1133 796 1223 l 736 1133 q 724 1181 736 1167 q 677 1195 711 1195 q 566 1163 650 1195 q 445 1131 483 1131 z "},"Æ":{"ha":1468,"x_min":0,"x_max":1406,"o":"m 0 0 l 0 93 l 122 93 l 593 905 l 412 905 l 412 1003 l 1406 1003 l 1406 610 l 1283 610 l 1283 905 l 865 905 l 865 551 l 1063 551 l 1063 704 l 1153 704 l 1153 288 l 1063 288 l 1063 473 l 865 473 l 865 93 l 1283 93 l 1283 387 l 1406 387 l 1406 0 l 593 0 l 593 93 l 718 93 l 718 342 l 406 342 l 272 93 l 419 93 l 419 0 l 0 0 m 453 428 l 718 428 l 718 905 l 453 428 z "},"B":{"ha":980,"x_min":22,"x_max":932,"o":"m 22 0 l 22 97 l 189 97 l 189 924 l 22 924 l 22 1021 l 467 1021 q 555 1017 512 1021 q 646 1003 597 1013 q 735 975 695 994 q 808 930 774 956 q 859 861 840 903 q 878 768 878 820 q 830 628 878 682 q 690 549 783 575 q 869 453 807 520 q 932 279 932 386 q 915 181 932 224 q 873 109 899 137 q 807 58 847 79 q 729 26 767 37 q 641 9 692 16 q 555 1 591 3 q 516 0 537 1 q 472 0 496 0 l 22 0 m 349 585 l 496 585 q 654 621 585 585 q 710 671 689 638 q 730 746 730 703 q 723 806 730 780 q 702 851 715 832 q 666 883 689 869 q 618 904 642 896 q 557 916 593 911 q 486 922 520 920 q 448 923 469 923 q 403 924 427 924 l 349 924 l 349 585 m 349 97 l 429 97 q 509 98 475 97 q 578 103 543 100 q 638 113 613 106 q 686 129 663 119 q 724 152 709 138 q 751 185 739 166 q 767 229 762 204 q 772 285 772 254 q 749 378 772 337 q 686 444 726 419 q 496 494 604 494 l 349 494 l 349 97 z "},"C":{"ha":981,"x_min":57,"x_max":970,"o":"m 539 -18 q 343 25 434 -18 q 190 142 252 68 q 92 314 127 215 q 57 521 57 412 q 93 729 57 633 q 193 895 129 825 q 351 1002 258 963 q 554 1042 444 1042 q 732 1003 647 1042 q 873 890 818 964 q 929 728 929 818 q 893 643 929 682 q 796 604 857 604 q 713 634 745 604 q 681 717 681 665 q 700 776 681 752 q 747 813 719 800 q 802 825 774 825 q 703 911 768 876 q 553 947 638 947 q 389 894 460 947 q 277 745 317 841 q 236 518 236 648 q 260 371 236 444 q 326 239 283 298 q 436 143 369 180 q 582 107 503 107 q 694 130 642 107 q 783 189 747 152 q 879 354 854 260 l 970 310 q 824 67 934 153 q 539 -18 714 -18 z "},"Ć":{"ha":981,"x_min":57,"x_max":970,"o":"m 539 -18 q 343 25 434 -18 q 190 142 252 68 q 92 314 127 215 q 57 521 57 412 q 93 729 57 633 q 193 895 129 825 q 351 1002 258 963 q 554 1042 444 1042 q 732 1003 647 1042 q 873 890 818 964 q 929 728 929 818 q 893 643 929 682 q 796 604 857 604 q 713 634 745 604 q 681 717 681 665 q 700 776 681 752 q 747 813 719 800 q 802 825 774 825 q 703 911 768 876 q 553 947 638 947 q 389 894 460 947 q 277 745 317 841 q 236 518 236 648 q 260 371 236 444 q 326 239 283 298 q 436 143 369 180 q 582 107 503 107 q 694 130 642 107 q 783 189 747 152 q 879 354 854 260 l 970 310 q 824 67 934 153 q 539 -18 714 -18 m 356 1111 l 336 1137 q 422 1207 373 1168 q 521 1283 472 1246 q 606 1345 570 1320 l 659 1384 l 727 1290 q 657 1242 707 1270 q 546 1188 606 1215 q 433 1141 485 1161 l 356 1111 z "},"Č":{"ha":981,"x_min":57,"x_max":970,"o":"m 539 -18 q 343 25 434 -18 q 190 142 252 68 q 92 314 127 215 q 57 521 57 412 q 93 729 57 633 q 193 895 129 825 q 351 1002 258 963 q 554 1042 444 1042 q 732 1003 647 1042 q 873 890 818 964 q 929 728 929 818 q 893 643 929 682 q 796 604 857 604 q 713 634 745 604 q 681 717 681 665 q 700 776 681 752 q 747 813 719 800 q 802 825 774 825 q 703 911 768 876 q 553 947 638 947 q 389 894 460 947 q 277 745 317 841 q 236 518 236 648 q 260 371 236 444 q 326 239 283 298 q 436 143 369 180 q 582 107 503 107 q 694 130 642 107 q 783 189 747 152 q 879 354 854 260 l 970 310 q 824 67 934 153 q 539 -18 714 -18 m 542 1110 l 319 1352 l 387 1413 q 542 1228 490 1275 q 581 1268 558 1242 q 628 1323 604 1294 q 669 1375 652 1352 l 696 1411 l 763 1348 l 542 1110 z "},"Ç":{"ha":981,"x_min":57,"x_max":970,"o":"m 539 -18 q 343 25 434 -18 q 190 142 252 68 q 92 314 127 215 q 57 521 57 412 q 93 729 57 633 q 193 895 129 825 q 351 1002 258 963 q 554 1042 444 1042 q 732 1003 647 1042 q 873 890 818 964 q 929 728 929 818 q 893 643 929 682 q 796 604 857 604 q 713 634 745 604 q 681 717 681 665 q 700 776 681 752 q 747 813 719 800 q 802 825 774 825 q 703 911 768 876 q 553 947 638 947 q 389 894 460 947 q 277 745 317 841 q 236 518 236 648 q 260 371 236 444 q 326 239 283 298 q 436 143 369 180 q 582 107 503 107 q 694 130 642 107 q 783 189 747 152 q 879 354 854 260 l 970 310 q 824 67 934 153 q 539 -18 714 -18 m 392 -313 l 372 -264 q 441 -245 414 -257 q 471 -220 471 -233 q 439 -174 471 -205 q 407 -125 407 -142 q 426 -73 407 -99 q 478 -29 446 -47 q 549 -12 510 -12 l 575 -12 l 575 -199 q 556 -244 575 -223 q 511 -277 537 -264 q 457 -297 484 -289 q 411 -309 430 -306 l 392 -313 z "},"Ĉ":{"ha":981,"x_min":57,"x_max":970,"o":"m 539 -18 q 343 25 434 -18 q 190 142 252 68 q 92 314 127 215 q 57 521 57 412 q 93 729 57 633 q 193 895 129 825 q 351 1002 258 963 q 554 1042 444 1042 q 732 1003 647 1042 q 873 890 818 964 q 929 728 929 818 q 893 643 929 682 q 796 604 857 604 q 713 634 745 604 q 681 717 681 665 q 700 776 681 752 q 747 813 719 800 q 802 825 774 825 q 703 911 768 876 q 553 947 638 947 q 389 894 460 947 q 277 745 317 841 q 236 518 236 648 q 260 371 236 444 q 326 239 283 298 q 436 143 369 180 q 582 107 503 107 q 694 130 642 107 q 783 189 747 152 q 879 354 854 260 l 970 310 q 824 67 934 153 q 539 -18 714 -18 m 685 1111 q 530 1296 581 1249 q 491 1256 514 1282 q 444 1201 468 1230 q 402 1148 420 1172 l 376 1114 l 309 1176 l 530 1414 l 752 1172 l 685 1111 z "},"Ċ":{"ha":981,"x_min":57,"x_max":970,"o":"m 539 -18 q 343 25 434 -18 q 190 142 252 68 q 92 314 127 215 q 57 521 57 412 q 93 729 57 633 q 193 895 129 825 q 351 1002 258 963 q 554 1042 444 1042 q 732 1003 647 1042 q 873 890 818 964 q 929 728 929 818 q 893 643 929 682 q 796 604 857 604 q 713 634 745 604 q 681 717 681 665 q 700 776 681 752 q 747 813 719 800 q 802 825 774 825 q 703 911 768 876 q 553 947 638 947 q 389 894 460 947 q 277 745 317 841 q 236 518 236 648 q 260 371 236 444 q 326 239 283 298 q 436 143 369 180 q 582 107 503 107 q 694 130 642 107 q 783 189 747 152 q 879 354 854 260 l 970 310 q 824 67 934 153 q 539 -18 714 -18 m 530 1114 q 459 1143 488 1114 q 429 1214 429 1173 q 459 1285 429 1256 q 530 1315 488 1315 q 601 1285 570 1315 q 631 1214 631 1255 q 601 1143 631 1173 q 530 1114 570 1114 z "},"D":{"ha":1063,"x_min":22,"x_max":1007,"o":"m 22 0 l 22 97 l 187 97 l 187 924 l 22 924 l 22 1021 l 329 1021 q 533 1007 439 1021 q 716 958 627 994 q 868 866 806 922 q 969 722 931 810 q 1007 517 1007 631 q 976 322 1007 408 q 888 176 945 235 q 750 76 831 116 q 570 18 668 37 q 354 0 471 0 l 22 0 m 347 97 q 502 109 433 97 q 635 151 572 121 q 741 227 698 180 q 808 347 783 274 q 833 517 833 420 q 820 648 833 589 q 782 748 806 707 q 721 821 758 790 q 645 871 685 852 q 553 902 604 890 q 454 918 503 913 q 347 922 405 922 l 347 97 z "},"Ǳ":{"ha":1985,"x_min":22,"x_max":1930,"o":"m 22 0 l 22 97 l 187 97 l 187 924 l 22 924 l 22 1021 l 329 1021 q 533 1007 439 1021 q 716 958 627 994 q 868 866 806 922 q 969 722 931 810 q 1007 517 1007 631 q 976 322 1007 408 q 888 176 945 235 q 750 76 831 116 q 570 18 668 37 q 354 0 471 0 l 22 0 m 347 97 q 502 109 433 97 q 635 151 572 121 q 741 227 698 180 q 808 347 783 274 q 833 517 833 420 q 820 648 833 589 q 782 748 806 707 q 721 821 758 790 q 645 871 685 852 q 553 902 604 890 q 454 918 503 913 q 347 922 405 922 l 347 97 m 1155 0 l 1139 113 l 1730 928 l 1277 928 l 1277 642 l 1151 642 l 1151 1021 l 1880 1021 l 1908 905 l 1322 97 l 1804 97 l 1804 400 l 1930 400 l 1930 0 l 1155 0 z "},"Ǆ":{"ha":1985,"x_min":22,"x_max":1930,"o":"m 22 0 l 22 97 l 187 97 l 187 924 l 22 924 l 22 1021 l 329 1021 q 533 1007 439 1021 q 716 958 627 994 q 868 866 806 922 q 969 722 931 810 q 1007 517 1007 631 q 976 322 1007 408 q 888 176 945 235 q 750 76 831 116 q 570 18 668 37 q 354 0 471 0 l 22 0 m 347 97 q 502 109 433 97 q 635 151 572 121 q 741 227 698 180 q 808 347 783 274 q 833 517 833 420 q 820 648 833 589 q 782 748 806 707 q 721 821 758 790 q 645 871 685 852 q 553 902 604 890 q 454 918 503 913 q 347 922 405 922 l 347 97 m 1155 0 l 1139 113 l 1730 928 l 1277 928 l 1277 642 l 1151 642 l 1151 1021 l 1880 1021 l 1908 905 l 1322 97 l 1804 97 l 1804 400 l 1930 400 l 1930 0 l 1155 0 m 1550 1110 l 1327 1352 l 1394 1413 q 1550 1228 1498 1275 q 1589 1268 1566 1242 q 1636 1323 1612 1294 q 1677 1375 1659 1352 l 1704 1411 l 1771 1348 l 1550 1110 z "},"Ð":{"ha":1094,"x_min":22,"x_max":1007,"o":"m 22 0 l 22 93 l 187 93 l 187 468 l 37 468 l 37 566 l 187 566 l 187 924 l 22 924 l 22 1021 l 329 1021 q 533 1007 439 1021 q 716 958 627 994 q 868 866 806 922 q 969 722 931 810 q 1007 517 1007 631 q 976 322 1007 408 q 888 176 945 235 q 750 76 831 116 q 570 18 668 37 q 354 0 471 0 l 22 0 m 347 93 q 502 105 433 93 q 635 147 572 117 q 741 224 698 177 q 808 346 783 272 q 833 517 833 419 q 820 648 833 589 q 782 748 806 707 q 721 821 758 790 q 645 871 685 852 q 553 902 604 890 q 454 918 503 913 q 347 922 405 922 l 347 566 l 518 566 l 518 468 l 347 468 l 347 93 z "},"Ď":{"ha":1063,"x_min":22,"x_max":1007,"o":"m 22 0 l 22 97 l 187 97 l 187 924 l 22 924 l 22 1021 l 329 1021 q 533 1007 439 1021 q 716 958 627 994 q 868 866 806 922 q 969 722 931 810 q 1007 517 1007 631 q 976 322 1007 408 q 888 176 945 235 q 750 76 831 116 q 570 18 668 37 q 354 0 471 0 l 22 0 m 347 97 q 502 109 433 97 q 635 151 572 121 q 741 227 698 180 q 808 347 783 274 q 833 517 833 420 q 820 648 833 589 q 782 748 806 707 q 721 821 758 790 q 645 871 685 852 q 553 902 604 890 q 454 918 503 913 q 347 922 405 922 l 347 97 m 543 1110 l 321 1352 l 388 1413 q 543 1228 492 1275 q 583 1268 559 1242 q 629 1323 606 1294 q 671 1375 653 1352 l 697 1411 l 764 1348 l 543 1110 z "},"Đ":{"ha":1094,"x_min":22,"x_max":1007,"o":"m 22 0 l 22 93 l 187 93 l 187 468 l 37 468 l 37 566 l 187 566 l 187 924 l 22 924 l 22 1021 l 329 1021 q 533 1007 439 1021 q 716 958 627 994 q 868 866 806 922 q 969 722 931 810 q 1007 517 1007 631 q 976 322 1007 408 q 888 176 945 235 q 750 76 831 116 q 570 18 668 37 q 354 0 471 0 l 22 0 m 347 93 q 502 105 433 93 q 635 147 572 117 q 741 224 698 177 q 808 346 783 272 q 833 517 833 419 q 820 648 833 589 q 782 748 806 707 q 721 821 758 790 q 645 871 685 852 q 553 902 604 890 q 454 918 503 913 q 347 922 405 922 l 347 566 l 518 566 l 518 468 l 347 468 l 347 93 z "},"ǲ":{"ha":1805,"x_min":22,"x_max":1748,"o":"m 22 0 l 22 97 l 187 97 l 187 924 l 22 924 l 22 1021 l 329 1021 q 533 1007 439 1021 q 716 958 627 994 q 868 866 806 922 q 969 722 931 810 q 1007 517 1007 631 q 976 322 1007 408 q 888 176 945 235 q 750 76 831 116 q 570 18 668 37 q 354 0 471 0 l 22 0 m 347 97 q 502 109 433 97 q 635 151 572 121 q 741 227 698 180 q 808 347 783 274 q 833 517 833 420 q 820 648 833 589 q 782 748 806 707 q 721 821 758 790 q 645 871 685 852 q 553 902 604 890 q 454 918 503 913 q 347 922 405 922 l 347 97 m 1149 0 l 1139 107 l 1571 652 l 1255 652 l 1255 465 l 1144 465 l 1144 728 l 1701 728 l 1721 627 l 1283 76 l 1637 76 l 1637 283 l 1748 283 l 1748 0 l 1149 0 z "},"ǅ":{"ha":1805,"x_min":22,"x_max":1748,"o":"m 22 0 l 22 97 l 187 97 l 187 924 l 22 924 l 22 1021 l 329 1021 q 533 1007 439 1021 q 716 958 627 994 q 868 866 806 922 q 969 722 931 810 q 1007 517 1007 631 q 976 322 1007 408 q 888 176 945 235 q 750 76 831 116 q 570 18 668 37 q 354 0 471 0 l 22 0 m 347 97 q 502 109 433 97 q 635 151 572 121 q 741 227 698 180 q 808 347 783 274 q 833 517 833 420 q 820 648 833 589 q 782 748 806 707 q 721 821 758 790 q 645 871 685 852 q 553 902 604 890 q 454 918 503 913 q 347 922 405 922 l 347 97 m 1149 0 l 1139 107 l 1571 652 l 1255 652 l 1255 465 l 1144 465 l 1144 728 l 1701 728 l 1721 627 l 1283 76 l 1637 76 l 1637 283 l 1748 283 l 1748 0 l 1149 0 m 1453 817 l 1230 1059 l 1297 1120 q 1453 935 1401 982 q 1492 975 1469 949 q 1539 1030 1515 1001 q 1580 1082 1563 1059 l 1607 1118 l 1674 1055 l 1453 817 z "},"E":{"ha":1006,"x_min":22,"x_max":945,"o":"m 22 0 l 22 97 l 189 97 l 189 924 l 22 924 l 22 1021 l 945 1021 l 945 628 l 822 628 l 822 924 l 349 924 l 349 557 l 602 557 l 602 724 l 692 724 l 692 302 l 602 302 l 602 479 l 349 479 l 349 97 l 822 97 l 822 387 l 945 387 l 945 0 l 22 0 z "},"É":{"ha":1006,"x_min":22,"x_max":945,"o":"m 22 0 l 22 97 l 189 97 l 189 924 l 22 924 l 22 1021 l 945 1021 l 945 628 l 822 628 l 822 924 l 349 924 l 349 557 l 602 557 l 602 724 l 692 724 l 692 302 l 602 302 l 602 479 l 349 479 l 349 97 l 822 97 l 822 387 l 945 387 l 945 0 l 22 0 m 350 1111 l 330 1137 q 416 1207 367 1168 q 515 1283 466 1246 q 600 1345 564 1320 l 652 1384 l 721 1290 q 651 1242 701 1270 q 539 1188 600 1215 q 427 1141 479 1161 l 350 1111 z "},"Ě":{"ha":1006,"x_min":22,"x_max":945,"o":"m 22 0 l 22 97 l 189 97 l 189 924 l 22 924 l 22 1021 l 945 1021 l 945 628 l 822 628 l 822 924 l 349 924 l 349 557 l 602 557 l 602 724 l 692 724 l 692 302 l 602 302 l 602 479 l 349 479 l 349 97 l 822 97 l 822 387 l 945 387 l 945 0 l 22 0 m 536 1110 l 313 1352 l 380 1413 q 536 1228 484 1275 q 575 1268 552 1242 q 622 1323 598 1294 q 663 1375 646 1352 l 690 1411 l 757 1348 l 536 1110 z "},"Ê":{"ha":1006,"x_min":22,"x_max":945,"o":"m 22 0 l 22 97 l 189 97 l 189 924 l 22 924 l 22 1021 l 945 1021 l 945 628 l 822 628 l 822 924 l 349 924 l 349 557 l 602 557 l 602 724 l 692 724 l 692 302 l 602 302 l 602 479 l 349 479 l 349 97 l 822 97 l 822 387 l 945 387 l 945 0 l 22 0 m 679 1111 q 524 1296 575 1249 q 485 1256 508 1282 q 438 1201 462 1230 q 396 1148 414 1172 l 370 1114 l 302 1176 l 524 1414 l 746 1172 l 679 1111 z "},"Ȅ":{"ha":1006,"x_min":22,"x_max":945,"o":"m 22 0 l 22 97 l 189 97 l 189 924 l 22 924 l 22 1021 l 945 1021 l 945 628 l 822 628 l 822 924 l 349 924 l 349 557 l 602 557 l 602 724 l 692 724 l 692 302 l 602 302 l 602 479 l 349 479 l 349 97 l 822 97 l 822 387 l 945 387 l 945 0 l 22 0 m 743 1111 q 708 1128 728 1118 q 665 1152 688 1139 q 603 1185 641 1164 q 523 1232 564 1206 q 448 1280 482 1257 q 399 1318 414 1303 l 468 1412 q 627 1259 553 1328 q 762 1137 701 1190 l 743 1111 m 479 1111 q 444 1128 464 1118 q 401 1152 425 1139 q 339 1185 377 1164 q 259 1232 300 1206 q 184 1280 218 1257 q 136 1318 151 1303 l 203 1412 q 498 1137 376 1243 l 479 1111 z "},"Ë":{"ha":1006,"x_min":22,"x_max":945,"o":"m 22 0 l 22 97 l 189 97 l 189 924 l 22 924 l 22 1021 l 945 1021 l 945 628 l 822 628 l 822 924 l 349 924 l 349 557 l 602 557 l 602 724 l 692 724 l 692 302 l 602 302 l 602 479 l 349 479 l 349 97 l 822 97 l 822 387 l 945 387 l 945 0 l 22 0 m 685 1111 q 619 1138 646 1111 q 592 1204 592 1166 q 619 1270 592 1242 q 685 1298 646 1298 q 751 1270 723 1298 q 780 1204 780 1242 q 751 1139 780 1166 q 685 1111 723 1111 m 363 1111 q 298 1138 325 1111 q 271 1204 271 1166 q 298 1270 271 1242 q 363 1298 325 1298 q 429 1270 401 1298 q 456 1204 456 1242 q 429 1139 456 1166 q 363 1111 401 1111 z "},"Ė":{"ha":1006,"x_min":22,"x_max":945,"o":"m 22 0 l 22 97 l 189 97 l 189 924 l 22 924 l 22 1021 l 945 1021 l 945 628 l 822 628 l 822 924 l 349 924 l 349 557 l 602 557 l 602 724 l 692 724 l 692 302 l 602 302 l 602 479 l 349 479 l 349 97 l 822 97 l 822 387 l 945 387 l 945 0 l 22 0 m 524 1114 q 453 1143 482 1114 q 423 1214 423 1173 q 453 1285 423 1256 q 524 1315 482 1315 q 594 1285 564 1315 q 625 1214 625 1255 q 594 1143 625 1173 q 524 1114 564 1114 z "},"È":{"ha":1006,"x_min":22,"x_max":945,"o":"m 22 0 l 22 97 l 189 97 l 189 924 l 22 924 l 22 1021 l 945 1021 l 945 628 l 822 628 l 822 924 l 349 924 l 349 557 l 602 557 l 602 724 l 692 724 l 692 302 l 602 302 l 602 479 l 349 479 l 349 97 l 822 97 l 822 387 l 945 387 l 945 0 l 22 0 m 701 1111 q 687 1117 695 1114 q 668 1124 679 1120 q 624 1141 654 1129 q 556 1169 593 1154 q 489 1198 520 1184 q 396 1244 443 1218 q 330 1290 349 1270 l 399 1384 q 578 1252 498 1314 q 721 1137 659 1190 l 701 1111 z "},"Ȇ":{"ha":1006,"x_min":22,"x_max":945,"o":"m 22 0 l 22 97 l 189 97 l 189 924 l 22 924 l 22 1021 l 945 1021 l 945 628 l 822 628 l 822 924 l 349 924 l 349 557 l 602 557 l 602 724 l 692 724 l 692 302 l 602 302 l 602 479 l 349 479 l 349 97 l 822 97 l 822 387 l 945 387 l 945 0 l 22 0 m 600 1111 q 576 1173 599 1149 q 524 1197 554 1197 q 473 1174 496 1197 q 448 1114 450 1151 l 361 1114 q 401 1220 364 1169 q 452 1262 420 1246 q 523 1278 484 1278 q 595 1262 562 1278 q 646 1220 627 1246 q 676 1166 666 1194 q 687 1111 686 1138 l 600 1111 z "},"Ē":{"ha":1006,"x_min":22,"x_max":945,"o":"m 22 0 l 22 97 l 189 97 l 189 924 l 22 924 l 22 1021 l 945 1021 l 945 628 l 822 628 l 822 924 l 349 924 l 349 557 l 602 557 l 602 724 l 692 724 l 692 302 l 602 302 l 602 479 l 349 479 l 349 97 l 822 97 l 822 387 l 945 387 l 945 0 l 22 0 m 327 1141 l 327 1235 l 722 1235 l 722 1141 l 327 1141 z "},"Ę":{"ha":1006,"x_min":22,"x_max":945,"o":"m 22 0 l 22 97 l 189 97 l 189 924 l 22 924 l 22 1021 l 945 1021 l 945 628 l 822 628 l 822 924 l 349 924 l 349 557 l 602 557 l 602 724 l 692 724 l 692 302 l 602 302 l 602 479 l 349 479 l 349 97 l 822 97 l 822 387 l 945 387 l 945 0 l 22 0 m 861 -261 q 719 -218 774 -261 q 665 -118 665 -174 q 685 -56 665 -83 q 737 -12 705 -28 q 880 21 804 21 l 880 0 q 800 -33 827 -9 q 773 -83 773 -56 q 796 -137 773 -115 q 879 -167 819 -159 l 861 -261 z "},"F":{"ha":956,"x_min":22,"x_max":932,"o":"m 22 0 l 22 97 l 187 97 l 187 924 l 22 924 l 22 1021 l 932 1021 l 932 648 l 808 648 l 808 924 l 347 924 l 347 572 l 591 572 l 591 715 l 685 715 l 685 319 l 591 319 l 591 492 l 347 492 l 347 97 l 524 97 l 524 0 l 22 0 z "},"G":{"ha":1084,"x_min":57,"x_max":1082,"o":"m 534 -18 q 330 26 419 -18 q 180 146 241 70 q 88 317 119 222 q 57 515 57 413 q 93 714 57 619 q 197 883 129 809 q 362 999 265 956 q 580 1042 458 1042 q 726 1021 655 1042 q 852 960 796 1000 q 940 864 907 920 q 972 736 972 807 q 941 659 972 694 q 856 624 909 624 q 774 657 807 624 q 742 730 742 690 q 772 808 742 778 q 831 839 802 839 q 723 922 789 897 q 593 947 657 947 q 397 888 477 947 q 276 731 317 829 q 235 517 235 633 q 259 366 235 440 q 328 233 283 292 q 436 138 373 174 q 578 103 500 103 q 707 136 650 103 q 799 215 765 169 q 832 302 832 262 l 832 397 l 640 397 l 640 500 l 1082 500 l 1082 397 l 971 397 l 971 0 l 889 0 l 856 143 q 774 48 826 83 q 659 -3 722 13 q 534 -18 597 -18 z "},"Ǵ":{"ha":1084,"x_min":57,"x_max":1082,"o":"m 534 -18 q 330 26 419 -18 q 180 146 241 70 q 88 317 119 222 q 57 515 57 413 q 93 714 57 619 q 197 883 129 809 q 362 999 265 956 q 580 1042 458 1042 q 726 1021 655 1042 q 852 960 796 1000 q 940 864 907 920 q 972 736 972 807 q 941 659 972 694 q 856 624 909 624 q 774 657 807 624 q 742 730 742 690 q 772 808 742 778 q 831 839 802 839 q 723 922 789 897 q 593 947 657 947 q 397 888 477 947 q 276 731 317 829 q 235 517 235 633 q 259 366 235 440 q 328 233 283 292 q 436 138 373 174 q 578 103 500 103 q 707 136 650 103 q 799 215 765 169 q 832 302 832 262 l 832 397 l 640 397 l 640 500 l 1082 500 l 1082 397 l 971 397 l 971 0 l 889 0 l 856 143 q 774 48 826 83 q 659 -3 722 13 q 534 -18 597 -18 m 389 1111 l 370 1137 q 456 1207 406 1168 q 554 1283 505 1246 q 639 1345 604 1320 l 692 1384 l 760 1290 q 690 1242 741 1270 q 579 1188 640 1215 q 467 1141 518 1161 l 389 1111 z "},"Ğ":{"ha":1084,"x_min":57,"x_max":1082,"o":"m 534 -18 q 330 26 419 -18 q 180 146 241 70 q 88 317 119 222 q 57 515 57 413 q 93 714 57 619 q 197 883 129 809 q 362 999 265 956 q 580 1042 458 1042 q 726 1021 655 1042 q 852 960 796 1000 q 940 864 907 920 q 972 736 972 807 q 941 659 972 694 q 856 624 909 624 q 774 657 807 624 q 742 730 742 690 q 772 808 742 778 q 831 839 802 839 q 723 922 789 897 q 593 947 657 947 q 397 888 477 947 q 276 731 317 829 q 235 517 235 633 q 259 366 235 440 q 328 233 283 292 q 436 138 373 174 q 578 103 500 103 q 707 136 650 103 q 799 215 765 169 q 832 302 832 262 l 832 397 l 640 397 l 640 500 l 1082 500 l 1082 397 l 971 397 l 971 0 l 889 0 l 856 143 q 774 48 826 83 q 659 -3 722 13 q 534 -18 597 -18 m 564 1111 q 493 1127 525 1111 q 441 1168 461 1143 q 400 1278 404 1219 l 488 1278 q 511 1215 488 1239 q 563 1192 533 1192 q 614 1215 591 1192 q 639 1275 637 1238 l 726 1275 q 686 1169 723 1220 q 635 1127 667 1144 q 564 1111 604 1111 z "},"Ĝ":{"ha":1084,"x_min":57,"x_max":1082,"o":"m 534 -18 q 330 26 419 -18 q 180 146 241 70 q 88 317 119 222 q 57 515 57 413 q 93 714 57 619 q 197 883 129 809 q 362 999 265 956 q 580 1042 458 1042 q 726 1021 655 1042 q 852 960 796 1000 q 940 864 907 920 q 972 736 972 807 q 941 659 972 694 q 856 624 909 624 q 774 657 807 624 q 742 730 742 690 q 772 808 742 778 q 831 839 802 839 q 723 922 789 897 q 593 947 657 947 q 397 888 477 947 q 276 731 317 829 q 235 517 235 633 q 259 366 235 440 q 328 233 283 292 q 436 138 373 174 q 578 103 500 103 q 707 136 650 103 q 799 215 765 169 q 832 302 832 262 l 832 397 l 640 397 l 640 500 l 1082 500 l 1082 397 l 971 397 l 971 0 l 889 0 l 856 143 q 774 48 826 83 q 659 -3 722 13 q 534 -18 597 -18 m 718 1111 q 563 1296 614 1249 q 524 1256 547 1282 q 477 1201 501 1230 q 435 1148 454 1172 l 409 1114 l 342 1176 l 563 1414 l 785 1172 l 718 1111 z "},"Ģ":{"ha":1084,"x_min":57,"x_max":1082,"o":"m 534 -18 q 330 26 419 -18 q 180 146 241 70 q 88 317 119 222 q 57 515 57 413 q 93 714 57 619 q 197 883 129 809 q 362 999 265 956 q 580 1042 458 1042 q 726 1021 655 1042 q 852 960 796 1000 q 940 864 907 920 q 972 736 972 807 q 941 659 972 694 q 856 624 909 624 q 774 657 807 624 q 742 730 742 690 q 772 808 742 778 q 831 839 802 839 q 723 922 789 897 q 593 947 657 947 q 397 888 477 947 q 276 731 317 829 q 235 517 235 633 q 259 366 235 440 q 328 233 283 292 q 436 138 373 174 q 578 103 500 103 q 707 136 650 103 q 799 215 765 169 q 832 302 832 262 l 832 397 l 640 397 l 640 500 l 1082 500 l 1082 397 l 971 397 l 971 0 l 889 0 l 856 143 q 774 48 826 83 q 659 -3 722 13 q 534 -18 597 -18 m 545 -387 l 511 -382 q 513 -325 513 -356 q 514 -256 514 -293 q 514 -188 514 -218 q 513 -134 513 -158 l 511 -87 l 627 -87 q 619 -151 628 -109 q 595 -241 610 -193 q 566 -328 581 -289 l 545 -387 z "},"Ġ":{"ha":1084,"x_min":57,"x_max":1082,"o":"m 534 -18 q 330 26 419 -18 q 180 146 241 70 q 88 317 119 222 q 57 515 57 413 q 93 714 57 619 q 197 883 129 809 q 362 999 265 956 q 580 1042 458 1042 q 726 1021 655 1042 q 852 960 796 1000 q 940 864 907 920 q 972 736 972 807 q 941 659 972 694 q 856 624 909 624 q 774 657 807 624 q 742 730 742 690 q 772 808 742 778 q 831 839 802 839 q 723 922 789 897 q 593 947 657 947 q 397 888 477 947 q 276 731 317 829 q 235 517 235 633 q 259 366 235 440 q 328 233 283 292 q 436 138 373 174 q 578 103 500 103 q 707 136 650 103 q 799 215 765 169 q 832 302 832 262 l 832 397 l 640 397 l 640 500 l 1082 500 l 1082 397 l 971 397 l 971 0 l 889 0 l 856 143 q 774 48 826 83 q 659 -3 722 13 q 534 -18 597 -18 m 563 1114 q 492 1143 522 1114 q 463 1214 463 1173 q 492 1285 463 1256 q 563 1315 522 1315 q 634 1285 604 1315 q 664 1214 664 1255 q 634 1143 664 1173 q 563 1114 604 1114 z "},"H":{"ha":1122,"x_min":22,"x_max":1100,"o":"m 22 0 l 22 97 l 187 97 l 187 924 l 22 924 l 22 1021 l 503 1021 l 503 924 l 347 924 l 347 578 l 775 578 l 775 924 l 618 924 l 618 1021 l 1100 1021 l 1100 924 l 935 924 l 935 97 l 1100 97 l 1100 0 l 618 0 l 618 97 l 775 97 l 775 492 l 347 492 l 347 97 l 503 97 l 503 0 l 22 0 z "},"Ħ":{"ha":1122,"x_min":22,"x_max":1100,"o":"m 22 0 l 22 93 l 187 93 l 187 711 l 117 711 l 117 791 l 187 791 l 187 924 l 22 924 l 22 1021 l 503 1021 l 503 924 l 347 924 l 347 791 l 775 791 l 775 924 l 618 924 l 618 1021 l 1100 1021 l 1100 924 l 935 924 l 935 791 l 1006 791 l 1006 711 l 935 711 l 935 93 l 1100 93 l 1100 0 l 618 0 l 618 93 l 775 93 l 775 492 l 347 492 l 347 93 l 503 93 l 503 0 l 22 0 m 347 578 l 775 578 l 775 711 l 347 711 l 347 578 z "},"Ĥ":{"ha":1122,"x_min":22,"x_max":1100,"o":"m 22 0 l 22 97 l 187 97 l 187 924 l 22 924 l 22 1021 l 503 1021 l 503 924 l 347 924 l 347 578 l 775 578 l 775 924 l 618 924 l 618 1021 l 1100 1021 l 1100 924 l 935 924 l 935 97 l 1100 97 l 1100 0 l 618 0 l 618 97 l 775 97 l 775 492 l 347 492 l 347 97 l 503 97 l 503 0 l 22 0 m 715 1111 q 560 1296 612 1249 q 522 1256 545 1282 q 475 1201 498 1230 q 433 1148 451 1172 l 406 1114 l 339 1176 l 560 1414 l 783 1172 l 715 1111 z "},"I":{"ha":522,"x_min":20,"x_max":501,"o":"m 20 0 l 20 97 l 186 97 l 186 924 l 20 924 l 20 1021 l 501 1021 l 501 924 l 345 924 l 345 97 l 501 97 l 501 0 l 20 0 z "},"Ĳ":{"ha":1309,"x_min":20,"x_max":1301,"o":"m 20 0 l 20 97 l 186 97 l 186 924 l 20 924 l 20 1021 l 501 1021 l 501 924 l 345 924 l 345 97 l 501 97 l 501 0 l 20 0 m 827 -136 q 681 -107 745 -136 q 581 -27 617 -77 q 545 83 545 23 q 579 172 545 140 q 661 204 613 204 q 739 175 705 204 q 773 96 773 145 q 749 29 773 60 q 698 -18 726 -1 q 749 -48 711 -37 q 820 -60 787 -60 q 890 -47 861 -60 q 937 -12 920 -34 q 964 45 954 9 q 977 119 973 81 q 979 161 978 138 q 980 211 980 184 l 980 924 l 789 924 l 789 1021 l 1301 1021 l 1301 924 l 1139 924 l 1139 229 q 1132 114 1139 165 q 1103 15 1124 63 q 1048 -65 1082 -33 q 958 -117 1014 -97 q 827 -136 901 -136 z "},"Í":{"ha":522,"x_min":20,"x_max":501,"o":"m 20 0 l 20 97 l 186 97 l 186 924 l 20 924 l 20 1021 l 501 1021 l 501 924 l 345 924 l 345 97 l 501 97 l 501 0 l 20 0 m 87 1111 l 67 1137 q 153 1207 104 1168 q 252 1283 203 1246 q 336 1345 301 1320 l 389 1384 l 458 1290 q 388 1242 438 1270 q 276 1188 337 1215 q 164 1141 216 1161 l 87 1111 z "},"Ĭ":{"ha":522,"x_min":20,"x_max":501,"o":"m 20 0 l 20 97 l 186 97 l 186 924 l 20 924 l 20 1021 l 501 1021 l 501 924 l 345 924 l 345 97 l 501 97 l 501 0 l 20 0 m 262 1111 q 191 1127 222 1111 q 139 1168 159 1143 q 98 1278 101 1219 l 185 1278 q 208 1215 186 1239 q 260 1192 231 1192 q 312 1215 289 1192 q 336 1275 334 1238 l 424 1275 q 384 1169 420 1220 q 333 1127 365 1144 q 262 1111 301 1111 z "},"Î":{"ha":522,"x_min":20,"x_max":501,"o":"m 20 0 l 20 97 l 186 97 l 186 924 l 20 924 l 20 1021 l 501 1021 l 501 924 l 345 924 l 345 97 l 501 97 l 501 0 l 20 0 m 416 1111 q 260 1296 312 1249 q 222 1256 245 1282 q 175 1201 199 1230 q 133 1148 151 1172 l 106 1114 l 39 1176 l 260 1414 l 483 1172 l 416 1111 z "},"Ȉ":{"ha":522,"x_min":-127,"x_max":501,"o":"m 20 0 l 20 97 l 186 97 l 186 924 l 20 924 l 20 1021 l 501 1021 l 501 924 l 345 924 l 345 97 l 501 97 l 501 0 l 20 0 m 479 1111 q 445 1128 465 1118 q 401 1152 425 1139 q 339 1185 378 1164 q 260 1232 301 1206 q 185 1280 219 1257 q 136 1318 151 1303 l 205 1412 q 364 1259 290 1328 q 499 1137 437 1190 l 479 1111 m 216 1111 q 181 1128 201 1118 q 138 1152 161 1139 q 76 1185 114 1164 q -4 1232 37 1206 q -79 1280 -45 1257 q -127 1318 -113 1303 l -60 1412 q 235 1137 113 1243 l 216 1111 z "},"Ï":{"ha":522,"x_min":7,"x_max":517,"o":"m 20 0 l 20 97 l 186 97 l 186 924 l 20 924 l 20 1021 l 501 1021 l 501 924 l 345 924 l 345 97 l 501 97 l 501 0 l 20 0 m 422 1111 q 356 1138 383 1111 q 329 1204 329 1166 q 356 1270 329 1242 q 422 1298 383 1298 q 488 1270 460 1298 q 517 1204 517 1242 q 488 1139 517 1166 q 422 1111 460 1111 m 100 1111 q 35 1138 62 1111 q 7 1204 7 1166 q 35 1270 7 1242 q 100 1298 62 1298 q 166 1270 138 1298 q 193 1204 193 1242 q 165 1139 193 1166 q 100 1111 138 1111 z "},"İ":{"ha":522,"x_min":20,"x_max":501,"o":"m 20 0 l 20 97 l 186 97 l 186 924 l 20 924 l 20 1021 l 501 1021 l 501 924 l 345 924 l 345 97 l 501 97 l 501 0 l 20 0 m 260 1114 q 190 1143 219 1114 q 160 1214 160 1173 q 190 1285 160 1256 q 260 1315 219 1315 q 331 1285 301 1315 q 361 1214 361 1255 q 331 1143 361 1173 q 260 1114 301 1114 z "},"Ì":{"ha":522,"x_min":20,"x_max":501,"o":"m 20 0 l 20 97 l 186 97 l 186 924 l 20 924 l 20 1021 l 501 1021 l 501 924 l 345 924 l 345 97 l 501 97 l 501 0 l 20 0 m 438 1111 q 424 1117 432 1114 q 405 1124 416 1120 q 360 1141 391 1129 q 293 1169 330 1154 q 226 1198 257 1184 q 133 1244 180 1218 q 67 1290 86 1270 l 136 1384 q 315 1252 235 1314 q 458 1137 396 1190 l 438 1111 z "},"Ȋ":{"ha":522,"x_min":20,"x_max":501,"o":"m 20 0 l 20 97 l 186 97 l 186 924 l 20 924 l 20 1021 l 501 1021 l 501 924 l 345 924 l 345 97 l 501 97 l 501 0 l 20 0 m 336 1111 q 313 1173 336 1149 q 261 1197 291 1197 q 210 1174 233 1197 q 185 1114 187 1151 l 98 1114 q 138 1220 101 1169 q 189 1262 157 1246 q 260 1278 220 1278 q 332 1262 299 1278 q 383 1220 364 1246 q 413 1166 403 1194 q 424 1111 422 1138 l 336 1111 z "},"Ī":{"ha":522,"x_min":20,"x_max":501,"o":"m 20 0 l 20 97 l 186 97 l 186 924 l 20 924 l 20 1021 l 501 1021 l 501 924 l 345 924 l 345 97 l 501 97 l 501 0 l 20 0 m 64 1141 l 64 1235 l 458 1235 l 458 1141 l 64 1141 z "},"Į":{"ha":522,"x_min":20,"x_max":501,"o":"m 20 0 l 20 97 l 186 97 l 186 924 l 20 924 l 20 1021 l 501 1021 l 501 924 l 345 924 l 345 97 l 501 97 l 501 0 l 20 0 m 315 -260 q 174 -217 229 -260 q 119 -117 119 -174 q 139 -55 119 -83 q 192 -11 159 -27 q 335 22 258 22 l 335 1 q 255 -32 281 -9 q 228 -83 228 -55 q 251 -136 228 -114 q 334 -166 273 -158 l 315 -260 z "},"Ĩ":{"ha":522,"x_min":20,"x_max":501,"o":"m 20 0 l 20 97 l 186 97 l 186 924 l 20 924 l 20 1021 l 501 1021 l 501 924 l 345 924 l 345 97 l 501 97 l 501 0 l 20 0 m 142 1131 q 54 1168 80 1131 q 28 1296 28 1206 l 88 1296 q 101 1247 88 1261 q 148 1234 114 1234 q 258 1265 175 1234 q 380 1297 342 1297 q 468 1260 442 1297 q 494 1133 494 1223 l 434 1133 q 421 1181 434 1167 q 374 1195 408 1195 q 264 1163 347 1195 q 142 1131 180 1131 z "},"J":{"ha":787,"x_min":24,"x_max":779,"o":"m 306 -136 q 159 -107 223 -136 q 60 -27 96 -77 q 24 83 24 23 q 58 172 24 140 q 139 204 92 204 q 218 175 184 204 q 252 96 252 145 q 228 29 252 60 q 176 -18 204 -1 q 228 -48 189 -37 q 298 -60 266 -60 q 369 -47 339 -60 q 415 -12 398 -34 q 442 45 433 9 q 455 119 452 81 q 457 161 456 138 q 458 211 458 184 l 458 924 l 268 924 l 268 1021 l 779 1021 l 779 924 l 618 924 l 618 229 q 610 114 618 165 q 581 15 602 63 q 526 -65 560 -33 q 436 -117 492 -97 q 306 -136 379 -136 z "},"Ĵ":{"ha":787,"x_min":24,"x_max":779,"o":"m 306 -136 q 159 -107 223 -136 q 60 -27 96 -77 q 24 83 24 23 q 58 172 24 140 q 139 204 92 204 q 218 175 184 204 q 252 96 252 145 q 228 29 252 60 q 176 -18 204 -1 q 228 -48 189 -37 q 298 -60 266 -60 q 369 -47 339 -60 q 415 -12 398 -34 q 442 45 433 9 q 455 119 452 81 q 457 161 456 138 q 458 211 458 184 l 458 924 l 268 924 l 268 1021 l 779 1021 l 779 924 l 618 924 l 618 229 q 610 114 618 165 q 581 15 602 63 q 526 -65 560 -33 q 436 -117 492 -97 q 306 -136 379 -136 m 680 1111 q 524 1296 576 1249 q 486 1256 509 1282 q 439 1201 463 1230 q 397 1148 415 1172 l 370 1114 l 303 1176 l 524 1414 l 747 1172 l 680 1111 z "},"K":{"ha":1101,"x_min":22,"x_max":1093,"o":"m 22 0 l 22 97 l 187 97 l 187 924 l 22 924 l 22 1021 l 490 1021 l 490 924 l 347 924 l 347 498 q 366 511 351 500 q 395 536 380 523 q 415 554 410 549 q 453 593 425 564 q 520 664 481 623 q 602 752 559 706 q 682 840 644 798 l 758 924 l 603 924 l 603 1021 l 1084 1021 l 1084 924 l 929 924 l 585 559 l 974 97 l 1093 97 l 1093 0 l 614 0 l 614 97 l 765 97 l 464 472 l 347 375 l 347 97 l 490 97 l 490 0 l 22 0 z "},"Ķ":{"ha":1101,"x_min":22,"x_max":1093,"o":"m 22 0 l 22 97 l 187 97 l 187 924 l 22 924 l 22 1021 l 490 1021 l 490 924 l 347 924 l 347 498 q 366 511 351 500 q 395 536 380 523 q 415 554 410 549 q 453 593 425 564 q 520 664 481 623 q 602 752 559 706 q 682 840 644 798 l 758 924 l 603 924 l 603 1021 l 1084 1021 l 1084 924 l 929 924 l 585 559 l 974 97 l 1093 97 l 1093 0 l 614 0 l 614 97 l 765 97 l 464 472 l 347 375 l 347 97 l 490 97 l 490 0 l 22 0 m 534 -387 l 501 -382 q 503 -325 503 -356 q 504 -256 504 -293 q 504 -188 504 -218 q 503 -134 503 -158 l 501 -87 l 616 -87 q 609 -151 618 -109 q 585 -241 600 -193 q 556 -328 571 -289 l 534 -387 z "},"L":{"ha":875,"x_min":22,"x_max":857,"o":"m 22 0 l 22 97 l 187 97 l 187 924 l 22 924 l 22 1021 l 503 1021 l 503 924 l 347 924 l 347 97 l 730 97 l 730 424 l 857 424 l 857 0 l 22 0 z "},"Ǉ":{"ha":1662,"x_min":22,"x_max":1654,"o":"m 22 0 l 22 97 l 187 97 l 187 924 l 22 924 l 22 1021 l 503 1021 l 503 924 l 347 924 l 347 97 l 730 97 l 730 424 l 857 424 l 857 0 l 22 0 m 1181 -136 q 1034 -107 1098 -136 q 935 -27 970 -77 q 899 83 899 23 q 932 172 899 140 q 1014 204 966 204 q 1093 175 1059 204 q 1126 96 1126 145 q 1103 29 1126 60 q 1051 -18 1079 -1 q 1102 -48 1064 -37 q 1173 -60 1141 -60 q 1243 -47 1214 -60 q 1290 -12 1273 -34 q 1317 45 1308 9 q 1330 119 1326 81 q 1332 161 1331 138 q 1333 211 1333 184 l 1333 924 l 1143 924 l 1143 1021 l 1654 1021 l 1654 924 l 1493 924 l 1493 229 q 1485 114 1493 165 q 1456 15 1477 63 q 1401 -65 1435 -33 q 1311 -117 1367 -97 q 1181 -136 1254 -136 z "},"Ĺ":{"ha":875,"x_min":22,"x_max":857,"o":"m 22 0 l 22 97 l 187 97 l 187 924 l 22 924 l 22 1021 l 503 1021 l 503 924 l 347 924 l 347 97 l 730 97 l 730 424 l 857 424 l 857 0 l 22 0 m 193 1111 l 173 1137 q 259 1207 210 1168 q 358 1283 309 1246 q 442 1345 407 1320 l 495 1384 l 564 1290 q 493 1242 544 1270 q 382 1188 443 1215 q 270 1141 321 1161 l 193 1111 z "},"Ľ":{"ha":875,"x_min":22,"x_max":1016,"o":"m 22 0 l 22 97 l 187 97 l 187 924 l 22 924 l 22 1021 l 503 1021 l 503 924 l 347 924 l 347 97 l 730 97 l 730 424 l 857 424 l 857 0 l 22 0 m 886 691 l 852 744 q 912 794 884 764 q 939 851 939 825 q 934 870 939 863 q 877 854 907 854 q 814 882 842 854 q 787 944 787 909 q 817 1011 787 982 q 893 1041 848 1041 q 977 1004 938 1041 q 1016 899 1016 967 q 984 790 1016 847 q 886 691 952 734 z "},"Ļ":{"ha":875,"x_min":22,"x_max":857,"o":"m 22 0 l 22 97 l 187 97 l 187 924 l 22 924 l 22 1021 l 503 1021 l 503 924 l 347 924 l 347 97 l 730 97 l 730 424 l 857 424 l 857 0 l 22 0 m 426 -387 l 393 -382 q 395 -325 394 -356 q 395 -256 395 -293 q 395 -188 395 -218 q 394 -134 395 -158 l 393 -87 l 508 -87 q 500 -151 509 -109 q 477 -241 491 -193 q 448 -328 463 -289 l 426 -387 z "},"Ŀ":{"ha":875,"x_min":22,"x_max":857,"o":"m 22 0 l 22 97 l 187 97 l 187 924 l 22 924 l 22 1021 l 503 1021 l 503 924 l 347 924 l 347 97 l 730 97 l 730 424 l 857 424 l 857 0 l 22 0 m 623 513 q 552 543 581 513 q 522 614 522 573 q 552 685 522 656 q 623 715 581 715 q 693 685 663 715 q 724 614 724 655 q 693 543 724 573 q 623 513 663 513 z "},"ǈ":{"ha":1326,"x_min":22,"x_max":1231,"o":"m 22 0 l 22 97 l 187 97 l 187 924 l 22 924 l 22 1021 l 503 1021 l 503 924 l 347 924 l 347 97 l 730 97 l 730 424 l 857 424 l 857 0 l 22 0 m 983 -319 q 830 -280 883 -319 q 778 -172 778 -241 q 807 -102 778 -127 q 876 -77 837 -77 q 932 -97 909 -77 q 956 -157 956 -117 q 916 -237 956 -215 q 965 -245 939 -245 q 1052 -198 1027 -245 q 1076 -82 1076 -150 l 1076 648 l 911 648 l 911 728 l 1222 728 l 1222 -61 q 1158 -252 1222 -184 q 989 -319 1093 -319 l 983 -319 m 1130 856 q 1059 886 1088 856 q 1029 956 1029 916 q 1059 1028 1029 998 q 1130 1057 1088 1057 q 1201 1027 1171 1057 q 1231 956 1231 998 q 1201 886 1231 916 q 1130 856 1171 856 z "},"Ł":{"ha":875,"x_min":22,"x_max":857,"o":"m 22 0 l 22 93 l 187 93 l 187 478 l 41 406 l 41 507 l 187 578 l 187 924 l 22 924 l 22 1021 l 503 1021 l 503 924 l 347 924 l 347 657 l 491 728 l 491 627 l 347 557 l 347 93 l 730 93 l 730 424 l 857 424 l 857 0 l 22 0 z "},"M":{"ha":1314,"x_min":22,"x_max":1292,"o":"m 35 0 l 35 97 l 183 97 l 183 924 l 22 924 l 22 1021 l 433 1021 l 675 378 l 900 1021 l 1282 1021 l 1282 924 l 1124 924 l 1124 97 l 1292 97 l 1292 0 l 822 0 l 822 97 l 971 97 l 971 901 l 707 175 q 657 123 688 123 q 627 137 642 123 q 604 171 612 151 l 307 922 l 307 97 l 478 97 l 478 0 l 35 0 z "},"N":{"ha":1166,"x_min":22,"x_max":1156,"o":"m 22 0 l 22 97 l 186 97 l 186 924 l 22 924 l 22 1021 l 389 1021 l 871 180 l 871 924 l 705 924 l 705 1021 l 1156 1021 l 1156 924 l 1000 924 l 1000 0 l 819 0 l 315 876 l 315 97 l 471 97 l 471 0 l 22 0 z "},"Ǌ":{"ha":1954,"x_min":22,"x_max":1946,"o":"m 22 0 l 22 97 l 186 97 l 186 924 l 22 924 l 22 1021 l 389 1021 l 871 180 l 871 924 l 705 924 l 705 1021 l 1156 1021 l 1156 924 l 1000 924 l 1000 0 l 819 0 l 315 876 l 315 97 l 471 97 l 471 0 l 22 0 m 1472 -136 q 1326 -107 1390 -136 q 1226 -27 1262 -77 q 1190 83 1190 23 q 1224 172 1190 140 q 1305 204 1258 204 q 1384 175 1350 204 q 1418 96 1418 145 q 1394 29 1418 60 q 1343 -18 1371 -1 q 1394 -48 1356 -37 q 1465 -60 1432 -60 q 1535 -47 1506 -60 q 1581 -12 1565 -34 q 1609 45 1599 9 q 1622 119 1618 81 q 1624 161 1623 138 q 1625 211 1625 184 l 1625 924 l 1434 924 l 1434 1021 l 1946 1021 l 1946 924 l 1784 924 l 1784 229 q 1776 114 1784 165 q 1748 15 1769 63 q 1693 -65 1727 -33 q 1603 -117 1659 -97 q 1472 -136 1546 -136 z "},"Ń":{"ha":1166,"x_min":22,"x_max":1156,"o":"m 22 0 l 22 97 l 186 97 l 186 924 l 22 924 l 22 1021 l 389 1021 l 871 180 l 871 924 l 705 924 l 705 1021 l 1156 1021 l 1156 924 l 1000 924 l 1000 0 l 819 0 l 315 876 l 315 97 l 471 97 l 471 0 l 22 0 m 409 1111 l 389 1137 q 475 1207 426 1168 q 574 1283 525 1246 q 659 1345 623 1320 l 711 1384 l 780 1290 q 710 1242 760 1270 q 598 1188 659 1215 q 486 1141 538 1161 l 409 1111 z "},"Ň":{"ha":1166,"x_min":22,"x_max":1156,"o":"m 22 0 l 22 97 l 186 97 l 186 924 l 22 924 l 22 1021 l 389 1021 l 871 180 l 871 924 l 705 924 l 705 1021 l 1156 1021 l 1156 924 l 1000 924 l 1000 0 l 819 0 l 315 876 l 315 97 l 471 97 l 471 0 l 22 0 m 595 1110 l 372 1352 l 439 1413 q 595 1228 543 1275 q 634 1268 611 1242 q 681 1323 657 1294 q 722 1375 705 1352 l 749 1411 l 816 1348 l 595 1110 z "},"Ņ":{"ha":1166,"x_min":22,"x_max":1156,"o":"m 22 0 l 22 97 l 186 97 l 186 924 l 22 924 l 22 1021 l 389 1021 l 871 180 l 871 924 l 705 924 l 705 1021 l 1156 1021 l 1156 924 l 1000 924 l 1000 0 l 819 0 l 315 876 l 315 97 l 471 97 l 471 0 l 22 0 m 585 -387 l 552 -382 q 554 -325 553 -356 q 555 -256 555 -293 q 554 -188 555 -218 q 553 -134 554 -158 l 552 -87 l 667 -87 q 660 -151 669 -109 q 636 -241 650 -193 q 607 -328 622 -289 l 585 -387 z "},"ǋ":{"ha":1617,"x_min":22,"x_max":1522,"o":"m 22 0 l 22 97 l 186 97 l 186 924 l 22 924 l 22 1021 l 389 1021 l 871 180 l 871 924 l 705 924 l 705 1021 l 1156 1021 l 1156 924 l 1000 924 l 1000 0 l 819 0 l 315 876 l 315 97 l 471 97 l 471 0 l 22 0 m 1275 -319 q 1122 -280 1175 -319 q 1069 -172 1069 -241 q 1099 -102 1069 -127 q 1168 -77 1128 -77 q 1224 -97 1200 -77 q 1247 -157 1247 -117 q 1208 -237 1247 -215 q 1257 -245 1230 -245 q 1343 -198 1319 -245 q 1368 -82 1368 -150 l 1368 648 l 1202 648 l 1202 728 l 1514 728 l 1514 -61 q 1449 -252 1514 -184 q 1280 -319 1385 -319 l 1275 -319 m 1421 856 q 1351 886 1380 856 q 1321 956 1321 916 q 1351 1028 1321 998 q 1421 1057 1380 1057 q 1492 1027 1462 1057 q 1522 956 1522 998 q 1492 886 1522 916 q 1421 856 1462 856 z "},"Ñ":{"ha":1166,"x_min":22,"x_max":1156,"o":"m 22 0 l 22 97 l 186 97 l 186 924 l 22 924 l 22 1021 l 389 1021 l 871 180 l 871 924 l 705 924 l 705 1021 l 1156 1021 l 1156 924 l 1000 924 l 1000 0 l 819 0 l 315 876 l 315 97 l 471 97 l 471 0 l 22 0 m 465 1131 q 376 1168 402 1131 q 351 1296 351 1206 l 410 1296 q 423 1247 410 1261 q 470 1234 436 1234 q 581 1265 497 1234 q 702 1297 664 1297 q 790 1260 764 1297 q 816 1133 816 1223 l 756 1133 q 743 1181 756 1167 q 696 1195 730 1195 q 586 1163 669 1195 q 465 1131 503 1131 z "},"Ŋ":{"ha":1166,"x_min":22,"x_max":1156,"o":"m 22 0 l 22 97 l 186 97 l 186 924 l 22 924 l 22 1021 l 389 1021 l 871 180 l 871 924 l 705 924 l 705 1021 l 1156 1021 l 1156 924 l 1000 924 l 1000 0 l 1000 0 l 1000 -115 q 935 -306 1000 -239 q 766 -374 871 -374 l 761 -374 q 608 -335 661 -374 q 555 -227 555 -296 q 585 -156 555 -182 q 654 -131 614 -131 q 710 -151 686 -131 q 733 -205 733 -170 q 694 -292 733 -275 q 743 -300 716 -300 q 780 -293 763 -300 q 816 -271 798 -287 q 854 -136 854 -236 l 854 0 l 819 0 l 315 876 l 315 97 l 471 97 l 471 0 l 22 0 z "},"O":{"ha":1078,"x_min":57,"x_max":1021,"o":"m 539 -18 q 336 24 426 -18 q 184 139 247 66 q 90 308 122 212 q 57 511 57 404 q 89 713 57 617 q 183 882 121 808 q 335 999 245 956 q 539 1042 425 1042 q 743 999 654 1042 q 895 883 833 957 q 988 713 956 808 q 1021 511 1021 617 q 986 301 1021 398 q 888 133 951 205 q 735 21 824 61 q 539 -18 647 -18 m 539 77 q 674 114 616 77 q 771 215 732 152 q 828 355 809 278 q 847 510 847 432 q 828 665 847 587 q 770 806 809 742 q 674 908 732 869 q 539 947 616 947 q 404 909 462 947 q 308 808 347 871 q 250 668 269 745 q 231 513 231 591 q 250 357 231 435 q 308 216 269 280 q 404 115 346 153 q 539 77 462 77 z "},"Ó":{"ha":1078,"x_min":57,"x_max":1021,"o":"m 539 -18 q 336 24 426 -18 q 184 139 247 66 q 90 308 122 212 q 57 511 57 404 q 89 713 57 617 q 183 882 121 808 q 335 999 245 956 q 539 1042 425 1042 q 743 999 654 1042 q 895 883 833 957 q 988 713 956 808 q 1021 511 1021 617 q 986 301 1021 398 q 888 133 951 205 q 735 21 824 61 q 539 -18 647 -18 m 539 77 q 674 114 616 77 q 771 215 732 152 q 828 355 809 278 q 847 510 847 432 q 828 665 847 587 q 770 806 809 742 q 674 908 732 869 q 539 947 616 947 q 404 909 462 947 q 308 808 347 871 q 250 668 269 745 q 231 513 231 591 q 250 357 231 435 q 308 216 269 280 q 404 115 346 153 q 539 77 462 77 m 365 1111 l 345 1137 q 431 1207 382 1168 q 530 1283 481 1246 q 614 1345 579 1320 l 667 1384 l 736 1290 q 666 1242 716 1270 q 554 1188 615 1215 q 442 1141 494 1161 l 365 1111 z "},"Ŏ":{"ha":1078,"x_min":57,"x_max":1021,"o":"m 539 -18 q 336 24 426 -18 q 184 139 247 66 q 90 308 122 212 q 57 511 57 404 q 89 713 57 617 q 183 882 121 808 q 335 999 245 956 q 539 1042 425 1042 q 743 999 654 1042 q 895 883 833 957 q 988 713 956 808 q 1021 511 1021 617 q 986 301 1021 398 q 888 133 951 205 q 735 21 824 61 q 539 -18 647 -18 m 539 77 q 674 114 616 77 q 771 215 732 152 q 828 355 809 278 q 847 510 847 432 q 828 665 847 587 q 770 806 809 742 q 674 908 732 869 q 539 947 616 947 q 404 909 462 947 q 308 808 347 871 q 250 668 269 745 q 231 513 231 591 q 250 357 231 435 q 308 216 269 280 q 404 115 346 153 q 539 77 462 77 m 540 1111 q 469 1127 500 1111 q 417 1168 437 1143 q 376 1278 379 1219 l 463 1278 q 486 1215 464 1239 q 538 1192 509 1192 q 590 1215 567 1192 q 614 1275 612 1238 l 702 1275 q 662 1169 699 1220 q 611 1127 643 1144 q 540 1111 579 1111 z "},"Ô":{"ha":1078,"x_min":57,"x_max":1021,"o":"m 539 -18 q 336 24 426 -18 q 184 139 247 66 q 90 308 122 212 q 57 511 57 404 q 89 713 57 617 q 183 882 121 808 q 335 999 245 956 q 539 1042 425 1042 q 743 999 654 1042 q 895 883 833 957 q 988 713 956 808 q 1021 511 1021 617 q 986 301 1021 398 q 888 133 951 205 q 735 21 824 61 q 539 -18 647 -18 m 539 77 q 674 114 616 77 q 771 215 732 152 q 828 355 809 278 q 847 510 847 432 q 828 665 847 587 q 770 806 809 742 q 674 908 732 869 q 539 947 616 947 q 404 909 462 947 q 308 808 347 871 q 250 668 269 745 q 231 513 231 591 q 250 357 231 435 q 308 216 269 280 q 404 115 346 153 q 539 77 462 77 m 694 1111 q 538 1296 590 1249 q 500 1256 523 1282 q 453 1201 477 1230 q 411 1148 429 1172 l 385 1114 l 317 1176 l 538 1414 l 761 1172 l 694 1111 z "},"Ȍ":{"ha":1078,"x_min":57,"x_max":1021,"o":"m 539 -18 q 336 24 426 -18 q 184 139 247 66 q 90 308 122 212 q 57 511 57 404 q 89 713 57 617 q 183 882 121 808 q 335 999 245 956 q 539 1042 425 1042 q 743 999 654 1042 q 895 883 833 957 q 988 713 956 808 q 1021 511 1021 617 q 986 301 1021 398 q 888 133 951 205 q 735 21 824 61 q 539 -18 647 -18 m 539 77 q 674 114 616 77 q 771 215 732 152 q 828 355 809 278 q 847 510 847 432 q 828 665 847 587 q 770 806 809 742 q 674 908 732 869 q 539 947 616 947 q 404 909 462 947 q 308 808 347 871 q 250 668 269 745 q 231 513 231 591 q 250 357 231 435 q 308 216 269 280 q 404 115 346 153 q 539 77 462 77 m 758 1111 q 723 1128 743 1118 q 680 1152 703 1139 q 617 1185 656 1164 q 538 1232 579 1206 q 463 1280 497 1257 q 414 1318 429 1303 l 483 1412 q 642 1259 568 1328 q 777 1137 715 1190 l 758 1111 m 494 1111 q 459 1128 479 1118 q 416 1152 439 1139 q 354 1185 392 1164 q 274 1232 315 1206 q 199 1280 233 1257 q 151 1318 165 1303 l 218 1412 q 513 1137 391 1243 l 494 1111 z "},"Ö":{"ha":1078,"x_min":57,"x_max":1021,"o":"m 539 -18 q 336 24 426 -18 q 184 139 247 66 q 90 308 122 212 q 57 511 57 404 q 89 713 57 617 q 183 882 121 808 q 335 999 245 956 q 539 1042 425 1042 q 743 999 654 1042 q 895 883 833 957 q 988 713 956 808 q 1021 511 1021 617 q 986 301 1021 398 q 888 133 951 205 q 735 21 824 61 q 539 -18 647 -18 m 539 77 q 674 114 616 77 q 771 215 732 152 q 828 355 809 278 q 847 510 847 432 q 828 665 847 587 q 770 806 809 742 q 674 908 732 869 q 539 947 616 947 q 404 909 462 947 q 308 808 347 871 q 250 668 269 745 q 231 513 231 591 q 250 357 231 435 q 308 216 269 280 q 404 115 346 153 q 539 77 462 77 m 700 1111 q 634 1138 661 1111 q 607 1204 607 1166 q 634 1270 607 1242 q 700 1298 661 1298 q 766 1270 738 1298 q 795 1204 795 1242 q 766 1139 795 1166 q 700 1111 738 1111 m 378 1111 q 313 1138 340 1111 q 286 1204 286 1166 q 313 1270 286 1242 q 378 1298 340 1298 q 444 1270 416 1298 q 471 1204 471 1242 q 444 1139 471 1166 q 378 1111 416 1111 z "},"Ò":{"ha":1078,"x_min":57,"x_max":1021,"o":"m 539 -18 q 336 24 426 -18 q 184 139 247 66 q 90 308 122 212 q 57 511 57 404 q 89 713 57 617 q 183 882 121 808 q 335 999 245 956 q 539 1042 425 1042 q 743 999 654 1042 q 895 883 833 957 q 988 713 956 808 q 1021 511 1021 617 q 986 301 1021 398 q 888 133 951 205 q 735 21 824 61 q 539 -18 647 -18 m 539 77 q 674 114 616 77 q 771 215 732 152 q 828 355 809 278 q 847 510 847 432 q 828 665 847 587 q 770 806 809 742 q 674 908 732 869 q 539 947 616 947 q 404 909 462 947 q 308 808 347 871 q 250 668 269 745 q 231 513 231 591 q 250 357 231 435 q 308 216 269 280 q 404 115 346 153 q 539 77 462 77 m 716 1111 q 702 1117 710 1114 q 683 1124 694 1120 q 638 1141 669 1129 q 571 1169 608 1154 q 504 1198 535 1184 q 411 1244 458 1218 q 345 1290 364 1270 l 414 1384 q 593 1252 513 1314 q 736 1137 674 1190 l 716 1111 z "},"Ő":{"ha":1078,"x_min":57,"x_max":1021,"o":"m 539 -18 q 336 24 426 -18 q 184 139 247 66 q 90 308 122 212 q 57 511 57 404 q 89 713 57 617 q 183 882 121 808 q 335 999 245 956 q 539 1042 425 1042 q 743 999 654 1042 q 895 883 833 957 q 988 713 956 808 q 1021 511 1021 617 q 986 301 1021 398 q 888 133 951 205 q 735 21 824 61 q 539 -18 647 -18 m 539 77 q 674 114 616 77 q 771 215 732 152 q 828 355 809 278 q 847 510 847 432 q 828 665 847 587 q 770 806 809 742 q 674 908 732 869 q 539 947 616 947 q 404 909 462 947 q 308 808 347 871 q 250 668 269 745 q 231 513 231 591 q 250 357 231 435 q 308 216 269 280 q 404 115 346 153 q 539 77 462 77 m 564 1103 l 544 1129 q 627 1203 581 1160 q 717 1287 673 1245 q 792 1359 761 1329 l 839 1404 l 907 1310 q 840 1258 887 1289 q 738 1196 793 1227 q 635 1139 682 1164 l 564 1103 m 300 1103 l 280 1129 q 363 1203 317 1160 q 453 1287 409 1245 q 528 1359 498 1329 l 574 1404 l 643 1310 q 576 1258 623 1289 q 473 1196 529 1227 q 370 1139 418 1164 l 300 1103 z "},"Ȏ":{"ha":1078,"x_min":57,"x_max":1021,"o":"m 539 -18 q 336 24 426 -18 q 184 139 247 66 q 90 308 122 212 q 57 511 57 404 q 89 713 57 617 q 183 882 121 808 q 335 999 245 956 q 539 1042 425 1042 q 743 999 654 1042 q 895 883 833 957 q 988 713 956 808 q 1021 511 1021 617 q 986 301 1021 398 q 888 133 951 205 q 735 21 824 61 q 539 -18 647 -18 m 539 77 q 674 114 616 77 q 771 215 732 152 q 828 355 809 278 q 847 510 847 432 q 828 665 847 587 q 770 806 809 742 q 674 908 732 869 q 539 947 616 947 q 404 909 462 947 q 308 808 347 871 q 250 668 269 745 q 231 513 231 591 q 250 357 231 435 q 308 216 269 280 q 404 115 346 153 q 539 77 462 77 m 614 1111 q 591 1173 614 1149 q 539 1197 569 1197 q 488 1174 511 1197 q 463 1114 465 1151 l 376 1114 q 416 1220 379 1169 q 467 1262 435 1246 q 538 1278 498 1278 q 610 1262 577 1278 q 661 1220 642 1246 q 691 1166 681 1194 q 702 1111 701 1138 l 614 1111 z "},"Ō":{"ha":1078,"x_min":57,"x_max":1021,"o":"m 539 -18 q 336 24 426 -18 q 184 139 247 66 q 90 308 122 212 q 57 511 57 404 q 89 713 57 617 q 183 882 121 808 q 335 999 245 956 q 539 1042 425 1042 q 743 999 654 1042 q 895 883 833 957 q 988 713 956 808 q 1021 511 1021 617 q 986 301 1021 398 q 888 133 951 205 q 735 21 824 61 q 539 -18 647 -18 m 539 77 q 674 114 616 77 q 771 215 732 152 q 828 355 809 278 q 847 510 847 432 q 828 665 847 587 q 770 806 809 742 q 674 908 732 869 q 539 947 616 947 q 404 909 462 947 q 308 808 347 871 q 250 668 269 745 q 231 513 231 591 q 250 357 231 435 q 308 216 269 280 q 404 115 346 153 q 539 77 462 77 m 342 1141 l 342 1235 l 736 1235 l 736 1141 l 342 1141 z "},"Ø":{"ha":1078,"x_min":57,"x_max":1021,"o":"m 113 -61 l 68 -25 l 196 126 q 93 302 128 201 q 57 511 57 403 q 76 667 57 591 q 134 810 94 743 q 229 930 173 879 q 365 1012 285 981 q 539 1042 446 1042 q 864 915 735 1042 l 971 1042 l 1015 1006 l 903 872 q 991 705 961 799 q 1021 511 1021 611 q 1002 356 1021 432 q 944 212 983 281 q 849 93 905 144 q 713 12 793 42 q 539 -18 633 -18 q 237 86 360 -18 l 113 -61 m 293 241 l 771 806 q 539 949 684 949 q 407 911 467 949 q 309 812 347 874 q 251 673 271 751 q 231 513 231 595 q 293 241 231 358 m 539 77 q 672 114 612 77 q 769 212 732 151 q 847 510 847 338 q 800 751 847 641 l 325 190 q 539 77 410 77 z "},"Õ":{"ha":1078,"x_min":57,"x_max":1021,"o":"m 539 -18 q 336 24 426 -18 q 184 139 247 66 q 90 308 122 212 q 57 511 57 404 q 89 713 57 617 q 183 882 121 808 q 335 999 245 956 q 539 1042 425 1042 q 743 999 654 1042 q 895 883 833 957 q 988 713 956 808 q 1021 511 1021 617 q 986 301 1021 398 q 888 133 951 205 q 735 21 824 61 q 539 -18 647 -18 m 539 77 q 674 114 616 77 q 771 215 732 152 q 828 355 809 278 q 847 510 847 432 q 828 665 847 587 q 770 806 809 742 q 674 908 732 869 q 539 947 616 947 q 404 909 462 947 q 308 808 347 871 q 250 668 269 745 q 231 513 231 591 q 250 357 231 435 q 308 216 269 280 q 404 115 346 153 q 539 77 462 77 m 420 1131 q 332 1168 358 1131 q 307 1296 307 1206 l 366 1296 q 379 1247 366 1261 q 426 1234 392 1234 q 536 1265 453 1234 q 658 1297 620 1297 q 746 1260 720 1297 q 772 1133 772 1223 l 712 1133 q 699 1181 712 1167 q 652 1195 686 1195 q 542 1163 625 1195 q 420 1131 458 1131 z "},"Œ":{"ha":1490,"x_min":57,"x_max":1415,"o":"m 521 0 q 343 34 427 0 q 196 130 260 68 q 95 289 132 193 q 57 503 57 385 q 97 721 57 623 q 202 879 136 818 q 524 1003 338 1003 l 1415 1003 l 1415 610 l 1293 610 l 1293 905 l 860 905 l 860 551 l 1072 551 l 1072 704 l 1162 704 l 1162 288 l 1072 288 l 1072 473 l 860 473 l 860 93 l 1293 93 l 1293 387 l 1415 387 l 1415 0 l 521 0 m 525 93 l 707 93 l 707 905 l 546 905 q 325 808 412 905 q 256 682 281 760 q 231 504 231 604 q 269 286 231 378 q 374 143 308 193 q 525 93 441 93 z "},"P":{"ha":904,"x_min":22,"x_max":892,"o":"m 22 0 l 22 97 l 187 97 l 187 924 l 22 924 l 22 1021 l 441 1021 q 608 1010 527 1021 q 752 972 688 1000 q 854 889 817 943 q 892 745 892 834 q 851 591 892 648 q 742 505 811 534 q 585 468 673 477 q 401 458 497 458 l 347 458 l 347 97 l 517 97 l 517 0 l 22 0 m 347 546 l 441 546 q 728 739 728 546 q 701 846 728 808 q 629 900 675 884 q 524 920 583 917 q 401 924 465 924 l 347 924 l 347 546 z "},"Þ":{"ha":937,"x_min":47,"x_max":917,"o":"m 47 0 l 47 93 l 212 93 l 212 905 l 47 905 l 47 1003 l 528 1003 l 528 905 l 372 905 l 372 793 l 464 793 q 622 785 543 793 q 769 750 702 777 q 876 671 836 724 q 917 526 917 617 q 885 390 917 443 q 798 309 853 337 q 673 269 743 280 q 528 256 604 258 q 484 256 509 256 q 427 256 458 256 l 372 256 l 372 93 l 542 93 l 542 0 l 47 0 m 372 343 l 467 343 q 607 355 541 343 q 712 405 672 367 q 753 519 753 443 q 714 640 753 602 q 611 686 676 677 q 466 696 546 696 l 372 696 l 372 343 z "},"Q":{"ha":1097,"x_min":57,"x_max":1133,"o":"m 921 -150 q 808 -108 857 -150 q 711 9 760 -66 q 539 -18 632 -18 q 336 24 426 -18 q 184 139 247 66 q 90 308 122 212 q 57 511 57 404 q 92 722 57 625 q 190 890 126 819 q 343 1002 254 962 q 539 1042 431 1042 q 743 999 654 1042 q 895 883 833 957 q 988 713 956 808 q 1021 511 1021 617 q 974 270 1021 385 q 839 82 927 155 q 900 6 873 32 q 956 -20 926 -20 q 1025 32 998 -20 q 1051 155 1051 83 l 1051 171 l 1133 171 l 1133 155 q 1118 -4 1133 65 q 1057 -111 1103 -73 q 921 -150 1012 -150 m 760 196 q 825 338 802 254 q 847 510 847 422 q 828 665 847 587 q 770 806 809 742 q 674 908 732 869 q 539 947 616 947 q 404 909 462 947 q 308 808 347 871 q 250 668 269 745 q 231 513 231 591 q 250 351 231 431 q 306 214 270 272 q 386 304 335 269 q 519 340 437 340 q 651 301 594 340 q 760 196 708 262 m 539 77 q 654 103 603 77 q 571 215 611 176 q 484 254 532 254 q 357 151 414 254 q 539 77 431 77 z "},"R":{"ha":1074,"x_min":22,"x_max":1072,"o":"m 869 -22 q 793 -7 827 -22 q 738 33 760 7 q 697 100 715 58 q 669 188 680 142 q 657 238 663 211 q 646 298 651 266 q 606 401 637 351 q 528 463 576 450 q 507 465 517 465 l 347 465 l 347 97 l 501 97 l 501 0 l 22 0 l 22 97 l 187 97 l 187 924 l 22 924 l 22 1021 l 431 1021 q 607 1011 523 1021 q 756 975 690 1002 q 859 894 821 947 q 897 751 897 840 q 865 622 897 672 q 777 544 833 572 q 644 500 720 515 q 755 440 721 484 q 783 391 772 417 q 804 326 793 366 q 818 271 810 304 q 829 216 825 238 q 841 170 833 195 q 858 131 849 145 q 880 107 866 117 q 911 97 893 97 q 981 225 981 97 l 981 319 l 1072 319 l 1072 220 q 869 -22 1072 -22 m 347 567 l 432 567 q 547 573 490 567 q 651 596 604 578 q 726 648 698 614 q 754 739 754 682 q 727 842 754 804 q 652 897 699 879 q 547 919 606 914 q 427 924 488 924 l 347 924 l 347 567 z "},"Ŕ":{"ha":1074,"x_min":22,"x_max":1072,"o":"m 869 -22 q 793 -7 827 -22 q 738 33 760 7 q 697 100 715 58 q 669 188 680 142 q 657 238 663 211 q 646 298 651 266 q 606 401 637 351 q 528 463 576 450 q 507 465 517 465 l 347 465 l 347 97 l 501 97 l 501 0 l 22 0 l 22 97 l 187 97 l 187 924 l 22 924 l 22 1021 l 431 1021 q 607 1011 523 1021 q 756 975 690 1002 q 859 894 821 947 q 897 751 897 840 q 865 622 897 672 q 777 544 833 572 q 644 500 720 515 q 755 440 721 484 q 783 391 772 417 q 804 326 793 366 q 818 271 810 304 q 829 216 825 238 q 841 170 833 195 q 858 131 849 145 q 880 107 866 117 q 911 97 893 97 q 981 225 981 97 l 981 319 l 1072 319 l 1072 220 q 869 -22 1072 -22 m 347 567 l 432 567 q 547 573 490 567 q 651 596 604 578 q 726 648 698 614 q 754 739 754 682 q 727 842 754 804 q 652 897 699 879 q 547 919 606 914 q 427 924 488 924 l 347 924 l 347 567 m 309 1111 l 289 1137 q 375 1207 326 1168 q 474 1283 425 1246 q 558 1345 523 1320 l 611 1384 l 680 1290 q 609 1242 660 1270 q 498 1188 559 1215 q 386 1141 437 1161 l 309 1111 z "},"Ř":{"ha":1074,"x_min":22,"x_max":1072,"o":"m 869 -22 q 793 -7 827 -22 q 738 33 760 7 q 697 100 715 58 q 669 188 680 142 q 657 238 663 211 q 646 298 651 266 q 606 401 637 351 q 528 463 576 450 q 507 465 517 465 l 347 465 l 347 97 l 501 97 l 501 0 l 22 0 l 22 97 l 187 97 l 187 924 l 22 924 l 22 1021 l 431 1021 q 607 1011 523 1021 q 756 975 690 1002 q 859 894 821 947 q 897 751 897 840 q 865 622 897 672 q 777 544 833 572 q 644 500 720 515 q 755 440 721 484 q 783 391 772 417 q 804 326 793 366 q 818 271 810 304 q 829 216 825 238 q 841 170 833 195 q 858 131 849 145 q 880 107 866 117 q 911 97 893 97 q 981 225 981 97 l 981 319 l 1072 319 l 1072 220 q 869 -22 1072 -22 m 347 567 l 432 567 q 547 573 490 567 q 651 596 604 578 q 726 648 698 614 q 754 739 754 682 q 727 842 754 804 q 652 897 699 879 q 547 919 606 914 q 427 924 488 924 l 347 924 l 347 567 m 494 1110 l 272 1352 l 339 1413 q 494 1228 443 1275 q 534 1268 511 1242 q 581 1323 557 1294 q 622 1375 604 1352 l 648 1411 l 715 1348 l 494 1110 z "},"Ŗ":{"ha":1074,"x_min":22,"x_max":1072,"o":"m 869 -22 q 793 -7 827 -22 q 738 33 760 7 q 697 100 715 58 q 669 188 680 142 q 657 238 663 211 q 646 298 651 266 q 606 401 637 351 q 528 463 576 450 q 507 465 517 465 l 347 465 l 347 97 l 501 97 l 501 0 l 22 0 l 22 97 l 187 97 l 187 924 l 22 924 l 22 1021 l 431 1021 q 607 1011 523 1021 q 756 975 690 1002 q 859 894 821 947 q 897 751 897 840 q 865 622 897 672 q 777 544 833 572 q 644 500 720 515 q 755 440 721 484 q 783 391 772 417 q 804 326 793 366 q 818 271 810 304 q 829 216 825 238 q 841 170 833 195 q 858 131 849 145 q 880 107 866 117 q 911 97 893 97 q 981 225 981 97 l 981 319 l 1072 319 l 1072 220 q 869 -22 1072 -22 m 347 567 l 432 567 q 547 573 490 567 q 651 596 604 578 q 726 648 698 614 q 754 739 754 682 q 727 842 754 804 q 652 897 699 879 q 547 919 606 914 q 427 924 488 924 l 347 924 l 347 567 m 526 -387 l 492 -382 q 494 -325 494 -356 q 495 -256 495 -293 q 495 -188 495 -218 q 494 -134 494 -158 l 492 -87 l 608 -87 q 600 -151 609 -109 q 576 -241 591 -193 q 547 -328 562 -289 l 526 -387 z "},"Ȑ":{"ha":1074,"x_min":22,"x_max":1072,"o":"m 869 -22 q 793 -7 827 -22 q 738 33 760 7 q 697 100 715 58 q 669 188 680 142 q 657 238 663 211 q 646 298 651 266 q 606 401 637 351 q 528 463 576 450 q 507 465 517 465 l 347 465 l 347 97 l 501 97 l 501 0 l 22 0 l 22 97 l 187 97 l 187 924 l 22 924 l 22 1021 l 431 1021 q 607 1011 523 1021 q 756 975 690 1002 q 859 894 821 947 q 897 751 897 840 q 865 622 897 672 q 777 544 833 572 q 644 500 720 515 q 755 440 721 484 q 783 391 772 417 q 804 326 793 366 q 818 271 810 304 q 829 216 825 238 q 841 170 833 195 q 858 131 849 145 q 880 107 866 117 q 911 97 893 97 q 981 225 981 97 l 981 319 l 1072 319 l 1072 220 q 869 -22 1072 -22 m 347 567 l 432 567 q 547 573 490 567 q 651 596 604 578 q 726 648 698 614 q 754 739 754 682 q 727 842 754 804 q 652 897 699 879 q 547 919 606 914 q 427 924 488 924 l 347 924 l 347 567 m 701 1111 q 667 1128 686 1118 q 623 1152 647 1139 q 561 1185 600 1164 q 482 1232 523 1206 q 407 1280 441 1257 q 358 1318 373 1303 l 427 1412 q 586 1259 512 1328 q 721 1137 659 1190 l 701 1111 m 437 1111 q 403 1128 422 1118 q 359 1152 383 1139 q 297 1185 336 1164 q 218 1232 259 1206 q 143 1280 177 1257 q 94 1318 109 1303 l 162 1412 q 457 1137 334 1243 l 437 1111 z "},"Ȓ":{"ha":1074,"x_min":22,"x_max":1072,"o":"m 869 -22 q 793 -7 827 -22 q 738 33 760 7 q 697 100 715 58 q 669 188 680 142 q 657 238 663 211 q 646 298 651 266 q 606 401 637 351 q 528 463 576 450 q 507 465 517 465 l 347 465 l 347 97 l 501 97 l 501 0 l 22 0 l 22 97 l 187 97 l 187 924 l 22 924 l 22 1021 l 431 1021 q 607 1011 523 1021 q 756 975 690 1002 q 859 894 821 947 q 897 751 897 840 q 865 622 897 672 q 777 544 833 572 q 644 500 720 515 q 755 440 721 484 q 783 391 772 417 q 804 326 793 366 q 818 271 810 304 q 829 216 825 238 q 841 170 833 195 q 858 131 849 145 q 880 107 866 117 q 911 97 893 97 q 981 225 981 97 l 981 319 l 1072 319 l 1072 220 q 869 -22 1072 -22 m 347 567 l 432 567 q 547 573 490 567 q 651 596 604 578 q 726 648 698 614 q 754 739 754 682 q 727 842 754 804 q 652 897 699 879 q 547 919 606 914 q 427 924 488 924 l 347 924 l 347 567 m 558 1111 q 535 1173 557 1149 q 483 1197 513 1197 q 432 1174 454 1197 q 407 1114 409 1151 l 319 1114 q 360 1220 323 1169 q 410 1262 378 1246 q 481 1278 442 1278 q 553 1262 521 1278 q 605 1220 586 1246 q 634 1166 625 1194 q 646 1111 644 1138 l 558 1111 z "},"S":{"ha":907,"x_min":40,"x_max":867,"o":"m 458 -18 q 172 41 296 -18 q 76 118 112 70 q 40 228 40 167 q 77 320 40 284 q 163 357 114 357 q 239 322 208 357 q 271 244 271 288 q 245 175 271 199 q 175 146 219 151 q 282 95 222 113 q 436 77 342 77 q 561 94 502 77 q 656 148 619 111 q 693 245 693 185 q 670 328 693 296 q 607 378 646 359 q 519 412 567 398 q 473 426 498 418 q 416 440 448 433 q 278 482 344 458 q 162 540 213 505 q 82 627 111 575 q 53 754 53 679 q 102 902 53 838 q 240 1004 152 967 q 443 1042 328 1042 q 565 1029 499 1042 q 691 990 631 1017 q 788 921 750 964 q 825 818 825 879 q 795 720 825 758 q 710 682 765 682 q 630 708 665 682 q 596 778 596 734 q 624 858 596 832 q 689 884 652 884 q 460 947 609 947 q 345 929 401 947 q 252 874 289 911 q 215 782 215 838 q 251 688 215 723 q 341 633 286 652 q 453 602 395 614 q 626 553 553 579 q 745 496 699 526 q 839 398 812 454 q 867 269 867 342 q 761 58 867 135 q 458 -18 655 -18 z "},"Ś":{"ha":907,"x_min":40,"x_max":867,"o":"m 458 -18 q 172 41 296 -18 q 76 118 112 70 q 40 228 40 167 q 77 320 40 284 q 163 357 114 357 q 239 322 208 357 q 271 244 271 288 q 245 175 271 199 q 175 146 219 151 q 282 95 222 113 q 436 77 342 77 q 561 94 502 77 q 656 148 619 111 q 693 245 693 185 q 670 328 693 296 q 607 378 646 359 q 519 412 567 398 q 473 426 498 418 q 416 440 448 433 q 278 482 344 458 q 162 540 213 505 q 82 627 111 575 q 53 754 53 679 q 102 902 53 838 q 240 1004 152 967 q 443 1042 328 1042 q 565 1029 499 1042 q 691 990 631 1017 q 788 921 750 964 q 825 818 825 879 q 795 720 825 758 q 710 682 765 682 q 630 708 665 682 q 596 778 596 734 q 624 858 596 832 q 689 884 652 884 q 460 947 609 947 q 345 929 401 947 q 252 874 289 911 q 215 782 215 838 q 251 688 215 723 q 341 633 286 652 q 453 602 395 614 q 626 553 553 579 q 745 496 699 526 q 839 398 812 454 q 867 269 867 342 q 761 58 867 135 q 458 -18 655 -18 m 273 1111 l 253 1137 q 339 1207 290 1168 q 438 1283 389 1246 q 522 1345 487 1320 l 575 1384 l 644 1290 q 573 1242 624 1270 q 462 1188 523 1215 q 350 1141 401 1161 l 273 1111 z "},"Š":{"ha":907,"x_min":40,"x_max":867,"o":"m 458 -18 q 172 41 296 -18 q 76 118 112 70 q 40 228 40 167 q 77 320 40 284 q 163 357 114 357 q 239 322 208 357 q 271 244 271 288 q 245 175 271 199 q 175 146 219 151 q 282 95 222 113 q 436 77 342 77 q 561 94 502 77 q 656 148 619 111 q 693 245 693 185 q 670 328 693 296 q 607 378 646 359 q 519 412 567 398 q 473 426 498 418 q 416 440 448 433 q 278 482 344 458 q 162 540 213 505 q 82 627 111 575 q 53 754 53 679 q 102 902 53 838 q 240 1004 152 967 q 443 1042 328 1042 q 565 1029 499 1042 q 691 990 631 1017 q 788 921 750 964 q 825 818 825 879 q 795 720 825 758 q 710 682 765 682 q 630 708 665 682 q 596 778 596 734 q 624 858 596 832 q 689 884 652 884 q 460 947 609 947 q 345 929 401 947 q 252 874 289 911 q 215 782 215 838 q 251 688 215 723 q 341 633 286 652 q 453 602 395 614 q 626 553 553 579 q 745 496 699 526 q 839 398 812 454 q 867 269 867 342 q 761 58 867 135 q 458 -18 655 -18 m 458 1110 l 236 1352 l 303 1413 q 458 1228 407 1275 q 498 1268 475 1242 q 545 1323 521 1294 q 586 1375 568 1352 l 612 1411 l 680 1348 l 458 1110 z "},"Ş":{"ha":907,"x_min":40,"x_max":867,"o":"m 458 -18 q 172 41 296 -18 q 76 118 112 70 q 40 228 40 167 q 77 320 40 284 q 163 357 114 357 q 239 322 208 357 q 271 244 271 288 q 245 175 271 199 q 175 146 219 151 q 282 95 222 113 q 436 77 342 77 q 561 94 502 77 q 656 148 619 111 q 693 245 693 185 q 670 328 693 296 q 607 378 646 359 q 519 412 567 398 q 473 426 498 418 q 416 440 448 433 q 278 482 344 458 q 162 540 213 505 q 82 627 111 575 q 53 754 53 679 q 102 902 53 838 q 240 1004 152 967 q 443 1042 328 1042 q 565 1029 499 1042 q 691 990 631 1017 q 788 921 750 964 q 825 818 825 879 q 795 720 825 758 q 710 682 765 682 q 630 708 665 682 q 596 778 596 734 q 624 858 596 832 q 689 884 652 884 q 460 947 609 947 q 345 929 401 947 q 252 874 289 911 q 215 782 215 838 q 251 688 215 723 q 341 633 286 652 q 453 602 395 614 q 626 553 553 579 q 745 496 699 526 q 839 398 812 454 q 867 269 867 342 q 761 58 867 135 q 458 -18 655 -18 m 351 -301 l 332 -253 q 401 -234 373 -245 q 431 -208 431 -222 q 399 -162 431 -194 q 366 -114 366 -130 q 386 -61 366 -87 q 437 -18 405 -35 q 508 0 469 0 l 534 0 l 534 -187 q 515 -232 534 -212 q 470 -265 496 -253 q 416 -286 443 -277 q 370 -298 389 -294 l 351 -301 z "},"Ș":{"ha":907,"x_min":40,"x_max":867,"o":"m 458 -18 q 172 41 296 -18 q 76 118 112 70 q 40 228 40 167 q 77 320 40 284 q 163 357 114 357 q 239 322 208 357 q 271 244 271 288 q 245 175 271 199 q 175 146 219 151 q 282 95 222 113 q 436 77 342 77 q 561 94 502 77 q 656 148 619 111 q 693 245 693 185 q 670 328 693 296 q 607 378 646 359 q 519 412 567 398 q 473 426 498 418 q 416 440 448 433 q 278 482 344 458 q 162 540 213 505 q 82 627 111 575 q 53 754 53 679 q 102 902 53 838 q 240 1004 152 967 q 443 1042 328 1042 q 565 1029 499 1042 q 691 990 631 1017 q 788 921 750 964 q 825 818 825 879 q 795 720 825 758 q 710 682 765 682 q 630 708 665 682 q 596 778 596 734 q 624 858 596 832 q 689 884 652 884 q 460 947 609 947 q 345 929 401 947 q 252 874 289 911 q 215 782 215 838 q 251 688 215 723 q 341 633 286 652 q 453 602 395 614 q 626 553 553 579 q 745 496 699 526 q 839 398 812 454 q 867 269 867 342 q 761 58 867 135 q 458 -18 655 -18 m 435 -387 l 402 -382 q 404 -325 404 -356 q 405 -256 405 -293 q 405 -188 405 -218 q 404 -134 404 -158 l 402 -87 l 517 -87 q 510 -151 519 -109 q 486 -241 500 -193 q 457 -328 472 -289 l 435 -387 z "},"T":{"ha":973,"x_min":24,"x_max":950,"o":"m 252 0 l 252 97 l 410 97 l 410 924 l 150 924 l 150 608 l 24 608 l 24 1021 l 950 1021 l 950 608 l 823 608 l 823 924 l 570 924 l 570 97 l 732 97 l 732 0 l 252 0 z "},"Ť":{"ha":973,"x_min":24,"x_max":950,"o":"m 252 0 l 252 97 l 410 97 l 410 924 l 150 924 l 150 608 l 24 608 l 24 1021 l 950 1021 l 950 608 l 823 608 l 823 924 l 570 924 l 570 97 l 732 97 l 732 0 l 252 0 m 492 1110 l 269 1352 l 336 1413 q 492 1228 440 1275 q 531 1268 508 1242 q 578 1323 554 1294 q 619 1375 602 1352 l 646 1411 l 713 1348 l 492 1110 z "},"Ţ":{"ha":973,"x_min":24,"x_max":950,"o":"m 252 0 l 252 97 l 410 97 l 410 924 l 150 924 l 150 608 l 24 608 l 24 1021 l 950 1021 l 950 608 l 823 608 l 823 924 l 570 924 l 570 97 l 732 97 l 732 0 l 252 0 m 378 -301 l 358 -253 q 427 -234 399 -245 q 457 -208 457 -222 q 425 -162 457 -194 q 393 -114 393 -130 q 412 -61 393 -87 q 464 -18 431 -35 q 534 0 496 0 l 561 0 l 561 -187 q 542 -232 561 -212 q 496 -265 523 -253 q 443 -286 469 -277 q 397 -298 416 -294 l 378 -301 z "},"Ț":{"ha":973,"x_min":24,"x_max":950,"o":"m 252 0 l 252 97 l 410 97 l 410 924 l 150 924 l 150 608 l 24 608 l 24 1021 l 950 1021 l 950 608 l 823 608 l 823 924 l 570 924 l 570 97 l 732 97 l 732 0 l 252 0 m 462 -387 l 429 -382 q 431 -325 430 -356 q 431 -256 431 -293 q 431 -188 431 -218 q 430 -134 431 -158 l 429 -87 l 544 -87 q 536 -151 545 -109 q 513 -241 527 -193 q 484 -328 498 -289 l 462 -387 z "},"U":{"ha":1087,"x_min":14,"x_max":1074,"o":"m 542 -18 q 366 9 441 -18 q 247 87 291 37 q 160 350 160 186 l 160 924 l 14 924 l 14 1021 l 469 1021 l 469 924 l 319 924 l 319 340 q 557 77 319 77 q 733 144 673 77 q 794 345 794 211 l 794 924 l 640 924 l 640 1021 l 1074 1021 l 1074 924 l 932 924 l 932 371 q 921 245 932 301 q 883 139 910 189 q 812 55 856 88 q 701 1 769 21 q 542 -18 631 -18 z "},"Ú":{"ha":1087,"x_min":14,"x_max":1074,"o":"m 542 -18 q 366 9 441 -18 q 247 87 291 37 q 160 350 160 186 l 160 924 l 14 924 l 14 1021 l 469 1021 l 469 924 l 319 924 l 319 340 q 557 77 319 77 q 733 144 673 77 q 794 345 794 211 l 794 924 l 640 924 l 640 1021 l 1074 1021 l 1074 924 l 932 924 l 932 371 q 921 245 932 301 q 883 139 910 189 q 812 55 856 88 q 701 1 769 21 q 542 -18 631 -18 m 376 1111 l 356 1137 q 442 1207 393 1168 q 541 1283 492 1246 q 625 1345 590 1320 l 678 1384 l 747 1290 q 676 1242 727 1270 q 565 1188 626 1215 q 453 1141 505 1161 l 376 1111 z "},"Ŭ":{"ha":1087,"x_min":14,"x_max":1074,"o":"m 542 -18 q 366 9 441 -18 q 247 87 291 37 q 160 350 160 186 l 160 924 l 14 924 l 14 1021 l 469 1021 l 469 924 l 319 924 l 319 340 q 557 77 319 77 q 733 144 673 77 q 794 345 794 211 l 794 924 l 640 924 l 640 1021 l 1074 1021 l 1074 924 l 932 924 l 932 371 q 921 245 932 301 q 883 139 910 189 q 812 55 856 88 q 701 1 769 21 q 542 -18 631 -18 m 551 1111 q 479 1127 511 1111 q 428 1168 448 1143 q 387 1278 390 1219 l 474 1278 q 497 1215 475 1239 q 549 1192 519 1192 q 601 1215 578 1192 q 625 1275 623 1238 l 713 1275 q 673 1169 709 1220 q 622 1127 654 1144 q 551 1111 590 1111 z "},"Û":{"ha":1087,"x_min":14,"x_max":1074,"o":"m 542 -18 q 366 9 441 -18 q 247 87 291 37 q 160 350 160 186 l 160 924 l 14 924 l 14 1021 l 469 1021 l 469 924 l 319 924 l 319 340 q 557 77 319 77 q 733 144 673 77 q 794 345 794 211 l 794 924 l 640 924 l 640 1021 l 1074 1021 l 1074 924 l 932 924 l 932 371 q 921 245 932 301 q 883 139 910 189 q 812 55 856 88 q 701 1 769 21 q 542 -18 631 -18 m 705 1111 q 549 1296 601 1249 q 511 1256 534 1282 q 464 1201 488 1230 q 422 1148 440 1172 l 395 1114 l 328 1176 l 549 1414 l 772 1172 l 705 1111 z "},"Ȕ":{"ha":1087,"x_min":14,"x_max":1074,"o":"m 542 -18 q 366 9 441 -18 q 247 87 291 37 q 160 350 160 186 l 160 924 l 14 924 l 14 1021 l 469 1021 l 469 924 l 319 924 l 319 340 q 557 77 319 77 q 733 144 673 77 q 794 345 794 211 l 794 924 l 640 924 l 640 1021 l 1074 1021 l 1074 924 l 932 924 l 932 371 q 921 245 932 301 q 883 139 910 189 q 812 55 856 88 q 701 1 769 21 q 542 -18 631 -18 m 768 1111 q 734 1128 753 1118 q 690 1152 714 1139 q 628 1185 667 1164 q 549 1232 590 1206 q 474 1280 508 1257 q 425 1318 440 1303 l 494 1412 q 653 1259 579 1328 q 788 1137 726 1190 l 768 1111 m 505 1111 q 470 1128 490 1118 q 427 1152 450 1139 q 365 1185 403 1164 q 285 1232 326 1206 q 210 1280 244 1257 q 161 1318 176 1303 l 229 1412 q 524 1137 401 1243 l 505 1111 z "},"Ü":{"ha":1087,"x_min":14,"x_max":1074,"o":"m 542 -18 q 366 9 441 -18 q 247 87 291 37 q 160 350 160 186 l 160 924 l 14 924 l 14 1021 l 469 1021 l 469 924 l 319 924 l 319 340 q 557 77 319 77 q 733 144 673 77 q 794 345 794 211 l 794 924 l 640 924 l 640 1021 l 1074 1021 l 1074 924 l 932 924 l 932 371 q 921 245 932 301 q 883 139 910 189 q 812 55 856 88 q 701 1 769 21 q 542 -18 631 -18 m 711 1111 q 645 1138 672 1111 q 618 1204 618 1166 q 645 1270 618 1242 q 711 1298 672 1298 q 777 1270 749 1298 q 806 1204 806 1242 q 777 1139 806 1166 q 711 1111 749 1111 m 389 1111 q 323 1138 351 1111 q 296 1204 296 1166 q 323 1270 296 1242 q 389 1298 351 1298 q 455 1270 427 1298 q 482 1204 482 1242 q 454 1139 482 1166 q 389 1111 427 1111 z "},"Ù":{"ha":1087,"x_min":14,"x_max":1074,"o":"m 542 -18 q 366 9 441 -18 q 247 87 291 37 q 160 350 160 186 l 160 924 l 14 924 l 14 1021 l 469 1021 l 469 924 l 319 924 l 319 340 q 557 77 319 77 q 733 144 673 77 q 794 345 794 211 l 794 924 l 640 924 l 640 1021 l 1074 1021 l 1074 924 l 932 924 l 932 371 q 921 245 932 301 q 883 139 910 189 q 812 55 856 88 q 701 1 769 21 q 542 -18 631 -18 m 727 1111 q 713 1117 721 1114 q 694 1124 705 1120 q 649 1141 680 1129 q 582 1169 618 1154 q 515 1198 546 1184 q 422 1244 469 1218 q 356 1290 375 1270 l 425 1384 q 604 1252 524 1314 q 747 1137 685 1190 l 727 1111 z "},"Ű":{"ha":1087,"x_min":14,"x_max":1074,"o":"m 542 -18 q 366 9 441 -18 q 247 87 291 37 q 160 350 160 186 l 160 924 l 14 924 l 14 1021 l 469 1021 l 469 924 l 319 924 l 319 340 q 557 77 319 77 q 733 144 673 77 q 794 345 794 211 l 794 924 l 640 924 l 640 1021 l 1074 1021 l 1074 924 l 932 924 l 932 371 q 921 245 932 301 q 883 139 910 189 q 812 55 856 88 q 701 1 769 21 q 542 -18 631 -18 m 574 1103 l 555 1129 q 637 1203 591 1160 q 728 1287 684 1245 q 803 1359 772 1329 l 850 1404 l 918 1310 q 851 1258 898 1289 q 749 1196 804 1227 q 646 1139 693 1164 l 574 1103 m 311 1103 l 291 1129 q 374 1203 328 1160 q 464 1287 420 1245 q 539 1359 509 1329 l 585 1404 l 654 1310 q 587 1258 634 1289 q 484 1196 540 1227 q 381 1139 429 1164 l 311 1103 z "},"Ȗ":{"ha":1087,"x_min":14,"x_max":1074,"o":"m 542 -18 q 366 9 441 -18 q 247 87 291 37 q 160 350 160 186 l 160 924 l 14 924 l 14 1021 l 469 1021 l 469 924 l 319 924 l 319 340 q 557 77 319 77 q 733 144 673 77 q 794 345 794 211 l 794 924 l 640 924 l 640 1021 l 1074 1021 l 1074 924 l 932 924 l 932 371 q 921 245 932 301 q 883 139 910 189 q 812 55 856 88 q 701 1 769 21 q 542 -18 631 -18 m 625 1111 q 602 1173 625 1149 q 550 1197 580 1197 q 499 1174 522 1197 q 474 1114 476 1151 l 387 1114 q 427 1220 390 1169 q 477 1262 446 1246 q 549 1278 509 1278 q 621 1262 588 1278 q 672 1220 653 1246 q 702 1166 692 1194 q 713 1111 711 1138 l 625 1111 z "},"Ū":{"ha":1087,"x_min":14,"x_max":1074,"o":"m 542 -18 q 366 9 441 -18 q 247 87 291 37 q 160 350 160 186 l 160 924 l 14 924 l 14 1021 l 469 1021 l 469 924 l 319 924 l 319 340 q 557 77 319 77 q 733 144 673 77 q 794 345 794 211 l 794 924 l 640 924 l 640 1021 l 1074 1021 l 1074 924 l 932 924 l 932 371 q 921 245 932 301 q 883 139 910 189 q 812 55 856 88 q 701 1 769 21 q 542 -18 631 -18 m 353 1141 l 353 1235 l 747 1235 l 747 1141 l 353 1141 z "},"Ų":{"ha":1087,"x_min":14,"x_max":1074,"o":"m 542 -18 q 366 9 441 -18 q 247 87 291 37 q 160 350 160 186 l 160 924 l 14 924 l 14 1021 l 469 1021 l 469 924 l 319 924 l 319 340 q 557 77 319 77 q 733 144 673 77 q 794 345 794 211 l 794 924 l 640 924 l 640 1021 l 1074 1021 l 1074 924 l 932 924 l 932 371 q 921 245 932 301 q 883 139 910 189 q 812 55 856 88 q 701 1 769 21 q 542 -18 631 -18 m 655 -261 q 514 -218 568 -261 q 459 -118 459 -174 q 479 -56 459 -83 q 532 -12 499 -28 q 675 21 598 21 l 675 0 q 594 -33 621 -9 q 568 -83 568 -56 q 590 -137 568 -115 q 673 -167 613 -159 l 655 -261 z "},"Ů":{"ha":1087,"x_min":14,"x_max":1074,"o":"m 542 -18 q 366 9 441 -18 q 247 87 291 37 q 160 350 160 186 l 160 924 l 14 924 l 14 1021 l 469 1021 l 469 924 l 319 924 l 319 340 q 557 77 319 77 q 733 144 673 77 q 794 345 794 211 l 794 924 l 640 924 l 640 1021 l 1074 1021 l 1074 924 l 932 924 l 932 371 q 921 245 932 301 q 883 139 910 189 q 812 55 856 88 q 701 1 769 21 q 542 -18 631 -18 m 551 1111 q 452 1146 489 1111 q 415 1235 415 1181 q 452 1323 415 1289 q 551 1358 488 1358 q 650 1323 613 1358 q 686 1235 686 1289 q 650 1146 686 1181 q 551 1111 613 1111 m 550 1150 q 604 1173 581 1150 q 627 1235 627 1196 q 604 1298 627 1275 q 551 1321 582 1321 q 498 1298 521 1321 q 475 1235 475 1275 q 497 1173 475 1195 q 550 1150 519 1150 z "},"Ũ":{"ha":1087,"x_min":14,"x_max":1074,"o":"m 542 -18 q 366 9 441 -18 q 247 87 291 37 q 160 350 160 186 l 160 924 l 14 924 l 14 1021 l 469 1021 l 469 924 l 319 924 l 319 340 q 557 77 319 77 q 733 144 673 77 q 794 345 794 211 l 794 924 l 640 924 l 640 1021 l 1074 1021 l 1074 924 l 932 924 l 932 371 q 921 245 932 301 q 883 139 910 189 q 812 55 856 88 q 701 1 769 21 q 542 -18 631 -18 m 431 1131 q 343 1168 369 1131 q 317 1296 317 1206 l 377 1296 q 390 1247 377 1261 q 437 1234 403 1234 q 547 1265 464 1234 q 669 1297 631 1297 q 757 1260 731 1297 q 783 1133 783 1223 l 723 1133 q 710 1181 723 1167 q 663 1195 697 1195 q 553 1163 636 1195 q 431 1131 469 1131 z "},"V":{"ha":1112,"x_min":-3,"x_max":1107,"o":"m 557 -24 q 499 -2 521 -24 q 458 72 477 20 l 153 924 l -3 924 l -3 1021 l 484 1021 l 484 924 l 340 924 l 587 199 l 827 924 l 647 924 l 647 1021 l 1107 1021 l 1107 924 l 942 924 l 650 72 q 612 -2 631 20 q 557 -24 593 -24 z "},"W":{"ha":1518,"x_min":20,"x_max":1499,"o":"m 528 -24 q 473 -2 492 -24 q 437 72 454 19 l 175 924 l 20 924 l 20 1021 l 492 1021 l 492 924 l 349 924 l 546 208 l 742 924 l 878 924 l 1075 208 l 1260 924 l 1122 924 l 1122 1021 l 1499 1021 l 1499 924 l 1375 924 l 1139 72 q 1106 -4 1124 16 q 1051 -24 1087 -24 q 1002 -4 1017 -24 q 971 72 987 16 l 791 686 l 621 72 q 586 -1 606 21 q 528 -24 565 -24 z "},"Ẃ":{"ha":1518,"x_min":20,"x_max":1499,"o":"m 528 -24 q 473 -2 492 -24 q 437 72 454 19 l 175 924 l 20 924 l 20 1021 l 492 1021 l 492 924 l 349 924 l 546 208 l 742 924 l 878 924 l 1075 208 l 1260 924 l 1122 924 l 1122 1021 l 1499 1021 l 1499 924 l 1375 924 l 1139 72 q 1106 -4 1124 16 q 1051 -24 1087 -24 q 1002 -4 1017 -24 q 971 72 987 16 l 791 686 l 621 72 q 586 -1 606 21 q 528 -24 565 -24 m 639 1111 l 619 1137 q 705 1207 656 1168 q 804 1283 755 1246 q 888 1345 853 1320 l 941 1384 l 1010 1290 q 940 1242 990 1270 q 828 1188 889 1215 q 716 1141 768 1161 l 639 1111 z "},"Ŵ":{"ha":1518,"x_min":20,"x_max":1499,"o":"m 528 -24 q 473 -2 492 -24 q 437 72 454 19 l 175 924 l 20 924 l 20 1021 l 492 1021 l 492 924 l 349 924 l 546 208 l 742 924 l 878 924 l 1075 208 l 1260 924 l 1122 924 l 1122 1021 l 1499 1021 l 1499 924 l 1375 924 l 1139 72 q 1106 -4 1124 16 q 1051 -24 1087 -24 q 1002 -4 1017 -24 q 971 72 987 16 l 791 686 l 621 72 q 586 -1 606 21 q 528 -24 565 -24 m 968 1111 q 812 1296 864 1249 q 774 1256 797 1282 q 727 1201 751 1230 q 685 1148 703 1172 l 659 1114 l 591 1176 l 812 1414 l 1035 1172 l 968 1111 z "},"Ẅ":{"ha":1518,"x_min":20,"x_max":1499,"o":"m 528 -24 q 473 -2 492 -24 q 437 72 454 19 l 175 924 l 20 924 l 20 1021 l 492 1021 l 492 924 l 349 924 l 546 208 l 742 924 l 878 924 l 1075 208 l 1260 924 l 1122 924 l 1122 1021 l 1499 1021 l 1499 924 l 1375 924 l 1139 72 q 1106 -4 1124 16 q 1051 -24 1087 -24 q 1002 -4 1017 -24 q 971 72 987 16 l 791 686 l 621 72 q 586 -1 606 21 q 528 -24 565 -24 m 974 1111 q 908 1138 935 1111 q 881 1204 881 1166 q 908 1270 881 1242 q 974 1298 935 1298 q 1040 1270 1012 1298 q 1069 1204 1069 1242 q 1040 1139 1069 1166 q 974 1111 1012 1111 m 652 1111 q 587 1138 614 1111 q 559 1204 559 1166 q 587 1270 559 1242 q 652 1298 614 1298 q 718 1270 690 1298 q 745 1204 745 1242 q 718 1139 745 1166 q 652 1111 690 1111 z "},"Ẁ":{"ha":1518,"x_min":20,"x_max":1499,"o":"m 528 -24 q 473 -2 492 -24 q 437 72 454 19 l 175 924 l 20 924 l 20 1021 l 492 1021 l 492 924 l 349 924 l 546 208 l 742 924 l 878 924 l 1075 208 l 1260 924 l 1122 924 l 1122 1021 l 1499 1021 l 1499 924 l 1375 924 l 1139 72 q 1106 -4 1124 16 q 1051 -24 1087 -24 q 1002 -4 1017 -24 q 971 72 987 16 l 791 686 l 621 72 q 586 -1 606 21 q 528 -24 565 -24 m 990 1111 q 976 1117 984 1114 q 957 1124 968 1120 q 912 1141 943 1129 q 845 1169 882 1154 q 778 1198 809 1184 q 685 1244 732 1218 q 619 1290 638 1270 l 688 1384 q 867 1252 787 1314 q 1010 1137 948 1190 l 990 1111 z "},"X":{"ha":1152,"x_min":11,"x_max":1141,"o":"m 11 0 l 11 97 l 147 97 l 489 515 l 180 924 l 16 924 l 16 1021 l 522 1021 l 522 924 l 367 924 l 585 634 l 819 924 l 652 924 l 652 1021 l 1132 1021 l 1132 924 l 977 924 l 661 532 l 993 97 l 1141 97 l 1141 0 l 657 0 l 657 97 l 807 97 l 566 413 l 307 97 l 450 97 l 450 0 l 11 0 z "},"Y":{"ha":1054,"x_min":16,"x_max":1039,"o":"m 282 0 l 282 97 l 447 97 l 447 404 l 154 924 l 16 924 l 16 1021 l 469 1021 l 469 924 l 314 924 l 543 503 l 779 924 l 628 924 l 628 1021 l 1039 1021 l 1039 924 l 911 924 l 607 400 l 607 97 l 762 97 l 762 0 l 282 0 z "},"Ý":{"ha":1054,"x_min":16,"x_max":1039,"o":"m 282 0 l 282 97 l 447 97 l 447 404 l 154 924 l 16 924 l 16 1021 l 469 1021 l 469 924 l 314 924 l 543 503 l 779 924 l 628 924 l 628 1021 l 1039 1021 l 1039 924 l 911 924 l 607 400 l 607 97 l 762 97 l 762 0 l 282 0 m 373 1111 l 353 1137 q 439 1207 390 1168 q 538 1283 489 1246 q 623 1345 587 1320 l 675 1384 l 744 1290 q 674 1242 724 1270 q 563 1188 623 1215 q 450 1141 502 1161 l 373 1111 z "},"Ŷ":{"ha":1054,"x_min":16,"x_max":1039,"o":"m 282 0 l 282 97 l 447 97 l 447 404 l 154 924 l 16 924 l 16 1021 l 469 1021 l 469 924 l 314 924 l 543 503 l 779 924 l 628 924 l 628 1021 l 1039 1021 l 1039 924 l 911 924 l 607 400 l 607 97 l 762 97 l 762 0 l 282 0 m 702 1111 q 547 1296 598 1249 q 508 1256 531 1282 q 461 1201 485 1230 q 419 1148 437 1172 l 393 1114 l 326 1176 l 547 1414 l 769 1172 l 702 1111 z "},"Ÿ":{"ha":1054,"x_min":16,"x_max":1039,"o":"m 282 0 l 282 97 l 447 97 l 447 404 l 154 924 l 16 924 l 16 1021 l 469 1021 l 469 924 l 314 924 l 543 503 l 779 924 l 628 924 l 628 1021 l 1039 1021 l 1039 924 l 911 924 l 607 400 l 607 97 l 762 97 l 762 0 l 282 0 m 708 1111 q 642 1138 669 1111 q 615 1204 615 1166 q 642 1270 615 1242 q 708 1298 669 1298 q 774 1270 746 1298 q 803 1204 803 1242 q 774 1139 803 1166 q 708 1111 746 1111 m 387 1111 q 321 1138 348 1111 q 294 1204 294 1166 q 321 1270 294 1242 q 387 1298 348 1298 q 452 1270 425 1298 q 479 1204 479 1242 q 452 1139 479 1166 q 387 1111 424 1111 z "},"Ỳ":{"ha":1054,"x_min":16,"x_max":1039,"o":"m 282 0 l 282 97 l 447 97 l 447 404 l 154 924 l 16 924 l 16 1021 l 469 1021 l 469 924 l 314 924 l 543 503 l 779 924 l 628 924 l 628 1021 l 1039 1021 l 1039 924 l 911 924 l 607 400 l 607 97 l 762 97 l 762 0 l 282 0 m 724 1111 q 710 1117 718 1114 q 691 1124 702 1120 q 647 1141 677 1129 q 579 1169 616 1154 q 512 1198 543 1184 q 419 1244 466 1218 q 353 1290 372 1270 l 422 1384 q 602 1252 521 1314 q 744 1137 682 1190 l 724 1111 z "},"Z":{"ha":922,"x_min":75,"x_max":867,"o":"m 92 0 l 75 113 l 667 928 l 214 928 l 214 642 l 87 642 l 87 1021 l 817 1021 l 844 905 l 258 97 l 741 97 l 741 400 l 867 400 l 867 0 l 92 0 z "},"Ź":{"ha":922,"x_min":75,"x_max":867,"o":"m 92 0 l 75 113 l 667 928 l 214 928 l 214 642 l 87 642 l 87 1021 l 817 1021 l 844 905 l 258 97 l 741 97 l 741 400 l 867 400 l 867 0 l 92 0 m 300 1111 l 281 1137 q 367 1207 317 1168 q 466 1283 416 1246 q 550 1345 515 1320 l 603 1384 l 671 1290 q 601 1242 652 1270 q 490 1188 551 1215 q 378 1141 429 1161 l 300 1111 z "},"Ž":{"ha":922,"x_min":75,"x_max":867,"o":"m 92 0 l 75 113 l 667 928 l 214 928 l 214 642 l 87 642 l 87 1021 l 817 1021 l 844 905 l 258 97 l 741 97 l 741 400 l 867 400 l 867 0 l 92 0 m 486 1110 l 264 1352 l 331 1413 q 486 1228 435 1275 q 526 1268 503 1242 q 572 1323 549 1294 q 614 1375 596 1352 l 640 1411 l 707 1348 l 486 1110 z "},"Ż":{"ha":922,"x_min":75,"x_max":867,"o":"m 92 0 l 75 113 l 667 928 l 214 928 l 214 642 l 87 642 l 87 1021 l 817 1021 l 844 905 l 258 97 l 741 97 l 741 400 l 867 400 l 867 0 l 92 0 m 474 1114 q 403 1143 433 1114 q 374 1214 374 1173 q 403 1285 374 1256 q 474 1315 433 1315 q 545 1285 515 1315 q 575 1214 575 1255 q 545 1143 575 1173 q 474 1114 515 1114 z "},"a":{"ha":859,"x_min":53,"x_max":865,"o":"m 241 -18 q 105 26 158 -18 q 53 149 53 71 q 71 223 53 189 q 120 279 90 256 q 267 357 183 326 q 413 424 348 386 q 461 467 443 441 q 479 524 479 492 q 441 638 479 601 q 335 676 404 676 q 243 661 287 676 q 176 619 200 646 q 245 596 220 619 q 271 541 271 572 q 243 471 271 498 q 176 444 215 444 q 106 472 136 444 q 77 554 77 500 q 146 677 77 613 q 238 727 180 707 q 364 747 295 747 q 465 735 420 747 q 548 695 511 723 q 605 619 585 668 q 625 504 625 570 l 625 192 q 632 141 625 165 q 657 98 638 117 q 705 78 677 78 q 791 199 791 78 l 791 300 l 865 300 l 865 212 q 810 26 865 77 q 751 -8 783 2 q 676 -18 719 -18 q 591 -1 631 -18 q 524 56 552 17 q 490 151 495 96 q 392 30 461 77 q 241 -18 322 -18 m 277 79 q 369 106 321 79 q 448 174 417 133 q 479 252 479 214 l 479 396 q 379 319 436 353 q 287 269 323 286 q 224 224 250 253 q 197 155 197 196 q 217 100 197 121 q 277 79 237 79 z "},"á":{"ha":859,"x_min":53,"x_max":865,"o":"m 241 -18 q 105 26 158 -18 q 53 149 53 71 q 71 223 53 189 q 120 279 90 256 q 267 357 183 326 q 413 424 348 386 q 461 467 443 441 q 479 524 479 492 q 441 638 479 601 q 335 676 404 676 q 243 661 287 676 q 176 619 200 646 q 245 596 220 619 q 271 541 271 572 q 243 471 271 498 q 176 444 215 444 q 106 472 136 444 q 77 554 77 500 q 146 677 77 613 q 238 727 180 707 q 364 747 295 747 q 465 735 420 747 q 548 695 511 723 q 605 619 585 668 q 625 504 625 570 l 625 192 q 632 141 625 165 q 657 98 638 117 q 705 78 677 78 q 791 199 791 78 l 791 300 l 865 300 l 865 212 q 810 26 865 77 q 751 -8 783 2 q 676 -18 719 -18 q 591 -1 631 -18 q 524 56 552 17 q 490 151 495 96 q 392 30 461 77 q 241 -18 322 -18 m 277 79 q 369 106 321 79 q 448 174 417 133 q 479 252 479 214 l 479 396 q 379 319 436 353 q 287 269 323 286 q 224 224 250 253 q 197 155 197 196 q 217 100 197 121 q 277 79 237 79 m 195 818 l 175 844 q 261 914 212 876 q 360 990 311 953 q 444 1053 409 1027 l 497 1091 l 566 997 q 495 949 546 977 q 384 895 445 922 q 272 848 323 868 l 195 818 z "},"ă":{"ha":859,"x_min":53,"x_max":865,"o":"m 241 -18 q 105 26 158 -18 q 53 149 53 71 q 71 223 53 189 q 120 279 90 256 q 267 357 183 326 q 413 424 348 386 q 461 467 443 441 q 479 524 479 492 q 441 638 479 601 q 335 676 404 676 q 243 661 287 676 q 176 619 200 646 q 245 596 220 619 q 271 541 271 572 q 243 471 271 498 q 176 444 215 444 q 106 472 136 444 q 77 554 77 500 q 146 677 77 613 q 238 727 180 707 q 364 747 295 747 q 465 735 420 747 q 548 695 511 723 q 605 619 585 668 q 625 504 625 570 l 625 192 q 632 141 625 165 q 657 98 638 117 q 705 78 677 78 q 791 199 791 78 l 791 300 l 865 300 l 865 212 q 810 26 865 77 q 751 -8 783 2 q 676 -18 719 -18 q 591 -1 631 -18 q 524 56 552 17 q 490 151 495 96 q 392 30 461 77 q 241 -18 322 -18 m 277 79 q 369 106 321 79 q 448 174 417 133 q 479 252 479 214 l 479 396 q 379 319 436 353 q 287 269 323 286 q 224 224 250 253 q 197 155 197 196 q 217 100 197 121 q 277 79 237 79 m 370 818 q 298 834 330 818 q 247 876 267 850 q 205 985 209 926 l 293 985 q 316 922 294 946 q 368 899 338 899 q 419 922 397 899 q 444 982 442 945 l 532 982 q 492 876 528 927 q 441 834 473 851 q 370 818 409 818 z "},"â":{"ha":859,"x_min":53,"x_max":865,"o":"m 241 -18 q 105 26 158 -18 q 53 149 53 71 q 71 223 53 189 q 120 279 90 256 q 267 357 183 326 q 413 424 348 386 q 461 467 443 441 q 479 524 479 492 q 441 638 479 601 q 335 676 404 676 q 243 661 287 676 q 176 619 200 646 q 245 596 220 619 q 271 541 271 572 q 243 471 271 498 q 176 444 215 444 q 106 472 136 444 q 77 554 77 500 q 146 677 77 613 q 238 727 180 707 q 364 747 295 747 q 465 735 420 747 q 548 695 511 723 q 605 619 585 668 q 625 504 625 570 l 625 192 q 632 141 625 165 q 657 98 638 117 q 705 78 677 78 q 791 199 791 78 l 791 300 l 865 300 l 865 212 q 810 26 865 77 q 751 -8 783 2 q 676 -18 719 -18 q 591 -1 631 -18 q 524 56 552 17 q 490 151 495 96 q 392 30 461 77 q 241 -18 322 -18 m 277 79 q 369 106 321 79 q 448 174 417 133 q 479 252 479 214 l 479 396 q 379 319 436 353 q 287 269 323 286 q 224 224 250 253 q 197 155 197 196 q 217 100 197 121 q 277 79 237 79 m 524 818 q 368 1003 420 956 q 330 963 353 989 q 283 908 307 937 q 241 855 259 879 l 214 821 l 147 883 l 368 1121 l 591 879 l 524 818 z "},"ȁ":{"ha":859,"x_min":-20,"x_max":865,"o":"m 241 -18 q 105 26 158 -18 q 53 149 53 71 q 71 223 53 189 q 120 279 90 256 q 267 357 183 326 q 413 424 348 386 q 461 467 443 441 q 479 524 479 492 q 441 638 479 601 q 335 676 404 676 q 243 661 287 676 q 176 619 200 646 q 245 596 220 619 q 271 541 271 572 q 243 471 271 498 q 176 444 215 444 q 106 472 136 444 q 77 554 77 500 q 146 677 77 613 q 238 727 180 707 q 364 747 295 747 q 465 735 420 747 q 548 695 511 723 q 605 619 585 668 q 625 504 625 570 l 625 192 q 632 141 625 165 q 657 98 638 117 q 705 78 677 78 q 791 199 791 78 l 791 300 l 865 300 l 865 212 q 810 26 865 77 q 751 -8 783 2 q 676 -18 719 -18 q 591 -1 631 -18 q 524 56 552 17 q 490 151 495 96 q 392 30 461 77 q 241 -18 322 -18 m 277 79 q 369 106 321 79 q 448 174 417 133 q 479 252 479 214 l 479 396 q 379 319 436 353 q 287 269 323 286 q 224 224 250 253 q 197 155 197 196 q 217 100 197 121 q 277 79 237 79 m 587 818 q 553 836 572 825 q 509 859 533 846 q 447 892 486 871 q 368 939 409 913 q 293 987 327 964 q 244 1025 259 1010 l 313 1119 q 472 966 398 1035 q 607 844 545 897 l 587 818 m 323 818 q 289 836 309 825 q 245 859 269 846 q 183 892 222 871 q 104 939 145 913 q 29 987 63 964 q -20 1025 -5 1010 l 48 1119 q 343 844 220 950 l 323 818 z "},"ä":{"ha":859,"x_min":53,"x_max":865,"o":"m 241 -18 q 105 26 158 -18 q 53 149 53 71 q 71 223 53 189 q 120 279 90 256 q 267 357 183 326 q 413 424 348 386 q 461 467 443 441 q 479 524 479 492 q 441 638 479 601 q 335 676 404 676 q 243 661 287 676 q 176 619 200 646 q 245 596 220 619 q 271 541 271 572 q 243 471 271 498 q 176 444 215 444 q 106 472 136 444 q 77 554 77 500 q 146 677 77 613 q 238 727 180 707 q 364 747 295 747 q 465 735 420 747 q 548 695 511 723 q 605 619 585 668 q 625 504 625 570 l 625 192 q 632 141 625 165 q 657 98 638 117 q 705 78 677 78 q 791 199 791 78 l 791 300 l 865 300 l 865 212 q 810 26 865 77 q 751 -8 783 2 q 676 -18 719 -18 q 591 -1 631 -18 q 524 56 552 17 q 490 151 495 96 q 392 30 461 77 q 241 -18 322 -18 m 277 79 q 369 106 321 79 q 448 174 417 133 q 479 252 479 214 l 479 396 q 379 319 436 353 q 287 269 323 286 q 224 224 250 253 q 197 155 197 196 q 217 100 197 121 q 277 79 237 79 m 530 818 q 464 845 491 818 q 437 911 437 873 q 464 977 437 949 q 530 1005 491 1005 q 596 977 568 1005 q 625 911 625 949 q 596 846 625 873 q 530 818 568 818 m 208 818 q 142 845 170 818 q 115 911 115 873 q 142 977 115 949 q 208 1005 170 1005 q 274 977 246 1005 q 301 911 301 949 q 273 846 301 873 q 208 818 245 818 z "},"à":{"ha":859,"x_min":53,"x_max":865,"o":"m 241 -18 q 105 26 158 -18 q 53 149 53 71 q 71 223 53 189 q 120 279 90 256 q 267 357 183 326 q 413 424 348 386 q 461 467 443 441 q 479 524 479 492 q 441 638 479 601 q 335 676 404 676 q 243 661 287 676 q 176 619 200 646 q 245 596 220 619 q 271 541 271 572 q 243 471 271 498 q 176 444 215 444 q 106 472 136 444 q 77 554 77 500 q 146 677 77 613 q 238 727 180 707 q 364 747 295 747 q 465 735 420 747 q 548 695 511 723 q 605 619 585 668 q 625 504 625 570 l 625 192 q 632 141 625 165 q 657 98 638 117 q 705 78 677 78 q 791 199 791 78 l 791 300 l 865 300 l 865 212 q 810 26 865 77 q 751 -8 783 2 q 676 -18 719 -18 q 591 -1 631 -18 q 524 56 552 17 q 490 151 495 96 q 392 30 461 77 q 241 -18 322 -18 m 277 79 q 369 106 321 79 q 448 174 417 133 q 479 252 479 214 l 479 396 q 379 319 436 353 q 287 269 323 286 q 224 224 250 253 q 197 155 197 196 q 217 100 197 121 q 277 79 237 79 m 546 818 q 532 824 540 821 q 513 831 524 827 q 468 848 499 836 q 401 876 437 861 q 334 905 365 891 q 241 951 288 925 q 175 997 194 977 l 243 1091 q 423 959 342 1021 q 566 844 504 897 l 546 818 z "},"ȃ":{"ha":859,"x_min":53,"x_max":865,"o":"m 241 -18 q 105 26 158 -18 q 53 149 53 71 q 71 223 53 189 q 120 279 90 256 q 267 357 183 326 q 413 424 348 386 q 461 467 443 441 q 479 524 479 492 q 441 638 479 601 q 335 676 404 676 q 243 661 287 676 q 176 619 200 646 q 245 596 220 619 q 271 541 271 572 q 243 471 271 498 q 176 444 215 444 q 106 472 136 444 q 77 554 77 500 q 146 677 77 613 q 238 727 180 707 q 364 747 295 747 q 465 735 420 747 q 548 695 511 723 q 605 619 585 668 q 625 504 625 570 l 625 192 q 632 141 625 165 q 657 98 638 117 q 705 78 677 78 q 791 199 791 78 l 791 300 l 865 300 l 865 212 q 810 26 865 77 q 751 -8 783 2 q 676 -18 719 -18 q 591 -1 631 -18 q 524 56 552 17 q 490 151 495 96 q 392 30 461 77 q 241 -18 322 -18 m 277 79 q 369 106 321 79 q 448 174 417 133 q 479 252 479 214 l 479 396 q 379 319 436 353 q 287 269 323 286 q 224 224 250 253 q 197 155 197 196 q 217 100 197 121 q 277 79 237 79 m 444 818 q 421 880 444 857 q 369 904 399 904 q 318 881 340 904 q 293 821 295 858 l 205 821 q 246 927 209 876 q 296 969 264 953 q 368 985 328 985 q 439 969 407 985 q 491 927 472 953 q 520 873 511 901 q 532 818 530 845 l 444 818 z "},"ā":{"ha":859,"x_min":53,"x_max":865,"o":"m 241 -18 q 105 26 158 -18 q 53 149 53 71 q 71 223 53 189 q 120 279 90 256 q 267 357 183 326 q 413 424 348 386 q 461 467 443 441 q 479 524 479 492 q 441 638 479 601 q 335 676 404 676 q 243 661 287 676 q 176 619 200 646 q 245 596 220 619 q 271 541 271 572 q 243 471 271 498 q 176 444 215 444 q 106 472 136 444 q 77 554 77 500 q 146 677 77 613 q 238 727 180 707 q 364 747 295 747 q 465 735 420 747 q 548 695 511 723 q 605 619 585 668 q 625 504 625 570 l 625 192 q 632 141 625 165 q 657 98 638 117 q 705 78 677 78 q 791 199 791 78 l 791 300 l 865 300 l 865 212 q 810 26 865 77 q 751 -8 783 2 q 676 -18 719 -18 q 591 -1 631 -18 q 524 56 552 17 q 490 151 495 96 q 392 30 461 77 q 241 -18 322 -18 m 277 79 q 369 106 321 79 q 448 174 417 133 q 479 252 479 214 l 479 396 q 379 319 436 353 q 287 269 323 286 q 224 224 250 253 q 197 155 197 196 q 217 100 197 121 q 277 79 237 79 m 172 848 l 172 942 l 566 942 l 566 848 l 172 848 z "},"ą":{"ha":859,"x_min":53,"x_max":865,"o":"m 241 -18 q 105 26 158 -18 q 53 149 53 71 q 71 223 53 189 q 120 279 90 256 q 267 357 183 326 q 413 424 348 386 q 461 467 443 441 q 479 524 479 492 q 441 638 479 601 q 335 676 404 676 q 243 661 287 676 q 176 619 200 646 q 245 596 220 619 q 271 541 271 572 q 243 471 271 498 q 176 444 215 444 q 106 472 136 444 q 77 554 77 500 q 146 677 77 613 q 238 727 180 707 q 364 747 295 747 q 465 735 420 747 q 548 695 511 723 q 605 619 585 668 q 625 504 625 570 l 625 192 q 632 141 625 165 q 657 98 638 117 q 705 78 677 78 q 791 199 791 78 l 791 300 l 865 300 l 865 212 q 810 26 865 77 q 751 -8 783 2 q 676 -18 719 -18 q 591 -1 631 -18 q 524 56 552 17 q 490 151 495 96 q 392 30 461 77 q 241 -18 322 -18 m 277 79 q 369 106 321 79 q 448 174 417 133 q 479 252 479 214 l 479 396 q 379 319 436 353 q 287 269 323 286 q 224 224 250 253 q 197 155 197 196 q 217 100 197 121 q 277 79 237 79 m 687 -261 q 546 -218 600 -261 q 491 -118 491 -174 q 511 -56 491 -83 q 564 -12 531 -28 q 707 21 630 21 l 707 0 q 626 -33 653 -9 q 600 -83 600 -56 q 622 -137 600 -115 q 705 -167 645 -159 l 687 -261 z "},"å":{"ha":859,"x_min":53,"x_max":865,"o":"m 241 -18 q 105 26 158 -18 q 53 149 53 71 q 71 223 53 189 q 120 279 90 256 q 267 357 183 326 q 413 424 348 386 q 461 467 443 441 q 479 524 479 492 q 441 638 479 601 q 335 676 404 676 q 243 661 287 676 q 176 619 200 646 q 245 596 220 619 q 271 541 271 572 q 243 471 271 498 q 176 444 215 444 q 106 472 136 444 q 77 554 77 500 q 146 677 77 613 q 238 727 180 707 q 364 747 295 747 q 465 735 420 747 q 548 695 511 723 q 605 619 585 668 q 625 504 625 570 l 625 192 q 632 141 625 165 q 657 98 638 117 q 705 78 677 78 q 791 199 791 78 l 791 300 l 865 300 l 865 212 q 810 26 865 77 q 751 -8 783 2 q 676 -18 719 -18 q 591 -1 631 -18 q 524 56 552 17 q 490 151 495 96 q 392 30 461 77 q 241 -18 322 -18 m 277 79 q 369 106 321 79 q 448 174 417 133 q 479 252 479 214 l 479 396 q 379 319 436 353 q 287 269 323 286 q 224 224 250 253 q 197 155 197 196 q 217 100 197 121 q 277 79 237 79 m 370 818 q 271 853 308 818 q 234 942 234 888 q 271 1030 234 996 q 370 1065 307 1065 q 469 1030 432 1065 q 505 942 505 996 q 469 853 505 888 q 370 818 432 818 m 369 857 q 422 880 399 857 q 446 942 446 903 q 423 1005 446 982 q 370 1028 401 1028 q 317 1005 340 1028 q 294 942 294 982 q 316 880 294 902 q 369 857 338 857 z "},"ã":{"ha":859,"x_min":53,"x_max":865,"o":"m 241 -18 q 105 26 158 -18 q 53 149 53 71 q 71 223 53 189 q 120 279 90 256 q 267 357 183 326 q 413 424 348 386 q 461 467 443 441 q 479 524 479 492 q 441 638 479 601 q 335 676 404 676 q 243 661 287 676 q 176 619 200 646 q 245 596 220 619 q 271 541 271 572 q 243 471 271 498 q 176 444 215 444 q 106 472 136 444 q 77 554 77 500 q 146 677 77 613 q 238 727 180 707 q 364 747 295 747 q 465 735 420 747 q 548 695 511 723 q 605 619 585 668 q 625 504 625 570 l 625 192 q 632 141 625 165 q 657 98 638 117 q 705 78 677 78 q 791 199 791 78 l 791 300 l 865 300 l 865 212 q 810 26 865 77 q 751 -8 783 2 q 676 -18 719 -18 q 591 -1 631 -18 q 524 56 552 17 q 490 151 495 96 q 392 30 461 77 q 241 -18 322 -18 m 277 79 q 369 106 321 79 q 448 174 417 133 q 479 252 479 214 l 479 396 q 379 319 436 353 q 287 269 323 286 q 224 224 250 253 q 197 155 197 196 q 217 100 197 121 q 277 79 237 79 m 250 838 q 162 876 188 838 q 136 1003 136 913 l 196 1003 q 209 955 196 968 q 256 941 222 941 q 366 972 283 941 q 488 1004 450 1004 q 576 967 550 1004 q 602 840 602 930 l 542 840 q 529 888 542 874 q 482 902 516 902 q 372 870 455 902 q 250 838 288 838 z "},"æ":{"ha":1172,"x_min":56,"x_max":1135,"o":"m 250 -20 q 111 25 166 -20 q 56 149 56 71 q 64 202 56 177 q 85 248 72 228 q 120 286 99 268 q 163 317 142 304 q 215 343 185 331 q 271 364 245 356 q 330 382 296 372 q 388 397 363 391 q 445 410 412 402 q 497 422 479 418 l 497 524 q 453 638 497 600 q 338 676 408 676 q 249 661 290 676 q 183 619 207 646 q 254 596 227 619 q 281 541 281 572 q 250 471 281 498 q 179 444 219 444 q 109 475 138 444 q 79 566 79 506 q 117 657 79 616 q 215 723 154 699 q 350 747 277 747 q 604 619 543 747 q 706 718 648 687 q 844 749 764 749 q 944 727 899 749 q 1018 671 989 705 q 1066 594 1046 637 q 1093 512 1085 552 q 1101 436 1101 473 l 653 371 q 659 312 653 346 q 680 237 665 278 q 715 163 694 197 q 771 106 736 129 q 848 83 805 83 q 976 127 918 83 q 1055 252 1034 171 l 1135 227 q 1030 47 1108 113 q 837 -20 951 -20 q 715 9 772 -20 q 617 84 658 39 q 561 180 577 130 q 437 36 519 92 q 250 -20 356 -20 m 653 441 l 977 494 q 939 616 977 564 q 840 668 901 668 q 713 605 765 668 q 653 441 661 542 m 268 79 q 360 100 317 79 q 432 151 404 121 q 477 211 460 182 q 500 264 494 241 l 497 345 q 260 266 335 307 q 185 166 185 224 q 208 104 185 129 q 268 79 230 79 z "},"b":{"ha":804,"x_min":-49,"x_max":751,"o":"m 446 -18 q 306 19 371 -18 q 207 135 240 57 l 154 0 l 92 0 l 92 937 l -49 937 l -49 1021 l 237 1021 l 237 639 q 325 719 272 690 q 439 747 378 747 q 604 699 534 747 q 713 563 674 650 q 751 364 751 477 q 713 170 751 257 q 605 33 675 83 q 446 -18 535 -18 m 418 64 q 515 107 473 64 q 576 216 557 151 q 596 355 596 282 q 557 568 596 475 q 500 643 536 615 q 418 671 465 671 q 337 644 373 671 q 280 575 300 617 q 237 396 237 488 q 259 229 237 304 q 321 109 280 154 q 418 64 363 64 z "},"c":{"ha":758,"x_min":50,"x_max":721,"o":"m 401 -18 q 217 30 296 -18 q 94 161 138 78 q 50 350 50 245 q 93 548 50 458 q 218 693 136 638 q 418 747 300 747 q 517 733 467 747 q 610 689 568 718 q 679 615 653 660 q 705 510 705 570 q 677 435 705 469 q 599 400 649 400 q 525 426 555 400 q 494 496 494 452 q 526 564 494 540 q 599 589 557 589 q 535 648 576 625 q 441 671 494 671 q 310 628 362 671 q 231 516 257 585 q 204 372 204 448 q 264 166 204 241 q 432 92 325 92 q 532 119 488 92 q 606 185 577 147 q 644 252 635 222 l 721 227 q 612 48 695 115 q 401 -18 528 -18 z "},"ć":{"ha":758,"x_min":50,"x_max":721,"o":"m 401 -18 q 217 30 296 -18 q 94 161 138 78 q 50 350 50 245 q 93 548 50 458 q 218 693 136 638 q 418 747 300 747 q 517 733 467 747 q 610 689 568 718 q 679 615 653 660 q 705 510 705 570 q 677 435 705 469 q 599 400 649 400 q 525 426 555 400 q 494 496 494 452 q 526 564 494 540 q 599 589 557 589 q 535 648 576 625 q 441 671 494 671 q 310 628 362 671 q 231 516 257 585 q 204 372 204 448 q 264 166 204 241 q 432 92 325 92 q 532 119 488 92 q 606 185 577 147 q 644 252 635 222 l 721 227 q 612 48 695 115 q 401 -18 528 -18 m 232 818 l 212 844 q 298 914 249 876 q 397 990 348 953 q 481 1053 446 1027 l 534 1091 l 603 997 q 533 949 583 977 q 421 895 482 922 q 309 848 361 868 l 232 818 z "},"č":{"ha":758,"x_min":50,"x_max":721,"o":"m 401 -18 q 217 30 296 -18 q 94 161 138 78 q 50 350 50 245 q 93 548 50 458 q 218 693 136 638 q 418 747 300 747 q 517 733 467 747 q 610 689 568 718 q 679 615 653 660 q 705 510 705 570 q 677 435 705 469 q 599 400 649 400 q 525 426 555 400 q 494 496 494 452 q 526 564 494 540 q 599 589 557 589 q 535 648 576 625 q 441 671 494 671 q 310 628 362 671 q 231 516 257 585 q 204 372 204 448 q 264 166 204 241 q 432 92 325 92 q 532 119 488 92 q 606 185 577 147 q 644 252 635 222 l 721 227 q 612 48 695 115 q 401 -18 528 -18 m 418 817 l 195 1059 l 262 1120 q 418 935 366 982 q 457 975 434 949 q 504 1030 480 1001 q 545 1082 528 1059 l 572 1118 l 639 1055 l 418 817 z "},"ç":{"ha":758,"x_min":50,"x_max":721,"o":"m 401 -18 q 217 30 296 -18 q 94 161 138 78 q 50 350 50 245 q 93 548 50 458 q 218 693 136 638 q 418 747 300 747 q 517 733 467 747 q 610 689 568 718 q 679 615 653 660 q 705 510 705 570 q 677 435 705 469 q 599 400 649 400 q 525 426 555 400 q 494 496 494 452 q 526 564 494 540 q 599 589 557 589 q 535 648 576 625 q 441 671 494 671 q 310 628 362 671 q 231 516 257 585 q 204 372 204 448 q 264 166 204 241 q 432 92 325 92 q 532 119 488 92 q 606 185 577 147 q 644 252 635 222 l 721 227 q 612 48 695 115 q 401 -18 528 -18 m 297 -301 l 277 -253 q 347 -234 319 -245 q 376 -208 376 -222 q 345 -162 376 -194 q 312 -114 312 -130 q 331 -61 312 -87 q 383 -18 351 -35 q 454 0 415 0 l 480 0 l 480 -187 q 461 -232 480 -212 q 416 -265 442 -253 q 362 -286 389 -277 q 316 -298 335 -294 l 297 -301 z "},"ĉ":{"ha":758,"x_min":50,"x_max":721,"o":"m 401 -18 q 217 30 296 -18 q 94 161 138 78 q 50 350 50 245 q 93 548 50 458 q 218 693 136 638 q 418 747 300 747 q 517 733 467 747 q 610 689 568 718 q 679 615 653 660 q 705 510 705 570 q 677 435 705 469 q 599 400 649 400 q 525 426 555 400 q 494 496 494 452 q 526 564 494 540 q 599 589 557 589 q 535 648 576 625 q 441 671 494 671 q 310 628 362 671 q 231 516 257 585 q 204 372 204 448 q 264 166 204 241 q 432 92 325 92 q 532 119 488 92 q 606 185 577 147 q 644 252 635 222 l 721 227 q 612 48 695 115 q 401 -18 528 -18 m 561 818 q 406 1003 457 956 q 367 963 390 989 q 320 908 344 937 q 278 855 296 879 l 252 821 l 184 883 l 406 1121 l 628 879 l 561 818 z "},"ċ":{"ha":758,"x_min":50,"x_max":721,"o":"m 401 -18 q 217 30 296 -18 q 94 161 138 78 q 50 350 50 245 q 93 548 50 458 q 218 693 136 638 q 418 747 300 747 q 517 733 467 747 q 610 689 568 718 q 679 615 653 660 q 705 510 705 570 q 677 435 705 469 q 599 400 649 400 q 525 426 555 400 q 494 496 494 452 q 526 564 494 540 q 599 589 557 589 q 535 648 576 625 q 441 671 494 671 q 310 628 362 671 q 231 516 257 585 q 204 372 204 448 q 264 166 204 241 q 432 92 325 92 q 532 119 488 92 q 606 185 577 147 q 644 252 635 222 l 721 227 q 612 48 695 115 q 401 -18 528 -18 m 406 821 q 335 850 364 821 q 305 921 305 880 q 335 992 305 963 q 406 1022 364 1022 q 476 992 446 1022 q 507 921 507 962 q 476 850 507 880 q 406 821 446 821 z "},"d":{"ha":838,"x_min":54,"x_max":831,"o":"m 353 -18 q 196 30 263 -18 q 92 163 129 77 q 54 364 54 250 q 92 566 54 479 q 199 700 130 652 q 363 747 268 747 q 474 718 419 747 q 562 639 528 689 l 562 937 l 403 937 l 403 1021 l 708 1021 l 708 76 l 831 76 l 831 0 l 590 0 l 564 115 q 470 16 529 51 q 353 -18 412 -18 m 382 68 q 480 107 437 68 q 548 215 523 146 q 572 372 572 284 q 562 474 572 422 q 530 571 552 526 q 473 643 508 616 q 387 671 437 671 q 302 642 336 671 q 247 566 267 613 q 218 465 227 519 q 210 361 210 411 q 219 259 210 311 q 250 164 229 208 q 303 94 271 121 q 382 68 336 68 z "},"ð":{"ha":844,"x_min":83,"x_max":787,"o":"m 422 -14 q 292 7 351 -14 q 196 63 234 28 q 132 144 158 98 q 95 240 106 191 q 83 340 83 290 q 165 581 83 477 q 270 660 205 631 q 415 689 334 689 q 524 667 483 689 q 585 625 559 648 q 598 614 593 618 q 604 608 603 610 q 602 624 604 615 q 597 644 600 633 q 582 690 594 659 q 552 757 570 721 q 511 821 534 793 l 371 755 l 347 812 l 467 869 q 256 947 378 947 q 180 940 231 947 l 167 1014 q 306 1031 241 1031 q 590 927 473 1031 l 764 1008 l 787 951 l 635 880 q 736 686 702 800 q 771 439 771 572 q 753 262 771 340 q 705 133 736 184 q 629 48 673 81 q 534 1 585 15 q 422 -14 483 -14 m 427 71 q 573 153 528 71 q 619 406 619 236 q 567 547 619 498 q 422 596 515 596 q 328 560 370 596 q 263 464 287 524 q 239 332 239 404 q 257 201 239 258 q 319 107 275 144 q 427 71 363 71 z "},"ď":{"ha":838,"x_min":54,"x_max":1011,"o":"m 353 -18 q 196 30 263 -18 q 92 163 129 77 q 54 364 54 250 q 92 566 54 479 q 199 700 130 652 q 363 747 268 747 q 474 718 419 747 q 562 639 528 689 l 562 937 l 403 937 l 403 1021 l 708 1021 l 708 76 l 831 76 l 831 0 l 590 0 l 564 115 q 470 16 529 51 q 353 -18 412 -18 m 382 68 q 480 107 437 68 q 548 215 523 146 q 572 372 572 284 q 562 474 572 422 q 530 571 552 526 q 473 643 508 616 q 387 671 437 671 q 302 642 336 671 q 247 566 267 613 q 218 465 227 519 q 210 361 210 411 q 219 259 210 311 q 250 164 229 208 q 303 94 271 121 q 382 68 336 68 m 881 671 l 847 724 q 907 774 880 743 q 935 831 935 804 q 929 850 935 842 q 872 833 903 833 q 809 861 837 833 q 782 924 782 889 q 812 991 782 962 q 888 1021 843 1021 q 972 984 933 1021 q 1011 879 1011 947 q 979 770 1011 827 q 881 671 947 713 z "},"đ":{"ha":838,"x_min":54,"x_max":831,"o":"m 353 -18 q 196 30 263 -18 q 92 163 129 77 q 54 364 54 250 q 92 566 54 479 q 199 700 130 652 q 363 747 268 747 q 474 718 419 747 q 562 639 528 689 l 562 802 l 367 802 l 367 867 l 562 867 l 562 937 l 403 937 l 403 1021 l 708 1021 l 708 867 l 817 867 l 817 802 l 708 802 l 708 78 l 831 78 l 831 0 l 590 0 l 564 115 q 470 16 529 51 q 353 -18 412 -18 m 382 68 q 480 107 437 68 q 548 215 523 146 q 572 372 572 284 q 529 573 572 486 q 471 644 507 617 q 387 671 434 671 q 306 644 341 671 q 250 571 270 617 q 219 472 229 526 q 210 361 210 418 q 227 220 210 285 q 286 112 245 156 q 382 68 326 68 z "},"ǳ":{"ha":1579,"x_min":54,"x_max":1523,"o":"m 353 -18 q 196 30 263 -18 q 92 163 129 77 q 54 364 54 250 q 92 566 54 479 q 199 700 130 652 q 363 747 268 747 q 474 718 419 747 q 562 639 528 689 l 562 937 l 403 937 l 403 1021 l 708 1021 l 708 76 l 831 76 l 831 0 l 590 0 l 564 115 q 470 16 529 51 q 353 -18 412 -18 m 382 68 q 480 107 437 68 q 548 215 523 146 q 572 372 572 284 q 562 474 572 422 q 530 571 552 526 q 473 643 508 616 q 387 671 437 671 q 302 642 336 671 q 247 566 267 613 q 218 465 227 519 q 210 361 210 411 q 219 259 210 311 q 250 164 229 208 q 303 94 271 121 q 382 68 336 68 m 924 0 l 913 107 l 1345 652 l 1030 652 l 1030 465 l 919 465 l 919 728 l 1476 728 l 1495 627 l 1058 76 l 1412 76 l 1412 283 l 1523 283 l 1523 0 l 924 0 z "},"ǆ":{"ha":1579,"x_min":54,"x_max":1523,"o":"m 353 -18 q 196 30 263 -18 q 92 163 129 77 q 54 364 54 250 q 92 566 54 479 q 199 700 130 652 q 363 747 268 747 q 474 718 419 747 q 562 639 528 689 l 562 937 l 403 937 l 403 1021 l 708 1021 l 708 76 l 831 76 l 831 0 l 590 0 l 564 115 q 470 16 529 51 q 353 -18 412 -18 m 382 68 q 480 107 437 68 q 548 215 523 146 q 572 372 572 284 q 562 474 572 422 q 530 571 552 526 q 473 643 508 616 q 387 671 437 671 q 302 642 336 671 q 247 566 267 613 q 218 465 227 519 q 210 361 210 411 q 219 259 210 311 q 250 164 229 208 q 303 94 271 121 q 382 68 336 68 m 924 0 l 913 107 l 1345 652 l 1030 652 l 1030 465 l 919 465 l 919 728 l 1476 728 l 1495 627 l 1058 76 l 1412 76 l 1412 283 l 1523 283 l 1523 0 l 924 0 m 1227 817 l 1005 1059 l 1072 1120 q 1227 935 1176 982 q 1267 975 1244 949 q 1314 1030 1290 1001 q 1355 1082 1337 1059 l 1381 1118 l 1449 1055 l 1227 817 z "},"e":{"ha":780,"x_min":50,"x_max":728,"o":"m 404 -18 q 253 13 321 -18 q 141 98 185 45 q 50 355 50 208 q 64 473 50 416 q 108 581 79 531 q 178 668 137 630 q 275 726 218 705 q 396 747 330 747 q 629 652 538 747 q 701 534 674 606 q 728 374 727 463 l 205 374 l 205 368 q 256 170 205 250 q 322 106 281 130 q 418 83 364 83 q 551 127 489 83 q 635 252 613 172 l 714 227 q 606 48 688 115 q 404 -18 525 -18 m 210 447 l 579 447 q 525 606 576 545 q 400 667 474 667 q 272 606 326 667 q 210 447 218 545 z "},"é":{"ha":780,"x_min":50,"x_max":728,"o":"m 404 -18 q 253 13 321 -18 q 141 98 185 45 q 50 355 50 208 q 64 473 50 416 q 108 581 79 531 q 178 668 137 630 q 275 726 218 705 q 396 747 330 747 q 629 652 538 747 q 701 534 674 606 q 728 374 727 463 l 205 374 l 205 368 q 256 170 205 250 q 322 106 281 130 q 418 83 364 83 q 551 127 489 83 q 635 252 613 172 l 714 227 q 606 48 688 115 q 404 -18 525 -18 m 210 447 l 579 447 q 525 606 576 545 q 400 667 474 667 q 272 606 326 667 q 210 447 218 545 m 222 818 l 202 844 q 288 914 239 876 q 387 990 338 953 q 471 1053 436 1027 l 524 1091 l 593 997 q 523 949 573 977 q 411 895 472 922 q 299 848 351 868 l 222 818 z "},"ĕ":{"ha":780,"x_min":50,"x_max":728,"o":"m 404 -18 q 253 13 321 -18 q 141 98 185 45 q 50 355 50 208 q 64 473 50 416 q 108 581 79 531 q 178 668 137 630 q 275 726 218 705 q 396 747 330 747 q 629 652 538 747 q 701 534 674 606 q 728 374 727 463 l 205 374 l 205 368 q 256 170 205 250 q 322 106 281 130 q 418 83 364 83 q 551 127 489 83 q 635 252 613 172 l 714 227 q 606 48 688 115 q 404 -18 525 -18 m 210 447 l 579 447 q 525 606 576 545 q 400 667 474 667 q 272 606 326 667 q 210 447 218 545 m 397 818 q 326 834 357 818 q 274 876 294 850 q 233 985 236 926 l 320 985 q 343 922 321 946 q 395 899 366 899 q 447 922 424 899 q 471 982 469 945 l 559 982 q 519 876 555 927 q 468 834 500 851 q 397 818 436 818 z "},"ě":{"ha":780,"x_min":50,"x_max":728,"o":"m 404 -18 q 253 13 321 -18 q 141 98 185 45 q 50 355 50 208 q 64 473 50 416 q 108 581 79 531 q 178 668 137 630 q 275 726 218 705 q 396 747 330 747 q 629 652 538 747 q 701 534 674 606 q 728 374 727 463 l 205 374 l 205 368 q 256 170 205 250 q 322 106 281 130 q 418 83 364 83 q 551 127 489 83 q 635 252 613 172 l 714 227 q 606 48 688 115 q 404 -18 525 -18 m 210 447 l 579 447 q 525 606 576 545 q 400 667 474 667 q 272 606 326 667 q 210 447 218 545 m 408 817 l 185 1059 l 252 1120 q 408 935 356 982 q 447 975 424 949 q 494 1030 470 1001 q 535 1082 517 1059 l 562 1118 l 629 1055 l 408 817 z "},"ê":{"ha":780,"x_min":50,"x_max":728,"o":"m 404 -18 q 253 13 321 -18 q 141 98 185 45 q 50 355 50 208 q 64 473 50 416 q 108 581 79 531 q 178 668 137 630 q 275 726 218 705 q 396 747 330 747 q 629 652 538 747 q 701 534 674 606 q 728 374 727 463 l 205 374 l 205 368 q 256 170 205 250 q 322 106 281 130 q 418 83 364 83 q 551 127 489 83 q 635 252 613 172 l 714 227 q 606 48 688 115 q 404 -18 525 -18 m 210 447 l 579 447 q 525 606 576 545 q 400 667 474 667 q 272 606 326 667 q 210 447 218 545 m 551 818 q 395 1003 447 956 q 357 963 380 989 q 310 908 334 937 q 268 855 286 879 l 241 821 l 174 883 l 395 1121 l 618 879 l 551 818 z "},"ȅ":{"ha":780,"x_min":7,"x_max":728,"o":"m 404 -18 q 253 13 321 -18 q 141 98 185 45 q 50 355 50 208 q 64 473 50 416 q 108 581 79 531 q 178 668 137 630 q 275 726 218 705 q 396 747 330 747 q 629 652 538 747 q 701 534 674 606 q 728 374 727 463 l 205 374 l 205 368 q 256 170 205 250 q 322 106 281 130 q 418 83 364 83 q 551 127 489 83 q 635 252 613 172 l 714 227 q 606 48 688 115 q 404 -18 525 -18 m 210 447 l 579 447 q 525 606 576 545 q 400 667 474 667 q 272 606 326 667 q 210 447 218 545 m 614 818 q 580 836 600 825 q 536 859 560 846 q 474 892 513 871 q 395 939 436 913 q 320 987 354 964 q 271 1025 286 1010 l 340 1119 q 499 966 425 1035 q 634 844 572 897 l 614 818 m 351 818 q 316 836 336 825 q 273 859 296 846 q 211 892 249 871 q 131 939 172 913 q 56 987 90 964 q 7 1025 22 1010 l 75 1119 q 370 844 248 950 l 351 818 z "},"ë":{"ha":780,"x_min":50,"x_max":728,"o":"m 404 -18 q 253 13 321 -18 q 141 98 185 45 q 50 355 50 208 q 64 473 50 416 q 108 581 79 531 q 178 668 137 630 q 275 726 218 705 q 396 747 330 747 q 629 652 538 747 q 701 534 674 606 q 728 374 727 463 l 205 374 l 205 368 q 256 170 205 250 q 322 106 281 130 q 418 83 364 83 q 551 127 489 83 q 635 252 613 172 l 714 227 q 606 48 688 115 q 404 -18 525 -18 m 210 447 l 579 447 q 525 606 576 545 q 400 667 474 667 q 272 606 326 667 q 210 447 218 545 m 557 818 q 491 845 518 818 q 464 911 464 873 q 491 977 464 949 q 557 1005 518 1005 q 623 977 595 1005 q 652 911 652 949 q 623 846 652 873 q 557 818 595 818 m 235 818 q 170 845 197 818 q 142 911 142 873 q 170 977 142 949 q 235 1005 197 1005 q 301 977 273 1005 q 328 911 328 949 q 300 846 328 873 q 235 818 273 818 z "},"ė":{"ha":780,"x_min":50,"x_max":728,"o":"m 404 -18 q 253 13 321 -18 q 141 98 185 45 q 50 355 50 208 q 64 473 50 416 q 108 581 79 531 q 178 668 137 630 q 275 726 218 705 q 396 747 330 747 q 629 652 538 747 q 701 534 674 606 q 728 374 727 463 l 205 374 l 205 368 q 256 170 205 250 q 322 106 281 130 q 418 83 364 83 q 551 127 489 83 q 635 252 613 172 l 714 227 q 606 48 688 115 q 404 -18 525 -18 m 210 447 l 579 447 q 525 606 576 545 q 400 667 474 667 q 272 606 326 667 q 210 447 218 545 m 395 821 q 325 850 354 821 q 295 921 295 880 q 325 992 295 963 q 395 1022 354 1022 q 466 992 436 1022 q 496 921 496 962 q 466 850 496 880 q 395 821 436 821 z "},"è":{"ha":780,"x_min":50,"x_max":728,"o":"m 404 -18 q 253 13 321 -18 q 141 98 185 45 q 50 355 50 208 q 64 473 50 416 q 108 581 79 531 q 178 668 137 630 q 275 726 218 705 q 396 747 330 747 q 629 652 538 747 q 701 534 674 606 q 728 374 727 463 l 205 374 l 205 368 q 256 170 205 250 q 322 106 281 130 q 418 83 364 83 q 551 127 489 83 q 635 252 613 172 l 714 227 q 606 48 688 115 q 404 -18 525 -18 m 210 447 l 579 447 q 525 606 576 545 q 400 667 474 667 q 272 606 326 667 q 210 447 218 545 m 573 818 q 559 824 567 821 q 540 831 551 827 q 495 848 526 836 q 428 876 465 861 q 361 905 392 891 q 268 951 315 925 q 202 997 221 977 l 271 1091 q 450 959 370 1021 q 593 844 531 897 l 573 818 z "},"ȇ":{"ha":780,"x_min":50,"x_max":728,"o":"m 404 -18 q 253 13 321 -18 q 141 98 185 45 q 50 355 50 208 q 64 473 50 416 q 108 581 79 531 q 178 668 137 630 q 275 726 218 705 q 396 747 330 747 q 629 652 538 747 q 701 534 674 606 q 728 374 727 463 l 205 374 l 205 368 q 256 170 205 250 q 322 106 281 130 q 418 83 364 83 q 551 127 489 83 q 635 252 613 172 l 714 227 q 606 48 688 115 q 404 -18 525 -18 m 210 447 l 579 447 q 525 606 576 545 q 400 667 474 667 q 272 606 326 667 q 210 447 218 545 m 471 818 q 448 880 471 857 q 396 904 426 904 q 345 881 368 904 q 320 821 322 858 l 233 821 q 273 927 236 876 q 323 969 292 953 q 395 985 355 985 q 467 969 434 985 q 518 927 499 953 q 548 873 538 901 q 559 818 557 845 l 471 818 z "},"ē":{"ha":780,"x_min":50,"x_max":728,"o":"m 404 -18 q 253 13 321 -18 q 141 98 185 45 q 50 355 50 208 q 64 473 50 416 q 108 581 79 531 q 178 668 137 630 q 275 726 218 705 q 396 747 330 747 q 629 652 538 747 q 701 534 674 606 q 728 374 727 463 l 205 374 l 205 368 q 256 170 205 250 q 322 106 281 130 q 418 83 364 83 q 551 127 489 83 q 635 252 613 172 l 714 227 q 606 48 688 115 q 404 -18 525 -18 m 210 447 l 579 447 q 525 606 576 545 q 400 667 474 667 q 272 606 326 667 q 210 447 218 545 m 199 848 l 199 942 l 593 942 l 593 848 l 199 848 z "},"ę":{"ha":780,"x_min":50,"x_max":728,"o":"m 404 -18 q 253 13 321 -18 q 141 98 185 45 q 50 355 50 208 q 64 473 50 416 q 108 581 79 531 q 178 668 137 630 q 275 726 218 705 q 396 747 330 747 q 629 652 538 747 q 701 534 674 606 q 728 374 727 463 l 205 374 l 205 368 q 256 170 205 250 q 322 106 281 130 q 418 83 364 83 q 551 127 489 83 q 635 252 613 172 l 714 227 q 606 48 688 115 q 404 -18 525 -18 m 210 447 l 579 447 q 525 606 576 545 q 400 667 474 667 q 272 606 326 667 q 210 447 218 545 m 497 -261 q 356 -218 410 -261 q 301 -118 301 -174 q 321 -56 301 -83 q 374 -12 341 -28 q 517 21 440 21 l 517 0 q 436 -33 463 -9 q 410 -83 410 -56 q 432 -137 410 -115 q 515 -167 455 -159 l 497 -261 z "},"f":{"ha":533,"x_min":35,"x_max":654,"o":"m 35 0 l 35 76 l 167 76 l 167 652 l 35 652 l 35 728 l 167 728 q 225 990 167 906 q 422 1074 283 1074 q 593 1029 532 1074 q 654 928 654 985 q 625 843 654 874 q 553 811 596 811 q 489 837 516 811 q 461 903 461 863 q 482 952 461 927 q 536 986 503 977 q 495 1008 522 1000 q 443 1017 468 1017 q 344 975 380 1017 q 309 843 309 932 l 309 728 l 530 728 l 525 652 l 313 652 l 313 76 l 482 76 l 482 0 l 35 0 z "},"g":{"ha":812,"x_min":56,"x_max":806,"o":"m 374 -363 q 254 -347 313 -363 q 158 -294 196 -330 q 119 -200 119 -258 q 153 -121 119 -148 q 233 -94 186 -94 q 298 -121 271 -94 q 325 -189 325 -148 q 307 -242 325 -216 q 268 -277 288 -269 q 351 -292 311 -292 q 510 -211 458 -292 q 562 16 562 -130 l 562 136 q 482 26 541 71 q 350 -18 424 -18 q 221 13 277 -18 q 130 99 166 45 q 74 220 93 153 q 56 361 56 288 q 75 503 56 434 q 131 627 94 572 q 225 715 169 682 q 354 747 281 747 q 438 729 395 747 q 514 677 480 711 q 562 597 548 644 l 579 728 l 806 728 l 806 647 l 708 647 l 708 35 q 670 -173 708 -83 q 557 -313 631 -262 q 374 -363 483 -363 m 379 68 q 486 111 445 68 q 547 218 528 154 q 567 347 567 283 q 516 571 567 486 q 382 657 466 657 q 300 631 334 657 q 245 562 267 604 q 214 470 224 519 q 204 374 204 420 q 213 269 204 323 q 241 170 221 216 q 294 96 260 124 q 379 68 328 68 z "},"ǵ":{"ha":812,"x_min":56,"x_max":806,"o":"m 374 -363 q 254 -347 313 -363 q 158 -294 196 -330 q 119 -200 119 -258 q 153 -121 119 -148 q 233 -94 186 -94 q 298 -121 271 -94 q 325 -189 325 -148 q 307 -242 325 -216 q 268 -277 288 -269 q 351 -292 311 -292 q 510 -211 458 -292 q 562 16 562 -130 l 562 136 q 482 26 541 71 q 350 -18 424 -18 q 221 13 277 -18 q 130 99 166 45 q 74 220 93 153 q 56 361 56 288 q 75 503 56 434 q 131 627 94 572 q 225 715 169 682 q 354 747 281 747 q 438 729 395 747 q 514 677 480 711 q 562 597 548 644 l 579 728 l 806 728 l 806 647 l 708 647 l 708 35 q 670 -173 708 -83 q 557 -313 631 -262 q 374 -363 483 -363 m 379 68 q 486 111 445 68 q 547 218 528 154 q 567 347 567 283 q 516 571 567 486 q 382 657 466 657 q 300 631 334 657 q 245 562 267 604 q 214 470 224 519 q 204 374 204 420 q 213 269 204 323 q 241 170 221 216 q 294 96 260 124 q 379 68 328 68 m 226 818 l 206 844 q 292 914 243 876 q 391 990 342 953 q 475 1053 440 1027 l 528 1091 l 597 997 q 527 949 577 977 q 415 895 476 922 q 303 848 355 868 l 226 818 z "},"ğ":{"ha":812,"x_min":56,"x_max":806,"o":"m 374 -363 q 254 -347 313 -363 q 158 -294 196 -330 q 119 -200 119 -258 q 153 -121 119 -148 q 233 -94 186 -94 q 298 -121 271 -94 q 325 -189 325 -148 q 307 -242 325 -216 q 268 -277 288 -269 q 351 -292 311 -292 q 510 -211 458 -292 q 562 16 562 -130 l 562 136 q 482 26 541 71 q 350 -18 424 -18 q 221 13 277 -18 q 130 99 166 45 q 74 220 93 153 q 56 361 56 288 q 75 503 56 434 q 131 627 94 572 q 225 715 169 682 q 354 747 281 747 q 438 729 395 747 q 514 677 480 711 q 562 597 548 644 l 579 728 l 806 728 l 806 647 l 708 647 l 708 35 q 670 -173 708 -83 q 557 -313 631 -262 q 374 -363 483 -363 m 379 68 q 486 111 445 68 q 547 218 528 154 q 567 347 567 283 q 516 571 567 486 q 382 657 466 657 q 300 631 334 657 q 245 562 267 604 q 214 470 224 519 q 204 374 204 420 q 213 269 204 323 q 241 170 221 216 q 294 96 260 124 q 379 68 328 68 m 401 818 q 330 834 361 818 q 278 876 298 850 q 237 985 240 926 l 324 985 q 347 922 325 946 q 399 899 370 899 q 451 922 428 899 q 475 982 473 945 l 563 982 q 523 876 559 927 q 472 834 504 851 q 401 818 440 818 z "},"ĝ":{"ha":812,"x_min":56,"x_max":806,"o":"m 374 -363 q 254 -347 313 -363 q 158 -294 196 -330 q 119 -200 119 -258 q 153 -121 119 -148 q 233 -94 186 -94 q 298 -121 271 -94 q 325 -189 325 -148 q 307 -242 325 -216 q 268 -277 288 -269 q 351 -292 311 -292 q 510 -211 458 -292 q 562 16 562 -130 l 562 136 q 482 26 541 71 q 350 -18 424 -18 q 221 13 277 -18 q 130 99 166 45 q 74 220 93 153 q 56 361 56 288 q 75 503 56 434 q 131 627 94 572 q 225 715 169 682 q 354 747 281 747 q 438 729 395 747 q 514 677 480 711 q 562 597 548 644 l 579 728 l 806 728 l 806 647 l 708 647 l 708 35 q 670 -173 708 -83 q 557 -313 631 -262 q 374 -363 483 -363 m 379 68 q 486 111 445 68 q 547 218 528 154 q 567 347 567 283 q 516 571 567 486 q 382 657 466 657 q 300 631 334 657 q 245 562 267 604 q 214 470 224 519 q 204 374 204 420 q 213 269 204 323 q 241 170 221 216 q 294 96 260 124 q 379 68 328 68 m 555 818 q 399 1003 451 956 q 361 963 384 989 q 314 908 338 937 q 272 855 290 879 l 245 821 l 178 883 l 399 1121 l 622 879 l 555 818 z "},"ģ":{"ha":812,"x_min":56,"x_max":806,"o":"m 374 -363 q 254 -347 313 -363 q 158 -294 196 -330 q 119 -200 119 -258 q 153 -121 119 -148 q 233 -94 186 -94 q 298 -121 271 -94 q 325 -189 325 -148 q 307 -242 325 -216 q 268 -277 288 -269 q 351 -292 311 -292 q 510 -211 458 -292 q 562 16 562 -130 l 562 136 q 482 26 541 71 q 350 -18 424 -18 q 221 13 277 -18 q 130 99 166 45 q 74 220 93 153 q 56 361 56 288 q 75 503 56 434 q 131 627 94 572 q 225 715 169 682 q 354 747 281 747 q 438 729 395 747 q 514 677 480 711 q 562 597 548 644 l 579 728 l 806 728 l 806 647 l 708 647 l 708 35 q 670 -173 708 -83 q 557 -313 631 -262 q 374 -363 483 -363 m 379 68 q 486 111 445 68 q 547 218 528 154 q 567 347 567 283 q 516 571 567 486 q 382 657 466 657 q 300 631 334 657 q 245 562 267 604 q 214 470 224 519 q 204 374 204 420 q 213 269 204 323 q 241 170 221 216 q 294 96 260 124 q 379 68 328 68 m 416 1162 l 450 1109 q 390 1059 417 1090 q 362 1002 362 1029 q 368 983 362 991 q 425 1000 394 1000 q 487 972 460 1000 q 515 909 515 944 q 483 842 515 871 q 413 812 450 812 q 325 849 365 812 q 286 954 286 886 q 315 1060 286 1006 q 408 1157 345 1114 q 416 1162 411 1158 z "},"ġ":{"ha":812,"x_min":56,"x_max":806,"o":"m 374 -363 q 254 -347 313 -363 q 158 -294 196 -330 q 119 -200 119 -258 q 153 -121 119 -148 q 233 -94 186 -94 q 298 -121 271 -94 q 325 -189 325 -148 q 307 -242 325 -216 q 268 -277 288 -269 q 351 -292 311 -292 q 510 -211 458 -292 q 562 16 562 -130 l 562 136 q 482 26 541 71 q 350 -18 424 -18 q 221 13 277 -18 q 130 99 166 45 q 74 220 93 153 q 56 361 56 288 q 75 503 56 434 q 131 627 94 572 q 225 715 169 682 q 354 747 281 747 q 438 729 395 747 q 514 677 480 711 q 562 597 548 644 l 579 728 l 806 728 l 806 647 l 708 647 l 708 35 q 670 -173 708 -83 q 557 -313 631 -262 q 374 -363 483 -363 m 379 68 q 486 111 445 68 q 547 218 528 154 q 567 347 567 283 q 516 571 567 486 q 382 657 466 657 q 300 631 334 657 q 245 562 267 604 q 214 470 224 519 q 204 374 204 420 q 213 269 204 323 q 241 170 221 216 q 294 96 260 124 q 379 68 328 68 m 399 821 q 329 850 358 821 q 299 921 299 880 q 329 992 299 963 q 399 1022 358 1022 q 470 992 440 1022 q 500 921 500 962 q 470 850 500 880 q 399 821 440 821 z "},"h":{"ha":919,"x_min":22,"x_max":909,"o":"m 31 0 l 31 76 l 155 76 l 155 937 l 22 937 l 22 1021 l 301 1021 l 301 599 q 369 687 327 652 q 454 734 412 722 q 539 747 494 747 q 593 743 568 747 q 652 724 618 739 q 708 682 684 708 q 747 606 731 656 q 764 490 764 557 l 764 76 l 909 76 l 909 0 l 486 0 l 486 76 l 618 76 l 618 496 q 588 613 618 574 q 510 652 558 652 q 438 632 475 652 q 371 581 401 613 q 321 502 340 549 q 301 406 301 456 l 301 76 l 433 76 l 433 0 l 31 0 z "},"ħ":{"ha":919,"x_min":22,"x_max":909,"o":"m 31 0 l 31 79 l 155 79 l 155 806 l 47 806 l 47 872 l 155 872 l 155 937 l 22 937 l 22 1021 l 301 1021 l 301 872 l 496 872 l 496 806 l 301 806 l 301 599 q 369 687 327 652 q 454 734 412 722 q 539 747 494 747 q 593 743 568 747 q 652 724 618 739 q 708 682 684 708 q 747 606 731 656 q 764 490 764 557 l 764 79 l 909 79 l 909 0 l 486 0 l 486 79 l 618 79 l 618 496 q 588 613 618 574 q 510 651 558 651 q 416 620 464 651 q 334 530 368 588 q 301 406 301 472 l 301 79 l 433 79 l 433 0 l 31 0 z "},"ĥ":{"ha":919,"x_min":22,"x_max":909,"o":"m 31 0 l 31 76 l 155 76 l 155 937 l 22 937 l 22 1021 l 301 1021 l 301 599 q 369 687 327 652 q 454 734 412 722 q 539 747 494 747 q 593 743 568 747 q 652 724 618 739 q 708 682 684 708 q 747 606 731 656 q 764 490 764 557 l 764 76 l 909 76 l 909 0 l 486 0 l 486 76 l 618 76 l 618 496 q 588 613 618 574 q 510 652 558 652 q 438 632 475 652 q 371 581 401 613 q 321 502 340 549 q 301 406 301 456 l 301 76 l 433 76 l 433 0 l 31 0 m 621 1090 q 465 1276 517 1229 q 427 1236 450 1262 q 380 1181 404 1210 q 338 1128 356 1152 l 311 1093 l 244 1156 l 465 1394 l 688 1152 l 621 1090 z "},"i":{"ha":455,"x_min":35,"x_max":446,"o":"m 36 0 l 36 79 l 167 79 l 167 652 l 35 652 l 35 728 l 313 728 l 313 79 l 446 79 l 446 0 l 36 0 m 229 857 q 158 886 187 857 q 128 957 128 916 q 158 1028 128 999 q 229 1058 187 1058 q 299 1028 269 1058 q 330 957 330 998 q 299 886 330 916 q 229 857 269 857 z "},"ı":{"ha":455,"x_min":35,"x_max":446,"o":"m 36 0 l 36 79 l 167 79 l 167 652 l 35 652 l 35 728 l 313 728 l 313 79 l 446 79 l 446 0 l 36 0 z "},"í":{"ha":455,"x_min":34,"x_max":446,"o":"m 36 0 l 36 79 l 167 79 l 167 652 l 35 652 l 35 728 l 313 728 l 313 79 l 446 79 l 446 0 l 36 0 m 54 818 l 34 844 q 120 914 71 876 q 219 990 170 953 q 303 1053 268 1027 l 356 1091 l 425 997 q 354 949 405 977 q 243 895 304 922 q 131 848 182 868 l 54 818 z "},"ĭ":{"ha":455,"x_min":35,"x_max":446,"o":"m 36 0 l 36 79 l 167 79 l 167 652 l 35 652 l 35 728 l 313 728 l 313 79 l 446 79 l 446 0 l 36 0 m 229 818 q 157 834 189 818 q 106 876 125 850 q 64 985 68 926 l 152 985 q 175 922 153 946 q 227 899 197 899 q 278 922 256 899 q 303 982 301 945 l 391 982 q 351 876 387 927 q 300 834 332 851 q 229 818 268 818 z "},"î":{"ha":455,"x_min":6,"x_max":450,"o":"m 36 0 l 36 79 l 167 79 l 167 652 l 35 652 l 35 728 l 313 728 l 313 79 l 446 79 l 446 0 l 36 0 m 382 818 q 227 1003 279 956 q 189 963 212 989 q 142 908 165 937 q 100 855 118 879 l 73 821 l 6 883 l 227 1121 l 450 879 l 382 818 z "},"ȉ":{"ha":455,"x_min":-161,"x_max":466,"o":"m 36 0 l 36 79 l 167 79 l 167 652 l 35 652 l 35 728 l 313 728 l 313 79 l 446 79 l 446 0 l 36 0 m 446 818 q 412 836 431 825 q 368 859 392 846 q 306 892 345 871 q 227 939 268 913 q 152 987 186 964 q 103 1025 118 1010 l 172 1119 q 331 966 257 1035 q 466 844 404 897 l 446 818 m 182 818 q 148 836 168 825 q 104 859 128 846 q 42 892 81 871 q -37 939 4 913 q -112 987 -78 964 q -161 1025 -146 1010 l -93 1119 q 202 844 79 950 l 182 818 z "},"ï":{"ha":455,"x_min":-26,"x_max":484,"o":"m 36 0 l 36 79 l 167 79 l 167 652 l 35 652 l 35 728 l 313 728 l 313 79 l 446 79 l 446 0 l 36 0 m 389 818 q 323 845 350 818 q 296 911 296 873 q 323 977 296 949 q 389 1005 350 1005 q 455 977 427 1005 q 484 911 484 949 q 455 846 484 873 q 389 818 427 818 m 67 818 q 1 845 28 818 q -26 911 -26 873 q 1 977 -26 949 q 67 1005 28 1005 q 133 977 105 1005 q 160 911 160 949 q 132 846 160 873 q 67 818 104 818 z "},"ì":{"ha":455,"x_min":34,"x_max":446,"o":"m 36 0 l 36 79 l 167 79 l 167 652 l 35 652 l 35 728 l 313 728 l 313 79 l 446 79 l 446 0 l 36 0 m 405 818 q 391 824 399 821 q 372 831 382 827 q 327 848 358 836 q 260 876 296 861 q 193 905 224 891 q 100 951 146 925 q 34 997 53 977 l 102 1091 q 282 959 201 1021 q 425 844 363 897 l 405 818 z "},"ȋ":{"ha":455,"x_min":35,"x_max":446,"o":"m 36 0 l 36 79 l 167 79 l 167 652 l 35 652 l 35 728 l 313 728 l 313 79 l 446 79 l 446 0 l 36 0 m 303 818 q 280 880 302 857 q 228 904 258 904 q 177 881 199 904 q 152 821 154 858 l 64 821 q 105 927 68 876 q 155 969 123 953 q 227 985 187 985 q 298 969 266 985 q 350 927 331 953 q 379 873 370 901 q 391 818 389 845 l 303 818 z "},"ĳ":{"ha":906,"x_min":35,"x_max":811,"o":"m 36 0 l 36 79 l 167 79 l 167 652 l 35 652 l 35 728 l 313 728 l 313 79 l 446 79 l 446 0 l 36 0 m 229 857 q 158 886 187 857 q 128 957 128 916 q 158 1028 128 999 q 229 1058 187 1058 q 299 1028 269 1058 q 330 957 330 998 q 299 886 330 916 q 229 857 269 857 m 564 -319 q 411 -280 463 -319 q 358 -172 358 -241 q 388 -102 358 -127 q 456 -77 417 -77 q 512 -97 489 -77 q 536 -157 536 -117 q 496 -237 536 -215 q 545 -245 519 -245 q 632 -198 608 -245 q 656 -82 656 -150 l 656 648 l 491 648 l 491 728 l 802 728 l 802 -61 q 738 -252 802 -184 q 569 -319 673 -319 l 564 -319 m 710 856 q 639 886 669 856 q 610 956 610 916 q 639 1028 610 998 q 710 1057 669 1057 q 781 1027 751 1057 q 811 956 811 998 q 781 886 811 916 q 710 856 751 856 z "},"ī":{"ha":455,"x_min":31,"x_max":446,"o":"m 36 0 l 36 79 l 167 79 l 167 652 l 35 652 l 35 728 l 313 728 l 313 79 l 446 79 l 446 0 l 36 0 m 31 848 l 31 942 l 425 942 l 425 848 l 31 848 z "},"į":{"ha":455,"x_min":35,"x_max":446,"o":"m 36 0 l 36 79 l 167 79 l 167 652 l 35 652 l 35 728 l 313 728 l 313 79 l 446 79 l 446 0 l 36 0 m 227 856 q 156 886 186 856 q 127 956 127 916 q 156 1028 127 998 q 227 1057 186 1057 q 298 1027 268 1057 q 328 956 328 998 q 298 886 328 916 q 227 856 268 856 m 297 -261 q 156 -218 210 -261 q 101 -118 101 -174 q 121 -56 101 -83 q 174 -12 141 -28 q 317 21 240 21 l 317 0 q 236 -33 263 -9 q 210 -83 210 -56 q 232 -137 210 -115 q 315 -167 255 -159 l 297 -261 z "},"ĩ":{"ha":455,"x_min":-5,"x_max":460,"o":"m 36 0 l 36 79 l 167 79 l 167 652 l 35 652 l 35 728 l 313 728 l 313 79 l 446 79 l 446 0 l 36 0 m 109 838 q 21 876 47 838 q -5 1003 -5 913 l 55 1003 q 68 955 55 968 q 115 941 81 941 q 225 972 142 941 q 347 1004 309 1004 q 435 967 409 1004 q 460 840 460 930 l 401 840 q 388 888 401 874 q 341 902 375 902 q 231 870 314 902 q 109 838 147 838 z "},"j":{"ha":451,"x_min":-97,"x_max":356,"o":"m 109 -319 q -44 -280 8 -319 q -97 -172 -97 -241 q -67 -102 -97 -127 q 1 -77 -38 -77 q 57 -97 34 -77 q 81 -157 81 -117 q 41 -237 81 -215 q 90 -245 64 -245 q 177 -198 153 -245 q 201 -82 201 -150 l 201 648 l 36 648 l 36 728 l 347 728 l 347 -61 q 283 -252 347 -184 q 114 -319 218 -319 l 109 -319 m 255 856 q 184 886 214 856 q 155 956 155 916 q 184 1028 155 998 q 255 1057 214 1057 q 326 1027 296 1057 q 356 956 356 998 q 326 886 356 916 q 255 856 296 856 z "},"ȷ":{"ha":451,"x_min":-97,"x_max":347,"o":"m 109 -319 q -44 -280 8 -319 q -97 -172 -97 -241 q -67 -102 -97 -127 q 1 -77 -38 -77 q 57 -97 34 -77 q 81 -157 81 -117 q 41 -237 81 -215 q 90 -245 64 -245 q 177 -198 153 -245 q 201 -82 201 -150 l 201 648 l 36 648 l 36 728 l 347 728 l 347 -61 q 283 -252 347 -184 q 114 -319 218 -319 l 109 -319 z "},"ĵ":{"ha":451,"x_min":-97,"x_max":449,"o":"m 109 -319 q -44 -280 8 -319 q -97 -172 -97 -241 q -67 -102 -97 -127 q 1 -77 -38 -77 q 57 -97 34 -77 q 81 -157 81 -117 q 41 -237 81 -215 q 90 -245 64 -245 q 177 -198 153 -245 q 201 -82 201 -150 l 201 648 l 36 648 l 36 728 l 347 728 l 347 -61 q 283 -252 347 -184 q 114 -319 218 -319 l 109 -319 m 382 818 q 227 1003 278 956 q 188 963 211 989 q 141 908 165 937 q 99 855 117 879 l 73 821 l 5 883 l 227 1121 l 449 879 l 382 818 z "},"k":{"ha":882,"x_min":16,"x_max":888,"o":"m 766 -14 q 642 24 694 -14 q 547 135 589 62 l 411 370 l 298 283 l 298 76 l 414 76 l 414 0 l 16 0 l 16 76 l 153 76 l 153 937 l 16 937 l 16 1021 l 298 1021 l 298 387 l 582 652 l 454 652 l 454 728 l 861 728 l 861 652 l 732 652 l 497 427 q 551 345 517 399 q 609 253 584 291 q 666 176 635 216 q 798 93 732 93 q 868 107 837 93 l 888 16 q 828 -8 854 -3 q 766 -14 802 -14 z "},"ķ":{"ha":882,"x_min":16,"x_max":888,"o":"m 766 -14 q 642 24 694 -14 q 547 135 589 62 l 411 370 l 298 283 l 298 76 l 414 76 l 414 0 l 16 0 l 16 76 l 153 76 l 153 937 l 16 937 l 16 1021 l 298 1021 l 298 387 l 582 652 l 454 652 l 454 728 l 861 728 l 861 652 l 732 652 l 497 427 q 551 345 517 399 q 609 253 584 291 q 666 176 635 216 q 798 93 732 93 q 868 107 837 93 l 888 16 q 828 -8 854 -3 q 766 -14 802 -14 m 429 -387 l 396 -382 q 398 -325 397 -356 q 399 -256 399 -293 q 398 -188 399 -218 q 397 -134 398 -158 l 396 -87 l 511 -87 q 504 -151 513 -109 q 480 -241 494 -193 q 451 -328 466 -289 l 429 -387 z "},"ĸ":{"ha":887,"x_min":31,"x_max":903,"o":"m 782 -14 q 659 24 710 -14 q 562 135 608 62 l 421 357 l 314 267 l 314 79 l 429 79 l 429 0 l 31 0 l 31 79 l 168 79 l 168 644 l 31 644 l 31 728 l 314 728 l 314 371 l 608 648 l 469 648 l 469 728 l 876 728 l 876 648 l 747 648 l 507 414 q 552 347 524 389 q 601 273 581 304 q 649 207 621 243 q 701 147 677 170 q 754 109 725 124 q 812 93 784 93 q 884 107 852 93 l 903 16 q 843 -8 869 -3 q 782 -14 817 -14 z "},"l":{"ha":480,"x_min":25,"x_max":468,"o":"m 25 0 l 25 76 l 176 76 l 176 937 l 25 937 l 25 1021 l 322 1021 l 322 76 l 468 76 l 468 0 l 25 0 z "},"ĺ":{"ha":480,"x_min":25,"x_max":477,"o":"m 25 0 l 25 76 l 176 76 l 176 937 l 25 937 l 25 1021 l 322 1021 l 322 76 l 468 76 l 468 0 l 25 0 m 106 1090 l 87 1116 q 173 1186 123 1147 q 272 1262 222 1225 q 356 1324 321 1299 l 409 1363 l 477 1269 q 407 1221 458 1249 q 296 1167 357 1194 q 184 1120 235 1140 l 106 1090 z "},"ľ":{"ha":480,"x_min":25,"x_max":625,"o":"m 25 0 l 25 76 l 176 76 l 176 937 l 25 937 l 25 1021 l 322 1021 l 322 76 l 468 76 l 468 0 l 25 0 m 495 671 l 461 724 q 521 774 494 744 q 549 831 549 805 q 543 850 549 843 q 486 834 517 834 q 424 862 451 834 q 396 924 396 890 q 427 992 396 962 q 503 1021 457 1021 q 586 984 547 1021 q 625 880 625 947 q 593 771 625 827 q 495 671 562 714 z "},"ļ":{"ha":480,"x_min":25,"x_max":468,"o":"m 25 0 l 25 76 l 176 76 l 176 937 l 25 937 l 25 1021 l 322 1021 l 322 76 l 468 76 l 468 0 l 25 0 m 242 -387 l 209 -382 q 211 -325 210 -356 q 212 -256 212 -293 q 211 -188 212 -218 q 210 -134 211 -158 l 209 -87 l 324 -87 q 316 -151 326 -109 q 293 -241 307 -193 q 264 -328 279 -289 l 242 -387 z "},"ŀ":{"ha":718,"x_min":25,"x_max":704,"o":"m 25 0 l 25 76 l 176 76 l 176 937 l 25 937 l 25 1021 l 322 1021 l 322 76 l 468 76 l 468 0 l 25 0 m 603 432 q 532 462 562 432 q 503 532 503 492 q 532 604 503 574 q 603 633 562 633 q 674 604 644 633 q 704 532 704 574 q 674 462 704 492 q 603 432 644 432 z "},"ǉ":{"ha":931,"x_min":25,"x_max":836,"o":"m 25 0 l 25 76 l 176 76 l 176 937 l 25 937 l 25 1021 l 322 1021 l 322 76 l 468 76 l 468 0 l 25 0 m 589 -319 q 436 -280 488 -319 q 383 -172 383 -241 q 413 -102 383 -127 q 481 -77 442 -77 q 537 -97 514 -77 q 561 -157 561 -117 q 522 -237 561 -215 q 570 -245 544 -245 q 657 -198 633 -245 q 682 -82 682 -150 l 682 648 l 516 648 l 516 728 l 827 728 l 827 -61 q 763 -252 827 -184 q 594 -319 699 -319 l 589 -319 m 735 856 q 664 886 694 856 q 635 956 635 916 q 664 1028 635 998 q 735 1057 694 1057 q 806 1027 776 1057 q 836 956 836 998 q 806 886 836 916 q 735 856 776 856 z "},"ł":{"ha":480,"x_min":25,"x_max":468,"o":"m 25 0 l 25 79 l 176 79 l 176 500 l 41 440 l 41 541 l 176 601 l 176 937 l 25 937 l 25 1021 l 322 1021 l 322 666 l 459 728 l 459 627 l 322 566 l 322 79 l 468 79 l 468 0 l 25 0 z "},"m":{"ha":1308,"x_min":33,"x_max":1299,"o":"m 33 0 l 33 76 l 165 76 l 165 652 l 33 652 l 33 728 l 290 739 l 307 591 q 398 709 334 670 q 536 747 463 747 q 668 710 625 747 q 732 603 711 673 q 823 713 765 678 q 949 747 880 747 q 1083 712 1034 747 q 1153 616 1132 676 q 1174 484 1174 557 l 1174 76 l 1299 76 l 1299 0 l 918 0 l 918 76 l 1028 76 l 1028 482 q 994 612 1028 570 q 899 654 959 654 q 787 610 827 654 q 746 496 746 565 l 746 76 l 863 76 l 863 0 l 484 0 l 484 76 l 600 76 l 600 482 q 566 612 600 570 q 471 654 531 654 q 402 640 431 654 q 356 601 373 625 q 319 500 326 558 q 311 397 311 441 l 311 76 l 428 76 l 428 0 l 33 0 z "},"n":{"ha":922,"x_min":33,"x_max":913,"o":"m 33 0 l 33 76 l 165 76 l 165 652 l 33 652 l 33 728 l 290 739 l 307 591 q 409 707 340 667 q 549 747 478 747 q 683 712 633 747 q 753 616 732 676 q 774 484 774 557 l 774 76 l 913 76 l 913 0 l 504 0 l 504 76 l 628 76 l 628 482 q 593 612 628 570 q 498 654 559 654 q 387 614 428 654 q 329 514 346 574 q 311 397 311 455 l 311 76 l 435 76 l 435 0 l 33 0 z "},"ń":{"ha":922,"x_min":33,"x_max":913,"o":"m 33 0 l 33 76 l 165 76 l 165 652 l 33 652 l 33 728 l 290 739 l 307 591 q 409 707 340 667 q 549 747 478 747 q 683 712 633 747 q 753 616 732 676 q 774 484 774 557 l 774 76 l 913 76 l 913 0 l 504 0 l 504 76 l 628 76 l 628 482 q 593 612 628 570 q 498 654 559 654 q 387 614 428 654 q 329 514 346 574 q 311 397 311 455 l 311 76 l 435 76 l 435 0 l 33 0 m 294 818 l 274 844 q 360 914 311 876 q 459 990 410 953 q 543 1053 508 1027 l 596 1091 l 665 997 q 594 949 645 977 q 483 895 544 922 q 371 848 422 868 l 294 818 z "},"ň":{"ha":922,"x_min":33,"x_max":913,"o":"m 33 0 l 33 76 l 165 76 l 165 652 l 33 652 l 33 728 l 290 739 l 307 591 q 409 707 340 667 q 549 747 478 747 q 683 712 633 747 q 753 616 732 676 q 774 484 774 557 l 774 76 l 913 76 l 913 0 l 504 0 l 504 76 l 628 76 l 628 482 q 593 612 628 570 q 498 654 559 654 q 387 614 428 654 q 329 514 346 574 q 311 397 311 455 l 311 76 l 435 76 l 435 0 l 33 0 m 479 817 l 257 1059 l 324 1120 q 479 935 428 982 q 519 975 496 949 q 566 1030 542 1001 q 607 1082 589 1059 l 633 1118 l 701 1055 l 479 817 z "},"ņ":{"ha":922,"x_min":33,"x_max":913,"o":"m 33 0 l 33 76 l 165 76 l 165 652 l 33 652 l 33 728 l 290 739 l 307 591 q 409 707 340 667 q 549 747 478 747 q 683 712 633 747 q 753 616 732 676 q 774 484 774 557 l 774 76 l 913 76 l 913 0 l 504 0 l 504 76 l 628 76 l 628 482 q 593 612 628 570 q 498 654 559 654 q 387 614 428 654 q 329 514 346 574 q 311 397 311 455 l 311 76 l 435 76 l 435 0 l 33 0 m 450 -387 l 416 -382 q 418 -325 418 -356 q 419 -256 419 -293 q 419 -188 419 -218 q 418 -134 418 -158 l 416 -87 l 532 -87 q 524 -151 533 -109 q 500 -241 515 -193 q 471 -328 486 -289 l 450 -387 z "},"ǌ":{"ha":1373,"x_min":33,"x_max":1278,"o":"m 33 0 l 33 76 l 165 76 l 165 652 l 33 652 l 33 728 l 290 739 l 307 591 q 409 707 340 667 q 549 747 478 747 q 683 712 633 747 q 753 616 732 676 q 774 484 774 557 l 774 76 l 913 76 l 913 0 l 504 0 l 504 76 l 628 76 l 628 482 q 593 612 628 570 q 498 654 559 654 q 387 614 428 654 q 329 514 346 574 q 311 397 311 455 l 311 76 l 435 76 l 435 0 l 33 0 m 1030 -319 q 877 -280 930 -319 q 825 -172 825 -241 q 854 -102 825 -127 q 923 -77 884 -77 q 979 -97 956 -77 q 1002 -157 1002 -117 q 963 -237 1002 -215 q 1012 -245 985 -245 q 1099 -198 1074 -245 q 1123 -82 1123 -150 l 1123 648 l 958 648 l 958 728 l 1269 728 l 1269 -61 q 1204 -252 1269 -184 q 1036 -319 1140 -319 l 1030 -319 m 1177 856 q 1106 886 1135 856 q 1076 956 1076 916 q 1106 1028 1076 998 q 1177 1057 1135 1057 q 1247 1027 1217 1057 q 1278 956 1278 998 q 1247 886 1278 916 q 1177 856 1217 856 z "},"ñ":{"ha":922,"x_min":33,"x_max":913,"o":"m 33 0 l 33 76 l 165 76 l 165 652 l 33 652 l 33 728 l 290 739 l 307 591 q 409 707 340 667 q 549 747 478 747 q 683 712 633 747 q 753 616 732 676 q 774 484 774 557 l 774 76 l 913 76 l 913 0 l 504 0 l 504 76 l 628 76 l 628 482 q 593 612 628 570 q 498 654 559 654 q 387 614 428 654 q 329 514 346 574 q 311 397 311 455 l 311 76 l 435 76 l 435 0 l 33 0 m 349 838 q 261 876 287 838 q 235 1003 235 913 l 295 1003 q 308 955 295 968 q 355 941 321 941 q 465 972 382 941 q 587 1004 549 1004 q 675 967 649 1004 q 701 840 701 930 l 641 840 q 628 888 641 874 q 581 902 615 902 q 471 870 554 902 q 349 838 387 838 z "},"ŋ":{"ha":869,"x_min":33,"x_max":774,"o":"m 628 482 q 593 612 628 570 q 498 654 559 654 q 387 614 428 654 q 329 514 346 574 q 311 397 311 455 l 311 76 l 435 76 l 435 0 l 33 0 l 33 76 l 165 76 l 165 652 l 33 652 l 33 728 l 290 739 l 307 591 q 409 707 340 667 q 549 747 478 747 q 683 712 633 747 q 753 616 732 676 q 774 484 774 557 l 774 -61 q 709 -252 774 -184 q 541 -319 645 -319 l 535 -319 q 382 -280 435 -319 q 330 -172 330 -241 q 359 -102 330 -127 q 428 -77 389 -77 q 484 -97 460 -77 q 507 -159 507 -118 q 497 -206 507 -188 q 468 -237 488 -224 q 517 -245 490 -245 q 604 -198 579 -245 q 628 -82 628 -150 l 628 482 z "},"o":{"ha":806,"x_min":50,"x_max":757,"o":"m 406 -18 q 217 31 297 -18 q 94 167 138 81 q 50 364 50 254 q 93 561 50 475 q 215 697 136 648 q 404 747 295 747 q 593 697 514 747 q 714 561 672 648 q 757 364 757 475 q 714 168 757 255 q 593 32 672 81 q 406 -18 515 -18 m 406 68 q 549 147 496 68 q 602 355 602 226 q 583 507 602 435 q 522 622 565 578 q 404 667 479 667 q 285 621 328 667 q 223 503 241 574 q 205 355 205 432 q 259 146 205 225 q 406 68 313 68 z "},"ó":{"ha":806,"x_min":50,"x_max":757,"o":"m 406 -18 q 217 31 297 -18 q 94 167 138 81 q 50 364 50 254 q 93 561 50 475 q 215 697 136 648 q 404 747 295 747 q 593 697 514 747 q 714 561 672 648 q 757 364 757 475 q 714 168 757 255 q 593 32 672 81 q 406 -18 515 -18 m 406 68 q 549 147 496 68 q 602 355 602 226 q 583 507 602 435 q 522 622 565 578 q 404 667 479 667 q 285 621 328 667 q 223 503 241 574 q 205 355 205 432 q 259 146 205 225 q 406 68 313 68 m 229 818 l 210 844 q 296 914 246 876 q 394 990 345 953 q 479 1053 444 1027 l 532 1091 l 600 997 q 530 949 581 977 q 419 895 479 922 q 307 848 358 868 l 229 818 z "},"ŏ":{"ha":806,"x_min":50,"x_max":757,"o":"m 406 -18 q 217 31 297 -18 q 94 167 138 81 q 50 364 50 254 q 93 561 50 475 q 215 697 136 648 q 404 747 295 747 q 593 697 514 747 q 714 561 672 648 q 757 364 757 475 q 714 168 757 255 q 593 32 672 81 q 406 -18 515 -18 m 406 68 q 549 147 496 68 q 602 355 602 226 q 583 507 602 435 q 522 622 565 578 q 404 667 479 667 q 285 621 328 667 q 223 503 241 574 q 205 355 205 432 q 259 146 205 225 q 406 68 313 68 m 404 818 q 333 834 365 818 q 281 876 301 850 q 240 985 243 926 l 328 985 q 351 922 328 946 q 403 899 373 899 q 454 922 431 899 q 479 982 477 945 l 566 982 q 526 876 563 927 q 475 834 507 851 q 404 818 444 818 z "},"ô":{"ha":806,"x_min":50,"x_max":757,"o":"m 406 -18 q 217 31 297 -18 q 94 167 138 81 q 50 364 50 254 q 93 561 50 475 q 215 697 136 648 q 404 747 295 747 q 593 697 514 747 q 714 561 672 648 q 757 364 757 475 q 714 168 757 255 q 593 32 672 81 q 406 -18 515 -18 m 406 68 q 549 147 496 68 q 602 355 602 226 q 583 507 602 435 q 522 622 565 578 q 404 667 479 667 q 285 621 328 667 q 223 503 241 574 q 205 355 205 432 q 259 146 205 225 q 406 68 313 68 m 558 818 q 403 1003 454 956 q 364 963 387 989 q 317 908 341 937 q 275 855 294 879 l 249 821 l 182 883 l 403 1121 l 625 879 l 558 818 z "},"ȍ":{"ha":806,"x_min":15,"x_max":757,"o":"m 406 -18 q 217 31 297 -18 q 94 167 138 81 q 50 364 50 254 q 93 561 50 475 q 215 697 136 648 q 404 747 295 747 q 593 697 514 747 q 714 561 672 648 q 757 364 757 475 q 714 168 757 255 q 593 32 672 81 q 406 -18 515 -18 m 406 68 q 549 147 496 68 q 602 355 602 226 q 583 507 602 435 q 522 622 565 578 q 404 667 479 667 q 285 621 328 667 q 223 503 241 574 q 205 355 205 432 q 259 146 205 225 q 406 68 313 68 m 622 818 q 587 836 607 825 q 544 859 568 846 q 482 892 520 871 q 402 939 444 913 q 328 987 361 964 q 279 1025 294 1010 l 347 1119 q 506 966 433 1035 q 642 844 580 897 l 622 818 m 358 818 q 323 836 343 825 q 280 859 304 846 q 218 892 256 871 q 139 939 180 913 q 64 987 98 964 q 15 1025 30 1010 l 83 1119 q 378 844 255 950 l 358 818 z "},"ö":{"ha":806,"x_min":50,"x_max":757,"o":"m 406 -18 q 217 31 297 -18 q 94 167 138 81 q 50 364 50 254 q 93 561 50 475 q 215 697 136 648 q 404 747 295 747 q 593 697 514 747 q 714 561 672 648 q 757 364 757 475 q 714 168 757 255 q 593 32 672 81 q 406 -18 515 -18 m 406 68 q 549 147 496 68 q 602 355 602 226 q 583 507 602 435 q 522 622 565 578 q 404 667 479 667 q 285 621 328 667 q 223 503 241 574 q 205 355 205 432 q 259 146 205 225 q 406 68 313 68 m 564 818 q 498 845 526 818 q 471 911 471 873 q 498 977 471 949 q 564 1005 526 1005 q 631 977 602 1005 q 659 911 659 949 q 631 846 659 873 q 564 818 602 818 m 243 818 q 177 845 204 818 q 150 911 150 873 q 177 977 150 949 q 243 1005 204 1005 q 308 977 281 1005 q 336 911 336 949 q 308 846 336 873 q 243 818 280 818 z "},"ò":{"ha":806,"x_min":50,"x_max":757,"o":"m 406 -18 q 217 31 297 -18 q 94 167 138 81 q 50 364 50 254 q 93 561 50 475 q 215 697 136 648 q 404 747 295 747 q 593 697 514 747 q 714 561 672 648 q 757 364 757 475 q 714 168 757 255 q 593 32 672 81 q 406 -18 515 -18 m 406 68 q 549 147 496 68 q 602 355 602 226 q 583 507 602 435 q 522 622 565 578 q 404 667 479 667 q 285 621 328 667 q 223 503 241 574 q 205 355 205 432 q 259 146 205 225 q 406 68 313 68 m 581 818 q 566 824 574 821 q 547 831 558 827 q 503 848 534 836 q 436 876 472 861 q 368 905 399 891 q 275 951 322 925 q 210 997 229 977 l 278 1091 q 458 959 377 1021 q 600 844 538 897 l 581 818 z "},"ő":{"ha":806,"x_min":50,"x_max":771,"o":"m 406 -18 q 217 31 297 -18 q 94 167 138 81 q 50 364 50 254 q 93 561 50 475 q 215 697 136 648 q 404 747 295 747 q 593 697 514 747 q 714 561 672 648 q 757 364 757 475 q 714 168 757 255 q 593 32 672 81 q 406 -18 515 -18 m 406 68 q 549 147 496 68 q 602 355 602 226 q 583 507 602 435 q 522 622 565 578 q 404 667 479 667 q 285 621 328 667 q 223 503 241 574 q 205 355 205 432 q 259 146 205 225 q 406 68 313 68 m 428 810 l 408 836 q 491 910 445 867 q 581 994 537 952 q 656 1066 625 1036 l 703 1111 l 771 1017 q 705 965 751 996 q 602 903 658 935 q 499 846 547 871 l 428 810 m 164 810 l 144 836 q 227 910 181 867 q 318 994 273 952 q 393 1066 362 1036 l 439 1111 l 507 1017 q 440 965 488 996 q 338 903 393 935 q 235 846 282 871 l 164 810 z "},"ȏ":{"ha":806,"x_min":50,"x_max":757,"o":"m 406 -18 q 217 31 297 -18 q 94 167 138 81 q 50 364 50 254 q 93 561 50 475 q 215 697 136 648 q 404 747 295 747 q 593 697 514 747 q 714 561 672 648 q 757 364 757 475 q 714 168 757 255 q 593 32 672 81 q 406 -18 515 -18 m 406 68 q 549 147 496 68 q 602 355 602 226 q 583 507 602 435 q 522 622 565 578 q 404 667 479 667 q 285 621 328 667 q 223 503 241 574 q 205 355 205 432 q 259 146 205 225 q 406 68 313 68 m 479 818 q 456 880 478 857 q 404 904 433 904 q 352 881 375 904 q 328 821 330 858 l 240 821 q 281 927 243 876 q 331 969 299 953 q 402 985 363 985 q 474 969 441 985 q 526 927 507 953 q 555 873 545 901 q 566 818 565 845 l 479 818 z "},"ō":{"ha":806,"x_min":50,"x_max":757,"o":"m 406 -18 q 217 31 297 -18 q 94 167 138 81 q 50 364 50 254 q 93 561 50 475 q 215 697 136 648 q 404 747 295 747 q 593 697 514 747 q 714 561 672 648 q 757 364 757 475 q 714 168 757 255 q 593 32 672 81 q 406 -18 515 -18 m 406 68 q 549 147 496 68 q 602 355 602 226 q 583 507 602 435 q 522 622 565 578 q 404 667 479 667 q 285 621 328 667 q 223 503 241 574 q 205 355 205 432 q 259 146 205 225 q 406 68 313 68 m 206 848 l 206 942 l 601 942 l 601 848 l 206 848 z "},"ø":{"ha":806,"x_min":32,"x_max":799,"o":"m 77 -75 l 32 -39 l 144 92 q 50 364 50 199 q 93 561 50 475 q 215 697 136 648 q 404 747 295 747 q 634 667 541 747 l 754 807 l 799 771 l 674 625 q 757 364 757 519 q 714 168 757 255 q 593 32 672 81 q 406 -18 515 -18 q 186 53 277 -18 l 77 -75 m 233 197 l 556 575 q 404 667 505 667 q 285 621 328 667 q 223 503 241 574 q 205 355 205 432 q 233 197 205 264 m 406 68 q 549 147 496 68 q 602 355 602 226 q 581 515 602 450 l 262 142 q 406 68 317 68 z "},"õ":{"ha":806,"x_min":50,"x_max":757,"o":"m 406 -18 q 217 31 297 -18 q 94 167 138 81 q 50 364 50 254 q 93 561 50 475 q 215 697 136 648 q 404 747 295 747 q 593 697 514 747 q 714 561 672 648 q 757 364 757 475 q 714 168 757 255 q 593 32 672 81 q 406 -18 515 -18 m 406 68 q 549 147 496 68 q 602 355 602 226 q 583 507 602 435 q 522 622 565 578 q 404 667 479 667 q 285 621 328 667 q 223 503 241 574 q 205 355 205 432 q 259 146 205 225 q 406 68 313 68 m 285 838 q 197 876 222 838 q 171 1003 171 913 l 231 1003 q 243 955 231 968 q 290 941 256 941 q 401 972 317 941 q 522 1004 484 1004 q 610 967 585 1004 q 636 840 636 930 l 576 840 q 564 888 576 874 q 517 902 551 902 q 406 870 490 902 q 285 838 323 838 z "},"œ":{"ha":1332,"x_min":50,"x_max":1280,"o":"m 956 -20 q 797 16 867 -20 q 680 113 727 51 q 564 16 633 50 q 406 -18 494 -18 q 217 31 297 -18 q 94 167 138 81 q 50 364 50 254 q 93 561 50 475 q 215 697 136 648 q 404 747 295 747 q 682 615 583 747 q 795 713 727 677 q 948 749 863 749 q 1125 700 1051 749 q 1239 567 1198 652 q 1280 374 1279 483 l 758 374 l 758 368 q 779 229 758 294 q 848 123 801 163 q 970 83 895 83 q 1103 127 1041 83 q 1187 252 1165 172 l 1266 227 q 1158 47 1240 114 q 956 -20 1077 -20 m 762 447 l 1131 447 q 1077 607 1128 545 q 952 668 1026 668 q 824 607 878 668 q 762 447 770 546 m 406 68 q 549 147 496 68 q 602 355 602 226 q 583 507 602 435 q 522 622 565 578 q 404 667 479 667 q 285 621 328 667 q 223 503 241 574 q 205 355 205 432 q 259 146 205 225 q 406 68 313 68 z "},"p":{"ha":827,"x_min":-36,"x_max":778,"o":"m -36 -272 l -36 -191 l 123 -191 l 123 652 l -8 652 l -8 728 l 265 747 l 265 611 q 486 747 340 747 q 612 715 557 747 q 703 629 666 684 q 759 506 740 574 q 778 366 778 438 q 740 166 778 253 q 633 31 703 79 q 469 -18 564 -18 q 356 11 409 -18 q 269 90 304 39 l 269 -189 l 419 -189 l 419 -272 l -36 -272 m 443 58 q 529 88 494 58 q 584 166 564 118 q 614 269 605 214 q 623 374 623 323 q 603 507 623 441 q 544 617 584 573 q 443 661 505 661 q 347 623 389 661 q 283 516 306 584 q 260 361 260 449 q 270 258 260 311 q 301 160 279 205 q 357 86 322 115 q 443 58 392 58 z "},"þ":{"ha":865,"x_min":-9,"x_max":804,"o":"m -9 -272 l -9 -191 l 150 -191 l 150 965 l 18 965 l 18 1042 l 292 1042 l 292 611 q 513 747 366 747 q 638 715 584 747 q 729 629 692 684 q 785 506 766 574 q 804 366 804 438 q 767 166 804 253 q 660 31 729 79 q 496 -18 591 -18 q 383 11 435 -18 q 296 90 330 39 l 296 -189 l 446 -189 l 446 -272 l -9 -272 m 469 58 q 555 88 521 58 q 610 165 590 117 q 640 268 631 213 q 648 374 648 323 q 629 507 648 441 q 570 617 610 573 q 469 661 531 661 q 374 623 415 661 q 309 516 332 584 q 286 361 286 449 q 296 258 286 311 q 327 160 306 205 q 384 86 349 115 q 469 58 418 58 z "},"q":{"ha":811,"x_min":50,"x_max":850,"o":"m 416 -271 l 416 -187 l 564 -187 l 564 90 q 476 11 529 39 q 363 -18 423 -18 q 198 31 269 -18 q 89 166 127 79 q 50 366 50 253 q 87 555 50 468 q 192 694 123 642 q 355 747 260 747 q 496 710 430 747 q 595 595 562 673 l 647 728 l 710 728 l 710 -187 l 850 -187 l 850 -271 l 416 -271 m 383 58 q 464 84 430 58 q 520 153 498 111 q 553 242 543 195 q 564 334 564 290 q 554 447 564 389 q 522 555 544 505 q 466 636 500 605 q 383 667 432 667 q 302 639 336 667 q 247 567 268 611 q 215 471 225 522 q 205 374 205 420 q 214 270 205 325 q 242 168 222 216 q 297 89 262 119 q 383 58 331 58 z "},"r":{"ha":647,"x_min":33,"x_max":638,"o":"m 33 0 l 33 76 l 165 76 l 165 652 l 33 652 l 33 728 l 290 739 l 309 581 q 370 689 326 638 q 429 731 394 715 q 504 747 463 747 q 598 717 559 747 q 638 631 638 686 q 607 549 638 578 q 534 519 576 519 q 467 544 495 519 q 438 610 438 568 q 445 639 438 624 q 458 662 452 654 l 466 669 q 394 644 425 669 q 346 576 363 618 q 311 390 311 492 l 311 76 l 464 76 l 464 0 l 33 0 z "},"ŕ":{"ha":647,"x_min":33,"x_max":638,"o":"m 33 0 l 33 76 l 165 76 l 165 652 l 33 652 l 33 728 l 290 739 l 309 581 q 370 689 326 638 q 429 731 394 715 q 504 747 463 747 q 598 717 559 747 q 638 631 638 686 q 607 549 638 578 q 534 519 576 519 q 467 544 495 519 q 438 610 438 568 q 445 639 438 624 q 458 662 452 654 l 466 669 q 394 644 425 669 q 346 576 363 618 q 311 390 311 492 l 311 76 l 464 76 l 464 0 l 33 0 m 149 818 l 130 844 q 216 914 166 876 q 314 990 265 953 q 399 1053 363 1027 l 452 1091 l 520 997 q 450 949 500 977 q 339 895 399 922 q 227 848 278 868 l 149 818 z "},"ř":{"ha":647,"x_min":33,"x_max":638,"o":"m 33 0 l 33 76 l 165 76 l 165 652 l 33 652 l 33 728 l 290 739 l 309 581 q 370 689 326 638 q 429 731 394 715 q 504 747 463 747 q 598 717 559 747 q 638 631 638 686 q 607 549 638 578 q 534 519 576 519 q 467 544 495 519 q 438 610 438 568 q 445 639 438 624 q 458 662 452 654 l 466 669 q 394 644 425 669 q 346 576 363 618 q 311 390 311 492 l 311 76 l 464 76 l 464 0 l 33 0 m 335 817 l 113 1059 l 180 1120 q 335 935 283 982 q 374 975 351 949 q 421 1030 397 1001 q 463 1082 445 1059 l 489 1118 l 556 1055 l 335 817 z "},"ŗ":{"ha":647,"x_min":33,"x_max":638,"o":"m 33 0 l 33 76 l 165 76 l 165 652 l 33 652 l 33 728 l 290 739 l 309 581 q 370 689 326 638 q 429 731 394 715 q 504 747 463 747 q 598 717 559 747 q 638 631 638 686 q 607 549 638 578 q 534 519 576 519 q 467 544 495 519 q 438 610 438 568 q 445 639 438 624 q 458 662 452 654 l 466 669 q 394 644 425 669 q 346 576 363 618 q 311 390 311 492 l 311 76 l 464 76 l 464 0 l 33 0 m 217 -387 l 184 -382 q 186 -325 185 -356 q 186 -256 186 -293 q 186 -188 186 -218 q 185 -134 186 -158 l 184 -87 l 299 -87 q 291 -151 300 -109 q 268 -241 282 -193 q 239 -328 254 -289 l 217 -387 z "},"ȑ":{"ha":647,"x_min":-65,"x_max":638,"o":"m 33 0 l 33 76 l 165 76 l 165 652 l 33 652 l 33 728 l 290 739 l 309 581 q 370 689 326 638 q 429 731 394 715 q 504 747 463 747 q 598 717 559 747 q 638 631 638 686 q 607 549 638 578 q 534 519 576 519 q 467 544 495 519 q 438 610 438 568 q 445 639 438 624 q 458 662 452 654 l 466 669 q 394 644 425 669 q 346 576 363 618 q 311 390 311 492 l 311 76 l 464 76 l 464 0 l 33 0 m 542 818 q 507 836 527 825 q 464 859 488 846 q 402 892 440 871 q 322 939 363 913 q 248 987 281 964 q 199 1025 214 1010 l 267 1119 q 426 966 353 1035 q 562 844 500 897 l 542 818 m 278 818 q 243 836 263 825 q 200 859 224 846 q 138 892 176 871 q 59 939 100 913 q -16 987 18 964 q -65 1025 -50 1010 l 3 1119 q 298 844 175 950 l 278 818 z "},"ȓ":{"ha":647,"x_min":33,"x_max":638,"o":"m 33 0 l 33 76 l 165 76 l 165 652 l 33 652 l 33 728 l 290 739 l 309 581 q 370 689 326 638 q 429 731 394 715 q 504 747 463 747 q 598 717 559 747 q 638 631 638 686 q 607 549 638 578 q 534 519 576 519 q 467 544 495 519 q 438 610 438 568 q 445 639 438 624 q 458 662 452 654 l 466 669 q 394 644 425 669 q 346 576 363 618 q 311 390 311 492 l 311 76 l 464 76 l 464 0 l 33 0 m 399 818 q 376 880 398 857 q 323 904 353 904 q 272 881 295 904 q 248 821 250 858 l 160 821 q 201 927 163 876 q 251 969 219 953 q 322 985 283 985 q 394 969 361 985 q 446 927 427 953 q 475 873 465 901 q 486 818 485 845 l 399 818 z "},"s":{"ha":705,"x_min":54,"x_max":653,"o":"m 349 -18 q 247 -8 299 -18 q 151 24 195 2 q 80 80 107 45 q 54 165 54 115 q 81 237 54 209 q 146 266 109 266 q 211 245 184 266 q 238 184 238 224 q 218 126 238 149 q 172 104 197 104 q 242 72 197 85 q 331 60 286 60 q 422 70 378 60 q 495 107 467 81 q 524 179 524 133 q 504 237 524 212 q 451 277 484 262 q 377 307 418 292 q 292 333 335 322 q 181 373 235 348 q 94 438 128 397 q 60 541 60 479 q 102 656 60 610 q 210 725 144 702 q 345 747 275 747 q 438 738 388 747 q 532 707 488 728 q 605 656 576 687 q 633 581 633 625 q 607 508 633 536 q 546 479 581 479 q 480 503 507 479 q 453 567 453 526 q 467 611 453 595 q 505 642 481 627 q 353 675 437 675 q 235 644 283 675 q 186 558 186 614 q 207 511 186 532 q 260 478 227 490 q 334 451 292 465 q 420 426 376 437 q 506 394 464 414 q 581 350 547 374 q 633 288 613 326 q 653 200 653 249 q 626 93 653 136 q 555 26 600 51 q 456 -8 510 2 q 349 -18 403 -18 z "},"ś":{"ha":705,"x_min":54,"x_max":653,"o":"m 349 -18 q 247 -8 299 -18 q 151 24 195 2 q 80 80 107 45 q 54 165 54 115 q 81 237 54 209 q 146 266 109 266 q 211 245 184 266 q 238 184 238 224 q 218 126 238 149 q 172 104 197 104 q 242 72 197 85 q 331 60 286 60 q 422 70 378 60 q 495 107 467 81 q 524 179 524 133 q 504 237 524 212 q 451 277 484 262 q 377 307 418 292 q 292 333 335 322 q 181 373 235 348 q 94 438 128 397 q 60 541 60 479 q 102 656 60 610 q 210 725 144 702 q 345 747 275 747 q 438 738 388 747 q 532 707 488 728 q 605 656 576 687 q 633 581 633 625 q 607 508 633 536 q 546 479 581 479 q 480 503 507 479 q 453 567 453 526 q 467 611 453 595 q 505 642 481 627 q 353 675 437 675 q 235 644 283 675 q 186 558 186 614 q 207 511 186 532 q 260 478 227 490 q 334 451 292 465 q 420 426 376 437 q 506 394 464 414 q 581 350 547 374 q 633 288 613 326 q 653 200 653 249 q 626 93 653 136 q 555 26 600 51 q 456 -8 510 2 q 349 -18 403 -18 m 178 818 l 159 844 q 245 914 195 876 q 343 990 294 953 q 428 1053 393 1027 l 481 1091 l 549 997 q 479 949 530 977 q 368 895 429 922 q 256 848 307 868 l 178 818 z "},"š":{"ha":705,"x_min":54,"x_max":653,"o":"m 349 -18 q 247 -8 299 -18 q 151 24 195 2 q 80 80 107 45 q 54 165 54 115 q 81 237 54 209 q 146 266 109 266 q 211 245 184 266 q 238 184 238 224 q 218 126 238 149 q 172 104 197 104 q 242 72 197 85 q 331 60 286 60 q 422 70 378 60 q 495 107 467 81 q 524 179 524 133 q 504 237 524 212 q 451 277 484 262 q 377 307 418 292 q 292 333 335 322 q 181 373 235 348 q 94 438 128 397 q 60 541 60 479 q 102 656 60 610 q 210 725 144 702 q 345 747 275 747 q 438 738 388 747 q 532 707 488 728 q 605 656 576 687 q 633 581 633 625 q 607 508 633 536 q 546 479 581 479 q 480 503 507 479 q 453 567 453 526 q 467 611 453 595 q 505 642 481 627 q 353 675 437 675 q 235 644 283 675 q 186 558 186 614 q 207 511 186 532 q 260 478 227 490 q 334 451 292 465 q 420 426 376 437 q 506 394 464 414 q 581 350 547 374 q 633 288 613 326 q 653 200 653 249 q 626 93 653 136 q 555 26 600 51 q 456 -8 510 2 q 349 -18 403 -18 m 364 817 l 142 1059 l 209 1120 q 364 935 313 982 q 404 975 380 949 q 450 1030 427 1001 q 492 1082 474 1059 l 518 1118 l 585 1055 l 364 817 z "},"ş":{"ha":705,"x_min":54,"x_max":653,"o":"m 349 -18 q 247 -8 299 -18 q 151 24 195 2 q 80 80 107 45 q 54 165 54 115 q 81 237 54 209 q 146 266 109 266 q 211 245 184 266 q 238 184 238 224 q 218 126 238 149 q 172 104 197 104 q 242 72 197 85 q 331 60 286 60 q 422 70 378 60 q 495 107 467 81 q 524 179 524 133 q 504 237 524 212 q 451 277 484 262 q 377 307 418 292 q 292 333 335 322 q 181 373 235 348 q 94 438 128 397 q 60 541 60 479 q 102 656 60 610 q 210 725 144 702 q 345 747 275 747 q 438 738 388 747 q 532 707 488 728 q 605 656 576 687 q 633 581 633 625 q 607 508 633 536 q 546 479 581 479 q 480 503 507 479 q 453 567 453 526 q 467 611 453 595 q 505 642 481 627 q 353 675 437 675 q 235 644 283 675 q 186 558 186 614 q 207 511 186 532 q 260 478 227 490 q 334 451 292 465 q 420 426 376 437 q 506 394 464 414 q 581 350 547 374 q 633 288 613 326 q 653 200 653 249 q 626 93 653 136 q 555 26 600 51 q 456 -8 510 2 q 349 -18 403 -18 m 216 -308 l 197 -260 q 266 -241 238 -252 q 296 -215 296 -229 q 264 -169 296 -201 q 231 -121 231 -137 q 251 -68 231 -94 q 302 -24 270 -42 q 373 -7 334 -7 l 399 -7 l 399 -194 q 380 -239 399 -218 q 335 -272 361 -260 q 281 -293 308 -284 q 235 -304 254 -301 l 216 -308 z "},"ŝ":{"ha":705,"x_min":54,"x_max":653,"o":"m 349 -18 q 247 -8 299 -18 q 151 24 195 2 q 80 80 107 45 q 54 165 54 115 q 81 237 54 209 q 146 266 109 266 q 211 245 184 266 q 238 184 238 224 q 218 126 238 149 q 172 104 197 104 q 242 72 197 85 q 331 60 286 60 q 422 70 378 60 q 495 107 467 81 q 524 179 524 133 q 504 237 524 212 q 451 277 484 262 q 377 307 418 292 q 292 333 335 322 q 181 373 235 348 q 94 438 128 397 q 60 541 60 479 q 102 656 60 610 q 210 725 144 702 q 345 747 275 747 q 438 738 388 747 q 532 707 488 728 q 605 656 576 687 q 633 581 633 625 q 607 508 633 536 q 546 479 581 479 q 480 503 507 479 q 453 567 453 526 q 467 611 453 595 q 505 642 481 627 q 353 675 437 675 q 235 644 283 675 q 186 558 186 614 q 207 511 186 532 q 260 478 227 490 q 334 451 292 465 q 420 426 376 437 q 506 394 464 414 q 581 350 547 374 q 633 288 613 326 q 653 200 653 249 q 626 93 653 136 q 555 26 600 51 q 456 -8 510 2 q 349 -18 403 -18 m 507 818 q 352 1003 404 956 q 313 963 336 989 q 267 908 290 937 q 224 855 243 879 l 198 821 l 131 883 l 352 1121 l 574 879 l 507 818 z "},"ș":{"ha":705,"x_min":54,"x_max":653,"o":"m 349 -18 q 247 -8 299 -18 q 151 24 195 2 q 80 80 107 45 q 54 165 54 115 q 81 237 54 209 q 146 266 109 266 q 211 245 184 266 q 238 184 238 224 q 218 126 238 149 q 172 104 197 104 q 242 72 197 85 q 331 60 286 60 q 422 70 378 60 q 495 107 467 81 q 524 179 524 133 q 504 237 524 212 q 451 277 484 262 q 377 307 418 292 q 292 333 335 322 q 181 373 235 348 q 94 438 128 397 q 60 541 60 479 q 102 656 60 610 q 210 725 144 702 q 345 747 275 747 q 438 738 388 747 q 532 707 488 728 q 605 656 576 687 q 633 581 633 625 q 607 508 633 536 q 546 479 581 479 q 480 503 507 479 q 453 567 453 526 q 467 611 453 595 q 505 642 481 627 q 353 675 437 675 q 235 644 283 675 q 186 558 186 614 q 207 511 186 532 q 260 478 227 490 q 334 451 292 465 q 420 426 376 437 q 506 394 464 414 q 581 350 547 374 q 633 288 613 326 q 653 200 653 249 q 626 93 653 136 q 555 26 600 51 q 456 -8 510 2 q 349 -18 403 -18 m 300 -393 l 267 -389 q 269 -331 269 -363 q 270 -262 270 -300 q 270 -195 270 -225 q 269 -141 269 -165 l 267 -94 l 382 -94 q 375 -158 384 -116 q 351 -248 366 -200 q 322 -335 337 -296 l 300 -393 z "},"ß":{"ha":891,"x_min":46,"x_max":842,"o":"m 46 0 l 46 81 l 146 81 l 146 665 q 226 922 146 835 q 456 1010 307 1010 q 655 949 581 1010 q 729 766 729 889 q 708 674 729 713 q 653 604 688 635 q 574 542 618 573 q 555 522 555 529 q 570 508 555 517 q 602 490 584 498 q 630 478 620 482 q 699 444 662 465 q 768 396 736 422 q 821 329 800 370 q 842 237 842 287 q 807 122 842 168 q 715 50 772 76 q 591 12 659 23 q 460 1 524 1 q 422 1 441 1 q 380 0 402 0 l 380 81 q 487 85 432 81 q 590 106 543 90 q 666 153 637 121 q 696 236 696 184 q 681 302 696 273 q 642 352 666 332 q 590 389 618 372 q 532 419 561 406 q 454 465 482 441 q 425 519 425 489 q 438 570 425 545 q 472 612 452 595 l 558 686 q 591 728 578 704 q 604 779 604 753 q 566 882 604 845 q 461 918 527 918 q 334 852 376 918 q 292 665 292 786 l 292 0 l 46 0 z "},"t":{"ha":605,"x_min":-14,"x_max":561,"o":"m 345 -18 q 237 6 287 -18 q 156 79 186 31 q 125 200 125 127 l 125 652 l -14 652 l -14 684 q 81 740 39 699 q 149 827 124 780 q 180 887 170 865 q 199 931 189 909 q 228 991 208 954 q 253 1021 242 1021 q 271 997 271 1021 l 271 728 l 538 728 l 538 650 l 271 650 l 271 196 q 298 106 271 136 q 370 77 325 77 q 452 112 424 77 q 479 237 479 148 l 479 335 l 561 335 l 561 252 q 513 50 561 117 q 345 -18 465 -18 z "},"ť":{"ha":702,"x_min":-14,"x_max":709,"o":"m 345 -18 q 237 6 287 -18 q 156 79 186 31 q 125 200 125 127 l 125 652 l -14 652 l -14 684 q 81 740 39 699 q 149 827 124 780 q 180 887 170 865 q 199 931 189 909 q 228 991 208 954 q 253 1021 242 1021 q 271 997 271 1021 l 271 728 l 538 728 l 538 650 l 271 650 l 271 196 q 298 106 271 136 q 370 77 325 77 q 452 112 424 77 q 479 237 479 148 l 479 335 l 561 335 l 561 252 q 513 50 561 117 q 345 -18 465 -18 m 578 749 l 545 802 q 605 852 577 821 q 632 909 632 882 q 627 928 632 920 q 570 911 600 911 q 507 939 534 911 q 479 1002 479 967 q 510 1069 479 1040 q 586 1099 541 1099 q 670 1062 631 1099 q 709 957 709 1025 q 677 848 709 905 q 578 749 645 791 z "},"ţ":{"ha":605,"x_min":-14,"x_max":561,"o":"m 345 -18 q 237 6 287 -18 q 156 79 186 31 q 125 200 125 127 l 125 652 l -14 652 l -14 684 q 81 740 39 699 q 149 827 124 780 q 180 887 170 865 q 199 931 189 909 q 228 991 208 954 q 253 1021 242 1021 q 271 997 271 1021 l 271 728 l 538 728 l 538 650 l 271 650 l 271 196 q 298 106 271 136 q 370 77 325 77 q 452 112 424 77 q 479 237 479 148 l 479 335 l 561 335 l 561 252 q 513 50 561 117 q 345 -18 465 -18 m 220 -301 l 201 -253 q 270 -234 242 -245 q 300 -208 300 -222 q 268 -162 300 -194 q 235 -114 235 -130 q 255 -61 235 -87 q 306 -18 274 -35 q 377 0 338 0 l 404 0 l 404 -187 q 385 -232 404 -212 q 339 -265 366 -253 q 285 -286 312 -277 q 239 -298 258 -294 l 220 -301 z "},"ț":{"ha":605,"x_min":-14,"x_max":561,"o":"m 345 -18 q 237 6 287 -18 q 156 79 186 31 q 125 200 125 127 l 125 652 l -14 652 l -14 684 q 81 740 39 699 q 149 827 124 780 q 180 887 170 865 q 199 931 189 909 q 228 991 208 954 q 253 1021 242 1021 q 271 997 271 1021 l 271 728 l 538 728 l 538 650 l 271 650 l 271 196 q 298 106 271 136 q 370 77 325 77 q 452 112 424 77 q 479 237 479 148 l 479 335 l 561 335 l 561 252 q 513 50 561 117 q 345 -18 465 -18 m 304 -387 l 271 -382 q 273 -325 273 -356 q 274 -256 274 -293 q 274 -188 274 -218 q 273 -134 273 -158 l 271 -87 l 387 -87 q 379 -151 388 -109 q 355 -241 370 -193 q 326 -328 341 -289 l 304 -387 z "},"u":{"ha":872,"x_min":-3,"x_max":871,"o":"m 597 -20 l 597 134 q 353 -18 512 -18 q 181 52 238 -18 q 125 244 125 121 l 125 652 l -3 652 l -3 728 l 271 728 l 271 245 q 299 116 271 155 q 389 76 328 76 q 481 102 433 76 q 561 169 528 128 q 593 254 593 210 l 593 652 l 469 652 l 469 728 l 739 728 l 739 77 l 871 62 l 871 0 l 597 -20 z "},"ú":{"ha":872,"x_min":-3,"x_max":871,"o":"m 597 -20 l 597 134 q 353 -18 512 -18 q 181 52 238 -18 q 125 244 125 121 l 125 652 l -3 652 l -3 728 l 271 728 l 271 245 q 299 116 271 155 q 389 76 328 76 q 481 102 433 76 q 561 169 528 128 q 593 254 593 210 l 593 652 l 469 652 l 469 728 l 739 728 l 739 77 l 871 62 l 871 0 l 597 -20 m 262 818 l 242 844 q 328 914 279 876 q 427 990 378 953 q 511 1053 476 1027 l 564 1091 l 633 997 q 563 949 613 977 q 451 895 512 922 q 339 848 391 868 l 262 818 z "},"ŭ":{"ha":872,"x_min":-3,"x_max":871,"o":"m 597 -20 l 597 134 q 353 -18 512 -18 q 181 52 238 -18 q 125 244 125 121 l 125 652 l -3 652 l -3 728 l 271 728 l 271 245 q 299 116 271 155 q 389 76 328 76 q 481 102 433 76 q 561 169 528 128 q 593 254 593 210 l 593 652 l 469 652 l 469 728 l 739 728 l 739 77 l 871 62 l 871 0 l 597 -20 m 437 818 q 366 834 397 818 q 314 876 334 850 q 273 985 276 926 l 360 985 q 383 922 361 946 q 435 899 406 899 q 487 922 464 899 q 511 982 509 945 l 599 982 q 559 876 595 927 q 508 834 540 851 q 437 818 476 818 z "},"û":{"ha":872,"x_min":-3,"x_max":871,"o":"m 597 -20 l 597 134 q 353 -18 512 -18 q 181 52 238 -18 q 125 244 125 121 l 125 652 l -3 652 l -3 728 l 271 728 l 271 245 q 299 116 271 155 q 389 76 328 76 q 481 102 433 76 q 561 169 528 128 q 593 254 593 210 l 593 652 l 469 652 l 469 728 l 739 728 l 739 77 l 871 62 l 871 0 l 597 -20 m 591 818 q 435 1003 487 956 q 397 963 420 989 q 350 908 374 937 q 308 855 326 879 l 281 821 l 214 883 l 435 1121 l 658 879 l 591 818 z "},"ȕ":{"ha":872,"x_min":-3,"x_max":871,"o":"m 597 -20 l 597 134 q 353 -18 512 -18 q 181 52 238 -18 q 125 244 125 121 l 125 652 l -3 652 l -3 728 l 271 728 l 271 245 q 299 116 271 155 q 389 76 328 76 q 481 102 433 76 q 561 169 528 128 q 593 254 593 210 l 593 652 l 469 652 l 469 728 l 739 728 l 739 77 l 871 62 l 871 0 l 597 -20 m 654 818 q 620 836 640 825 q 576 859 600 846 q 514 892 553 871 q 435 939 476 913 q 360 987 394 964 q 311 1025 326 1010 l 380 1119 q 539 966 465 1035 q 674 844 612 897 l 654 818 m 391 818 q 356 836 376 825 q 313 859 336 846 q 251 892 289 871 q 171 939 212 913 q 96 987 130 964 q 47 1025 62 1010 l 115 1119 q 410 844 288 950 l 391 818 z "},"ü":{"ha":872,"x_min":-3,"x_max":871,"o":"m 597 -20 l 597 134 q 353 -18 512 -18 q 181 52 238 -18 q 125 244 125 121 l 125 652 l -3 652 l -3 728 l 271 728 l 271 245 q 299 116 271 155 q 389 76 328 76 q 481 102 433 76 q 561 169 528 128 q 593 254 593 210 l 593 652 l 469 652 l 469 728 l 739 728 l 739 77 l 871 62 l 871 0 l 597 -20 m 597 818 q 531 845 558 818 q 504 911 504 873 q 531 977 504 949 q 597 1005 558 1005 q 663 977 635 1005 q 692 911 692 949 q 663 846 692 873 q 597 818 635 818 m 275 818 q 210 845 237 818 q 182 911 182 873 q 210 977 182 949 q 275 1005 237 1005 q 341 977 313 1005 q 368 911 368 949 q 340 846 368 873 q 275 818 313 818 z "},"ù":{"ha":872,"x_min":-3,"x_max":871,"o":"m 597 -20 l 597 134 q 353 -18 512 -18 q 181 52 238 -18 q 125 244 125 121 l 125 652 l -3 652 l -3 728 l 271 728 l 271 245 q 299 116 271 155 q 389 76 328 76 q 481 102 433 76 q 561 169 528 128 q 593 254 593 210 l 593 652 l 469 652 l 469 728 l 739 728 l 739 77 l 871 62 l 871 0 l 597 -20 m 613 818 q 599 824 607 821 q 580 831 591 827 q 535 848 566 836 q 468 876 505 861 q 401 905 432 891 q 308 951 355 925 q 242 997 261 977 l 311 1091 q 490 959 410 1021 q 633 844 571 897 l 613 818 z "},"ű":{"ha":872,"x_min":-3,"x_max":871,"o":"m 597 -20 l 597 134 q 353 -18 512 -18 q 181 52 238 -18 q 125 244 125 121 l 125 652 l -3 652 l -3 728 l 271 728 l 271 245 q 299 116 271 155 q 389 76 328 76 q 481 102 433 76 q 561 169 528 128 q 593 254 593 210 l 593 652 l 469 652 l 469 728 l 739 728 l 739 77 l 871 62 l 871 0 l 597 -20 m 460 810 l 441 836 q 524 910 477 867 q 614 994 570 952 q 689 1066 658 1036 l 736 1111 l 804 1017 q 737 965 784 996 q 635 903 690 935 q 532 846 579 871 l 460 810 m 197 810 l 177 836 q 260 910 214 867 q 350 994 306 952 q 425 1066 395 1036 l 471 1111 l 540 1017 q 473 965 520 996 q 370 903 426 935 q 267 846 315 871 l 197 810 z "},"ȗ":{"ha":872,"x_min":-3,"x_max":871,"o":"m 597 -20 l 597 134 q 353 -18 512 -18 q 181 52 238 -18 q 125 244 125 121 l 125 652 l -3 652 l -3 728 l 271 728 l 271 245 q 299 116 271 155 q 389 76 328 76 q 481 102 433 76 q 561 169 528 128 q 593 254 593 210 l 593 652 l 469 652 l 469 728 l 739 728 l 739 77 l 871 62 l 871 0 l 597 -20 m 511 818 q 488 880 511 857 q 436 904 466 904 q 385 881 408 904 q 360 821 362 858 l 273 821 q 313 927 276 876 q 363 969 332 953 q 435 985 395 985 q 507 969 474 985 q 558 927 539 953 q 588 873 578 901 q 599 818 597 845 l 511 818 z "},"ū":{"ha":872,"x_min":-3,"x_max":871,"o":"m 597 -20 l 597 134 q 353 -18 512 -18 q 181 52 238 -18 q 125 244 125 121 l 125 652 l -3 652 l -3 728 l 271 728 l 271 245 q 299 116 271 155 q 389 76 328 76 q 481 102 433 76 q 561 169 528 128 q 593 254 593 210 l 593 652 l 469 652 l 469 728 l 739 728 l 739 77 l 871 62 l 871 0 l 597 -20 m 239 848 l 239 942 l 633 942 l 633 848 l 239 848 z "},"ų":{"ha":872,"x_min":-3,"x_max":871,"o":"m 597 -20 l 597 134 q 353 -18 512 -18 q 181 52 238 -18 q 125 244 125 121 l 125 652 l -3 652 l -3 728 l 271 728 l 271 245 q 299 116 271 155 q 389 76 328 76 q 481 102 433 76 q 561 169 528 128 q 593 254 593 210 l 593 652 l 469 652 l 469 728 l 739 728 l 739 77 l 871 62 l 871 0 l 597 -20 m 807 -261 q 666 -218 720 -261 q 611 -118 611 -174 q 631 -56 611 -83 q 684 -12 651 -28 q 827 21 750 21 l 827 0 q 746 -33 773 -9 q 720 -83 720 -56 q 742 -137 720 -115 q 825 -167 765 -159 l 807 -261 z "},"ů":{"ha":872,"x_min":-3,"x_max":871,"o":"m 597 -20 l 597 134 q 353 -18 512 -18 q 181 52 238 -18 q 125 244 125 121 l 125 652 l -3 652 l -3 728 l 271 728 l 271 245 q 299 116 271 155 q 389 76 328 76 q 481 102 433 76 q 561 169 528 128 q 593 254 593 210 l 593 652 l 469 652 l 469 728 l 739 728 l 739 77 l 871 62 l 871 0 l 597 -20 m 437 818 q 338 853 375 818 q 301 942 301 888 q 338 1030 301 996 q 437 1065 374 1065 q 536 1030 499 1065 q 572 942 572 996 q 536 853 572 888 q 437 818 499 818 m 436 857 q 490 880 467 857 q 513 942 513 903 q 490 1005 513 982 q 437 1028 468 1028 q 384 1005 407 1028 q 361 942 361 982 q 383 880 361 902 q 436 857 406 857 z "},"ũ":{"ha":872,"x_min":-3,"x_max":871,"o":"m 597 -20 l 597 134 q 353 -18 512 -18 q 181 52 238 -18 q 125 244 125 121 l 125 652 l -3 652 l -3 728 l 271 728 l 271 245 q 299 116 271 155 q 389 76 328 76 q 481 102 433 76 q 561 169 528 128 q 593 254 593 210 l 593 652 l 469 652 l 469 728 l 739 728 l 739 77 l 871 62 l 871 0 l 597 -20 m 317 838 q 229 876 255 838 q 203 1003 203 913 l 263 1003 q 276 955 263 968 q 323 941 289 941 q 433 972 350 941 q 555 1004 517 1004 q 643 967 617 1004 q 669 840 669 930 l 609 840 q 596 888 609 874 q 549 902 583 902 q 439 870 522 902 q 317 838 355 838 z "},"v":{"ha":851,"x_min":-9,"x_max":861,"o":"m 435 -26 q 372 -2 397 -26 q 328 74 347 22 l 115 652 l -9 652 l -9 728 l 400 728 l 400 652 l 277 652 l 456 107 l 629 652 l 514 652 l 514 728 l 861 728 l 861 652 l 745 652 l 545 78 q 500 -2 526 22 q 435 -26 474 -26 z "},"w":{"ha":1144,"x_min":5,"x_max":1145,"o":"m 359 -26 q 307 -4 327 -26 q 273 71 288 18 l 119 652 l 5 652 l 5 728 l 386 728 l 386 652 l 277 652 l 390 149 l 549 650 l 672 650 l 819 144 l 946 652 l 832 652 l 832 728 l 1145 728 l 1145 652 l 1048 652 l 895 74 q 861 -5 879 16 q 806 -26 843 -26 q 751 -5 771 -26 q 717 69 731 17 l 597 507 l 457 75 q 418 -4 439 18 q 359 -26 397 -26 z "},"ẃ":{"ha":1144,"x_min":5,"x_max":1145,"o":"m 359 -26 q 307 -4 327 -26 q 273 71 288 18 l 119 652 l 5 652 l 5 728 l 386 728 l 386 652 l 277 652 l 390 149 l 549 650 l 672 650 l 819 144 l 946 652 l 832 652 l 832 728 l 1145 728 l 1145 652 l 1048 652 l 895 74 q 861 -5 879 16 q 806 -26 843 -26 q 751 -5 771 -26 q 717 69 731 17 l 597 507 l 457 75 q 418 -4 439 18 q 359 -26 397 -26 m 433 818 l 413 844 q 499 914 450 876 q 598 990 549 953 q 682 1053 647 1027 l 735 1091 l 804 997 q 733 949 784 977 q 622 895 683 922 q 510 848 562 868 l 433 818 z "},"ŵ":{"ha":1144,"x_min":5,"x_max":1145,"o":"m 359 -26 q 307 -4 327 -26 q 273 71 288 18 l 119 652 l 5 652 l 5 728 l 386 728 l 386 652 l 277 652 l 390 149 l 549 650 l 672 650 l 819 144 l 946 652 l 832 652 l 832 728 l 1145 728 l 1145 652 l 1048 652 l 895 74 q 861 -5 879 16 q 806 -26 843 -26 q 751 -5 771 -26 q 717 69 731 17 l 597 507 l 457 75 q 418 -4 439 18 q 359 -26 397 -26 m 762 818 q 606 1003 658 956 q 568 963 591 989 q 521 908 545 937 q 479 855 497 879 l 452 821 l 385 883 l 606 1121 l 829 879 l 762 818 z "},"ẅ":{"ha":1144,"x_min":5,"x_max":1145,"o":"m 359 -26 q 307 -4 327 -26 q 273 71 288 18 l 119 652 l 5 652 l 5 728 l 386 728 l 386 652 l 277 652 l 390 149 l 549 650 l 672 650 l 819 144 l 946 652 l 832 652 l 832 728 l 1145 728 l 1145 652 l 1048 652 l 895 74 q 861 -5 879 16 q 806 -26 843 -26 q 751 -5 771 -26 q 717 69 731 17 l 597 507 l 457 75 q 418 -4 439 18 q 359 -26 397 -26 m 768 818 q 702 845 729 818 q 675 911 675 873 q 702 977 675 949 q 768 1005 729 1005 q 834 977 806 1005 q 863 911 863 949 q 834 846 863 873 q 768 818 806 818 m 446 818 q 380 845 408 818 q 353 911 353 873 q 380 977 353 949 q 446 1005 408 1005 q 512 977 484 1005 q 539 911 539 949 q 511 846 539 873 q 446 818 484 818 z "},"ẁ":{"ha":1144,"x_min":5,"x_max":1145,"o":"m 359 -26 q 307 -4 327 -26 q 273 71 288 18 l 119 652 l 5 652 l 5 728 l 386 728 l 386 652 l 277 652 l 390 149 l 549 650 l 672 650 l 819 144 l 946 652 l 832 652 l 832 728 l 1145 728 l 1145 652 l 1048 652 l 895 74 q 861 -5 879 16 q 806 -26 843 -26 q 751 -5 771 -26 q 717 69 731 17 l 597 507 l 457 75 q 418 -4 439 18 q 359 -26 397 -26 m 784 818 q 770 824 778 821 q 751 831 762 827 q 706 848 737 836 q 639 876 675 861 q 572 905 603 891 q 479 951 526 925 q 413 997 432 977 l 481 1091 q 661 959 581 1021 q 804 844 742 897 l 784 818 z "},"x":{"ha":868,"x_min":3,"x_max":865,"o":"m 18 0 l 18 76 l 125 76 l 354 357 l 114 652 l 3 652 l 3 728 l 387 728 l 387 652 l 286 652 l 439 447 l 593 652 l 484 652 l 484 728 l 825 728 l 825 652 l 714 652 l 500 388 l 753 76 l 865 76 l 865 0 l 463 0 l 463 76 l 583 76 l 422 298 l 245 76 l 368 76 l 368 0 l 18 0 z "},"y":{"ha":868,"x_min":-18,"x_max":878,"o":"m 244 -317 q 92 -274 151 -317 q 33 -165 33 -232 q 64 -87 33 -118 q 150 -57 96 -57 q 213 -85 192 -57 q 235 -155 235 -114 q 218 -200 235 -180 q 178 -231 201 -219 q 222 -245 205 -245 q 323 -192 282 -245 q 386 -16 364 -139 l 117 652 l -18 652 l -18 728 l 400 728 l 400 652 l 277 652 l 473 119 l 642 652 l 529 652 l 529 728 l 878 728 l 878 652 l 761 652 l 528 -3 q 444 -188 486 -119 q 354 -287 402 -256 q 244 -317 305 -317 z "},"ý":{"ha":868,"x_min":-18,"x_max":878,"o":"m 244 -317 q 92 -274 151 -317 q 33 -165 33 -232 q 64 -87 33 -118 q 150 -57 96 -57 q 213 -85 192 -57 q 235 -155 235 -114 q 218 -200 235 -180 q 178 -231 201 -219 q 222 -245 205 -245 q 323 -192 282 -245 q 386 -16 364 -139 l 117 652 l -18 652 l -18 728 l 400 728 l 400 652 l 277 652 l 473 119 l 642 652 l 529 652 l 529 728 l 878 728 l 878 652 l 761 652 l 528 -3 q 444 -188 486 -119 q 354 -287 402 -256 q 244 -317 305 -317 m 294 818 l 274 844 q 360 914 311 876 q 459 990 410 953 q 543 1053 508 1027 l 596 1091 l 665 997 q 594 949 645 977 q 483 895 544 922 q 371 848 422 868 l 294 818 z "},"ŷ":{"ha":868,"x_min":-18,"x_max":878,"o":"m 244 -317 q 92 -274 151 -317 q 33 -165 33 -232 q 64 -87 33 -118 q 150 -57 96 -57 q 213 -85 192 -57 q 235 -155 235 -114 q 218 -200 235 -180 q 178 -231 201 -219 q 222 -245 205 -245 q 323 -192 282 -245 q 386 -16 364 -139 l 117 652 l -18 652 l -18 728 l 400 728 l 400 652 l 277 652 l 473 119 l 642 652 l 529 652 l 529 728 l 878 728 l 878 652 l 761 652 l 528 -3 q 444 -188 486 -119 q 354 -287 402 -256 q 244 -317 305 -317 m 623 818 q 467 1003 519 956 q 429 963 452 989 q 382 908 406 937 q 340 855 358 879 l 313 821 l 246 883 l 467 1121 l 690 879 l 623 818 z "},"ÿ":{"ha":868,"x_min":-18,"x_max":878,"o":"m 244 -317 q 92 -274 151 -317 q 33 -165 33 -232 q 64 -87 33 -118 q 150 -57 96 -57 q 213 -85 192 -57 q 235 -155 235 -114 q 218 -200 235 -180 q 178 -231 201 -219 q 222 -245 205 -245 q 323 -192 282 -245 q 386 -16 364 -139 l 117 652 l -18 652 l -18 728 l 400 728 l 400 652 l 277 652 l 473 119 l 642 652 l 529 652 l 529 728 l 878 728 l 878 652 l 761 652 l 528 -3 q 444 -188 486 -119 q 354 -287 402 -256 q 244 -317 305 -317 m 629 818 q 563 845 590 818 q 536 911 536 873 q 563 977 536 949 q 629 1005 590 1005 q 695 977 667 1005 q 724 911 724 949 q 695 846 724 873 q 629 818 667 818 m 307 818 q 241 845 269 818 q 214 911 214 873 q 241 977 214 949 q 307 1005 269 1005 q 373 977 345 1005 q 400 911 400 949 q 372 846 400 873 q 307 818 345 818 z "},"ỳ":{"ha":868,"x_min":-18,"x_max":878,"o":"m 244 -317 q 92 -274 151 -317 q 33 -165 33 -232 q 64 -87 33 -118 q 150 -57 96 -57 q 213 -85 192 -57 q 235 -155 235 -114 q 218 -200 235 -180 q 178 -231 201 -219 q 222 -245 205 -245 q 323 -192 282 -245 q 386 -16 364 -139 l 117 652 l -18 652 l -18 728 l 400 728 l 400 652 l 277 652 l 473 119 l 642 652 l 529 652 l 529 728 l 878 728 l 878 652 l 761 652 l 528 -3 q 444 -188 486 -119 q 354 -287 402 -256 q 244 -317 305 -317 m 645 818 q 631 824 639 821 q 612 831 623 827 q 567 848 598 836 q 500 876 536 861 q 433 905 464 891 q 340 951 387 925 q 274 997 293 977 l 342 1091 q 522 959 441 1021 q 665 844 603 897 l 645 818 z "},"z":{"ha":741,"x_min":75,"x_max":685,"o":"m 86 0 l 75 107 l 507 652 l 192 652 l 192 465 l 81 465 l 81 728 l 637 728 l 657 627 l 220 76 l 574 76 l 574 283 l 685 283 l 685 0 l 86 0 z "},"ź":{"ha":741,"x_min":75,"x_max":685,"o":"m 86 0 l 75 107 l 507 652 l 192 652 l 192 465 l 81 465 l 81 728 l 637 728 l 657 627 l 220 76 l 574 76 l 574 283 l 685 283 l 685 0 l 86 0 m 203 818 l 184 844 q 270 914 220 876 q 369 990 319 953 q 453 1053 418 1027 l 506 1091 l 574 997 q 504 949 555 977 q 393 895 454 922 q 281 848 332 868 l 203 818 z "},"ž":{"ha":741,"x_min":75,"x_max":685,"o":"m 86 0 l 75 107 l 507 652 l 192 652 l 192 465 l 81 465 l 81 728 l 637 728 l 657 627 l 220 76 l 574 76 l 574 283 l 685 283 l 685 0 l 86 0 m 389 817 l 167 1059 l 234 1120 q 389 935 338 982 q 429 975 406 949 q 475 1030 452 1001 q 517 1082 499 1059 l 543 1118 l 610 1055 l 389 817 z "},"ż":{"ha":741,"x_min":75,"x_max":685,"o":"m 86 0 l 75 107 l 507 652 l 192 652 l 192 465 l 81 465 l 81 728 l 637 728 l 657 627 l 220 76 l 574 76 l 574 283 l 685 283 l 685 0 l 86 0 m 377 821 q 306 850 336 821 q 277 921 277 880 q 306 992 277 963 q 377 1022 336 1022 q 448 992 418 1022 q 478 921 478 962 q 448 850 478 880 q 377 821 418 821 z "},"ﬁ":{"ha":888,"x_min":50,"x_max":879,"o":"m 50 0 l 50 79 l 182 79 l 182 652 l 50 652 l 50 728 l 182 728 q 503 1074 182 1074 q 617 1058 566 1074 q 696 1017 667 1042 q 755 900 755 965 q 727 816 755 846 q 654 786 698 786 q 590 812 618 786 q 562 878 562 838 q 590 937 562 913 q 650 960 618 960 q 629 989 650 976 q 578 1009 608 1002 q 524 1017 549 1017 q 472 1011 498 1017 q 419 991 446 1005 q 371 958 392 978 q 337 909 351 939 q 323 843 323 878 l 323 728 l 760 728 l 760 79 l 879 79 l 879 0 l 509 0 l 509 79 l 614 79 l 614 652 l 328 652 l 328 79 l 441 79 l 441 0 l 50 0 z "},"ﬂ":{"ha":964,"x_min":50,"x_max":936,"o":"m 50 0 l 50 79 l 182 79 l 182 652 l 50 652 l 50 728 l 182 728 q 465 1074 182 1074 q 618 1058 544 1074 q 741 1015 692 1042 q 790 953 790 986 l 790 79 l 936 79 l 936 0 l 526 0 l 526 79 l 644 79 l 644 951 q 610 987 639 973 q 551 1006 581 1001 q 486 1010 519 1010 q 371 969 418 1010 q 323 843 323 929 l 323 728 l 549 728 l 549 652 l 328 652 l 328 79 l 440 79 l 440 0 l 50 0 z "},"ª":{"ha":890,"x_min":94,"x_max":794,"o":"m 256 363 q 139 401 184 363 q 94 507 94 440 q 114 578 94 547 q 167 629 134 609 q 239 667 199 650 q 317 700 278 684 q 389 732 356 715 q 441 773 421 749 q 462 827 462 797 q 429 925 462 892 q 337 957 397 957 q 258 944 296 957 q 201 908 221 930 q 261 888 239 908 q 283 840 283 868 q 258 781 283 804 q 201 758 234 758 q 141 783 167 758 q 115 852 115 807 q 175 957 115 903 q 253 1000 203 983 q 362 1017 302 1017 q 525 968 464 1017 q 587 810 587 919 l 587 543 q 604 476 587 507 q 656 446 621 446 q 730 549 730 446 l 730 635 l 794 635 l 794 561 q 759 416 794 469 q 631 363 723 363 q 524 401 570 363 q 471 509 477 439 q 386 404 445 445 q 256 363 326 363 m 287 447 q 367 470 326 447 q 434 528 407 494 q 462 595 462 562 l 462 717 q 376 651 425 680 q 296 609 327 623 q 242 571 264 595 q 219 513 219 547 q 236 465 219 483 q 287 447 253 447 z "},"º":{"ha":798,"x_min":97,"x_max":701,"o":"m 401 388 q 239 430 308 388 q 134 546 171 472 q 97 714 97 620 q 132 881 97 807 q 237 998 168 955 q 399 1042 306 1042 q 560 999 492 1042 q 664 883 627 957 q 701 714 701 809 q 666 549 701 622 q 562 432 631 476 q 401 388 492 388 m 401 461 q 523 529 479 461 q 568 707 568 597 q 551 843 568 785 q 496 937 534 901 q 399 972 456 972 q 304 937 342 972 q 248 843 265 901 q 230 707 230 784 q 276 528 230 595 q 401 461 321 461 z "},"μ":{"ha":928,"x_min":4,"x_max":889,"o":"m 215 -304 q 143 -204 143 -304 l 143 647 l 4 647 l 4 728 l 289 728 l 289 245 q 318 118 289 157 q 407 79 347 79 q 497 105 450 79 q 578 172 545 130 q 611 254 611 214 l 611 647 l 488 647 l 488 728 l 757 728 l 757 77 l 889 62 l 889 0 l 615 -20 l 615 118 q 506 15 568 50 q 378 -20 444 -20 q 302 -1 347 -20 q 257 33 277 9 q 228 89 237 56 q 256 -89 228 35 q 283 -228 283 -214 q 264 -282 283 -260 q 215 -304 245 -304 z "},"⁄":{"ha":875,"x_min":43,"x_max":833,"o":"m 111 -41 l 43 -1 l 765 1003 l 833 962 l 111 -41 z "},"½":{"ha":1131,"x_min":47,"x_max":1086,"o":"m 47 509 l 47 567 l 138 567 l 138 957 l 47 933 l 47 1006 l 237 1059 l 237 567 l 321 567 l 321 509 l 47 509 m 172 -41 l 104 -1 l 827 1003 l 895 962 l 172 -41 m 1052 -75 l 1004 0 l 659 0 l 649 61 l 711 104 q 797 163 759 136 q 877 227 834 190 q 943 303 919 264 q 967 378 967 342 q 932 467 967 429 q 850 505 897 505 q 742 457 784 505 q 776 435 761 451 q 791 395 791 419 q 769 340 791 360 q 713 319 747 319 q 651 344 672 319 q 629 404 629 369 q 662 483 629 446 q 749 541 694 519 q 868 564 803 564 q 1016 512 962 564 q 1071 370 1071 461 q 1039 282 1071 331 q 937 183 1006 234 l 800 83 l 1068 83 l 1086 -69 l 1052 -75 z "},"¼":{"ha":1035,"x_min":47,"x_max":989,"o":"m 47 509 l 47 567 l 137 567 l 137 957 l 47 933 l 47 1006 l 236 1059 l 236 567 l 321 567 l 321 509 l 47 509 m 172 -41 l 104 -1 l 826 1003 l 894 962 l 172 -41 m 716 0 l 716 58 l 815 58 l 815 182 l 578 182 l 578 244 l 793 546 l 900 546 l 900 239 l 989 239 l 989 182 l 900 182 l 900 58 l 989 58 l 989 0 l 716 0 m 655 239 l 815 239 l 815 472 l 655 239 z "},"¾":{"ha":1069,"x_min":45,"x_max":1022,"o":"m 202 494 q 99 517 141 494 q 56 581 56 541 q 71 624 56 607 q 115 640 85 640 q 157 625 140 640 q 173 587 173 609 q 162 549 173 564 q 203 545 186 545 q 308 583 269 545 q 347 675 347 621 q 239 778 347 778 q 197 774 220 778 l 187 825 q 321 936 321 846 q 292 1003 321 977 q 220 1028 263 1028 q 122 987 167 1028 q 161 970 144 983 q 177 929 177 956 q 158 886 177 903 q 112 868 139 868 q 62 889 79 868 q 45 939 45 910 q 71 1003 45 972 q 138 1054 96 1034 q 230 1074 180 1074 q 358 1035 314 1074 q 402 942 402 996 q 369 864 402 898 q 276 818 335 829 q 403 777 359 818 q 447 675 447 736 q 379 546 447 597 q 202 494 311 494 m 205 -41 l 137 -1 l 859 1003 l 927 962 l 205 -41 m 749 0 l 749 58 l 848 58 l 848 182 l 612 182 l 612 244 l 826 546 l 933 546 l 933 239 l 1022 239 l 1022 182 l 933 182 l 933 58 l 1022 58 l 1022 0 l 749 0 m 688 239 l 848 239 l 848 472 l 688 239 z "},"¹":{"ha":461,"x_min":97,"x_max":371,"o":"m 97 478 l 97 536 l 187 536 l 187 940 l 97 916 l 97 989 l 286 1042 l 286 536 l 371 536 l 371 478 l 97 478 z "},"²":{"ha":627,"x_min":85,"x_max":543,"o":"m 508 403 l 460 478 l 115 478 l 105 539 l 168 582 q 253 641 215 614 q 333 705 290 668 q 399 782 375 742 q 423 863 423 822 q 388 951 423 919 q 307 983 353 983 q 198 935 240 983 q 232 913 217 929 q 247 873 247 897 q 225 818 247 838 q 169 798 203 798 q 107 822 128 798 q 85 882 85 847 q 118 961 85 924 q 205 1019 151 997 q 324 1042 259 1042 q 472 992 418 1042 q 527 861 527 943 q 495 762 527 812 q 393 661 463 712 l 256 562 l 524 562 l 543 409 l 508 403 z "},"³":{"ha":552,"x_min":76,"x_max":484,"o":"m 260 463 q 133 489 178 463 q 87 555 87 515 q 101 598 87 582 q 145 615 116 615 q 187 600 171 615 q 203 562 203 584 q 193 524 203 538 q 234 519 216 519 q 337 553 298 519 q 377 640 377 587 q 269 739 377 739 q 227 735 251 739 l 218 793 q 352 904 352 814 q 323 965 352 940 q 251 989 294 989 q 199 983 224 989 q 153 956 175 976 q 191 938 175 951 q 208 897 208 924 q 189 854 208 871 q 142 836 170 836 q 93 857 110 836 q 76 907 76 878 q 101 971 76 941 q 168 1022 126 1002 q 260 1042 210 1042 q 392 1003 345 1042 q 439 910 439 964 q 405 830 439 866 q 327 783 371 795 q 440 744 395 783 q 484 643 484 705 q 453 551 484 591 q 370 486 421 510 q 260 463 319 463 z "},"⁴":{"ha":600,"x_min":73,"x_max":524,"o":"m 231 478 l 231 536 l 330 536 l 330 629 l 73 629 l 73 699 l 308 1034 l 429 1034 l 429 693 l 524 693 l 524 629 l 429 629 l 429 536 l 517 536 l 517 478 l 231 478 m 150 693 l 330 693 l 330 960 l 150 693 z "},"\r":{"ha":326,"x_min":0,"x_max":0,"o":""}," ":{"ha":326,"x_min":0,"x_max":0,"o":""}," ":{"ha":326,"x_min":0,"x_max":0,"o":""},".":{"ha":399,"x_min":99,"x_max":300,"o":"m 199 -14 q 128 16 157 -14 q 99 86 99 45 q 128 158 99 128 q 199 187 157 187 q 270 157 239 187 q 300 86 300 127 q 270 16 300 45 q 199 -14 239 -14 z "},",":{"ha":418,"x_min":94,"x_max":323,"o":"m 193 -171 l 159 -118 q 219 -68 192 -98 q 247 -11 247 -37 q 241 8 247 1 q 184 -8 215 -8 q 122 20 149 -8 q 94 82 94 47 q 126 150 94 120 q 196 179 159 179 q 284 142 244 179 q 323 37 323 105 q 294 -69 323 -15 q 201 -165 264 -123 q 193 -171 198 -166 z "},":":{"ha":399,"x_min":99,"x_max":300,"o":"m 199 525 q 129 555 158 525 q 99 625 99 585 q 129 697 99 667 q 199 726 158 726 q 270 696 240 726 q 300 625 300 667 q 270 555 300 585 q 199 525 240 525 m 199 0 q 129 30 158 0 q 99 100 99 59 q 129 172 99 142 q 199 201 158 201 q 270 171 240 201 q 300 100 300 141 q 270 30 300 59 q 199 0 240 0 z "},";":{"ha":400,"x_min":94,"x_max":307,"o":"m 194 525 q 123 555 153 525 q 94 625 94 585 q 123 697 94 667 q 194 726 153 726 q 265 696 235 726 q 296 625 296 667 q 265 555 296 585 q 194 525 235 525 m 186 -151 l 155 -102 q 211 -54 185 -83 q 236 0 236 -25 q 230 20 236 12 q 178 3 206 3 q 120 30 146 3 q 94 89 94 56 q 125 154 94 126 q 194 182 156 182 q 274 146 241 182 q 307 47 307 111 q 299 -4 307 19 q 273 -54 292 -28 q 238 -98 254 -80 q 186 -151 221 -116 z "},"…":{"ha":1021,"x_min":113,"x_max":936,"o":"m 213 -14 q 142 16 172 -14 q 113 86 113 45 q 142 158 113 128 q 213 187 172 187 q 284 157 254 187 q 315 86 315 127 q 284 16 315 45 q 213 -14 254 -14 m 524 -14 q 453 16 482 -14 q 424 86 424 45 q 453 158 424 128 q 524 187 482 187 q 595 157 564 187 q 625 86 625 127 q 595 16 625 45 q 524 -14 564 -14 m 834 -14 q 764 16 793 -14 q 734 86 734 45 q 764 158 734 128 q 834 187 793 187 q 905 157 875 187 q 936 86 936 127 q 905 16 936 45 q 834 -14 875 -14 z "},"!":{"ha":581,"x_min":197,"x_max":399,"o":"m 271 306 l 207 1003 l 383 1003 l 319 306 l 271 306 m 297 -14 q 227 16 256 -14 q 197 86 197 45 q 227 158 197 128 q 297 187 256 187 q 368 157 338 187 q 399 86 399 127 q 368 16 399 45 q 297 -14 338 -14 z "},"¡":{"ha":581,"x_min":197,"x_max":399,"o":"m 399 917 q 370 845 399 875 q 299 816 340 816 q 228 846 258 816 q 197 917 197 876 q 228 987 197 958 q 299 1017 258 1017 q 370 987 340 1017 q 399 917 399 958 m 213 0 l 277 697 l 326 697 l 389 0 l 213 0 z "},"?":{"ha":684,"x_min":56,"x_max":628,"o":"m 289 275 q 309 407 289 346 q 357 511 329 468 q 385 554 371 533 q 414 595 399 575 q 462 684 442 636 q 482 782 482 731 q 468 866 482 829 q 430 926 454 903 q 315 971 380 971 q 230 948 269 971 q 171 882 190 924 q 222 871 197 882 q 248 856 237 865 q 265 831 258 846 q 272 795 272 815 q 244 723 272 751 q 174 694 217 694 q 88 728 121 694 q 56 802 56 762 q 98 932 56 876 q 209 1015 141 987 q 358 1042 276 1042 q 422 1034 389 1042 q 494 1006 456 1027 q 561 956 532 986 q 609 876 590 926 q 628 762 628 825 q 603 637 628 695 q 540 536 578 580 q 501 494 521 515 q 461 454 481 474 q 385 369 421 415 q 334 275 348 322 l 289 275 m 309 -14 q 238 16 267 -14 q 208 86 208 45 q 238 158 208 128 q 309 187 267 187 q 379 157 349 187 q 410 86 410 127 q 379 16 410 45 q 309 -14 349 -14 z "},"¿":{"ha":684,"x_min":56,"x_max":628,"o":"m 375 1037 q 446 1007 416 1037 q 475 937 475 978 q 446 866 475 895 q 375 836 416 836 q 304 866 334 836 q 274 937 274 896 q 304 1007 274 978 q 375 1037 334 1037 m 350 748 l 395 748 q 375 616 395 677 q 327 512 355 555 q 298 469 313 490 q 270 428 284 448 q 221 340 241 387 q 201 241 201 292 q 216 157 201 195 q 254 98 230 120 q 368 52 303 52 q 454 76 414 52 q 513 141 494 99 q 461 152 486 141 q 419 193 432 165 q 412 229 412 210 q 439 301 412 273 q 510 329 467 329 q 595 295 563 329 q 628 222 628 262 q 585 92 628 147 q 475 9 543 36 q 326 -18 408 -18 q 262 -11 295 -18 q 191 17 229 -3 q 124 67 153 37 q 75 149 95 98 q 56 262 56 199 q 81 386 56 328 q 144 487 106 444 q 183 529 163 509 q 222 570 203 550 q 299 655 262 608 q 350 748 336 701 z "},"·":{"ha":454,"x_min":126,"x_max":328,"o":"m 227 526 q 156 556 185 526 q 126 627 126 586 q 156 698 126 669 q 227 728 185 728 q 297 698 267 728 q 328 627 328 668 q 297 556 328 586 q 227 526 267 526 z "},"•":{"ha":624,"x_min":98,"x_max":526,"o":"m 312 314 q 199 343 248 314 q 124 420 151 372 q 98 528 98 469 q 124 635 98 587 q 199 712 151 683 q 312 741 247 741 q 425 712 377 741 q 499 634 473 683 q 526 528 526 586 q 499 421 526 469 q 425 343 473 372 q 312 314 377 314 z "},"*":{"ha":986,"x_min":83,"x_max":901,"o":"m 292 250 l 175 354 l 435 623 l 83 733 l 139 865 l 463 680 l 418 1042 l 567 1042 l 522 680 l 846 865 l 901 733 l 550 623 l 810 354 l 693 250 l 492 578 l 292 250 z "},"#":{"ha":916,"x_min":46,"x_max":874,"o":"m 127 -115 l 46 -90 l 206 392 l 55 392 l 55 437 l 221 437 l 302 682 l 137 682 l 137 728 l 317 728 l 435 1083 l 516 1059 l 406 728 l 627 728 l 745 1083 l 825 1059 l 715 728 l 874 728 l 874 682 l 701 682 l 620 437 l 792 437 l 792 392 l 605 392 l 437 -115 l 356 -90 l 516 392 l 295 392 l 127 -115 m 310 437 l 531 437 l 612 682 l 391 682 l 310 437 z "},"/":{"ha":555,"x_min":43,"x_max":513,"o":"m 123 -115 l 43 -90 l 432 1083 l 513 1059 l 123 -115 z "},"\\":{"ha":555,"x_min":43,"x_max":513,"o":"m 123 -115 l 43 -90 l 432 1083 l 513 1059 l 123 -115 z "},"-":{"ha":603,"x_min":104,"x_max":498,"o":"m 104 371 l 104 464 l 498 464 l 498 371 l 104 371 z "},"–":{"ha":1009,"x_min":104,"x_max":905,"o":"m 104 371 l 104 464 l 905 464 l 905 371 l 104 371 z "},"—":{"ha":1416,"x_min":104,"x_max":1312,"o":"m 104 371 l 104 464 l 1312 464 l 1312 371 l 104 371 z "},"_":{"ha":501,"x_min":-5,"x_max":507,"o":"m -5 -86 l -5 7 l 507 7 l 507 -86 l -5 -86 z "},"(":{"ha":500,"x_min":48,"x_max":455,"o":"m 455 -155 q 278 -88 357 -146 q 150 56 199 -31 q 48 453 48 234 q 150 850 48 671 q 278 995 199 937 q 455 1061 357 1052 l 455 1003 q 344 938 394 991 q 264 807 294 885 q 201 453 201 646 q 264 98 201 259 q 344 -33 294 20 q 455 -97 394 -85 l 455 -155 z "},")":{"ha":500,"x_min":46,"x_max":453,"o":"m 46 -155 l 46 -97 q 157 -32 107 -85 q 237 99 207 21 q 300 453 300 260 q 237 808 300 647 q 157 939 207 886 q 46 1003 107 991 l 46 1061 q 223 995 144 1052 q 352 851 302 938 q 427 662 401 765 q 453 453 453 559 q 427 245 453 347 q 352 56 401 142 q 223 -89 302 -31 q 46 -155 144 -146 z "},"{":{"ha":585,"x_min":44,"x_max":538,"o":"m 538 -227 q 413 -217 466 -227 q 322 -186 360 -208 q 261 -136 285 -165 q 224 -60 237 -106 q 205 37 210 -14 q 201 160 201 87 q 201 190 201 174 q 201 225 201 206 l 201 276 q 196 342 201 321 q 174 371 191 364 q 122 378 157 378 l 44 378 l 44 469 l 122 469 q 174 476 157 469 q 196 505 191 483 q 201 571 201 526 l 201 622 q 201 658 201 642 q 201 688 201 674 q 205 811 201 760 q 224 908 210 862 q 261 983 237 954 q 322 1034 285 1012 q 413 1064 360 1055 q 538 1074 466 1074 l 538 1015 q 451 1003 485 1015 q 397 972 417 991 q 368 906 377 953 q 357 817 359 860 q 355 763 355 795 q 354 688 354 730 q 353 607 354 638 q 349 545 352 575 q 338 495 345 513 q 321 462 332 477 q 294 438 310 446 q 255 424 278 429 q 294 410 278 418 q 321 386 310 401 q 338 352 332 370 q 349 304 345 334 q 353 241 352 273 q 354 160 354 210 q 354 92 354 118 q 356 33 355 65 q 360 -18 357 1 q 368 -60 363 -37 q 379 -95 372 -83 q 397 -122 387 -108 q 420 -143 407 -136 q 451 -157 433 -151 q 490 -166 469 -163 q 538 -168 511 -168 l 538 -227 z "},"}":{"ha":585,"x_min":48,"x_max":543,"o":"m 48 -227 l 48 -168 q 97 -166 75 -168 q 136 -157 118 -163 q 166 -143 153 -151 q 190 -122 180 -136 q 207 -95 200 -108 q 219 -60 214 -83 q 227 -18 224 -37 q 231 33 229 1 q 232 92 232 65 q 233 160 233 118 q 262 350 233 292 q 362 424 292 408 q 262 498 292 440 q 233 688 233 556 q 232 782 233 745 q 228 847 231 819 q 219 906 225 876 q 190 971 210 952 q 136 1003 170 991 q 48 1015 102 1015 l 48 1074 q 158 1066 111 1074 q 242 1045 206 1059 q 303 1007 278 1031 q 344 954 328 983 q 369 883 360 925 q 382 795 378 840 q 384 745 383 772 q 385 688 385 719 q 386 621 385 645 q 387 570 386 597 q 391 530 389 543 q 399 503 393 517 q 411 483 404 488 q 428 472 417 477 q 451 465 439 466 q 483 464 464 464 l 543 464 l 543 383 l 483 383 q 451 382 464 383 q 428 376 439 381 q 411 365 417 370 q 399 345 404 359 q 391 317 393 330 q 387 277 389 304 q 386 227 386 250 q 385 160 385 203 q 381 37 385 87 q 363 -60 376 -14 q 326 -136 350 -106 q 264 -186 302 -165 q 174 -217 227 -208 q 48 -227 121 -227 z "},"[":{"ha":705,"x_min":102,"x_max":608,"o":"m 102 -167 l 102 1086 l 608 1086 l 608 993 l 262 993 l 262 -74 l 608 -74 l 608 -167 l 102 -167 z "},"]":{"ha":705,"x_min":98,"x_max":604,"o":"m 98 -167 l 98 -74 l 444 -74 l 444 993 l 98 993 l 98 1086 l 604 1086 l 604 -167 l 98 -167 z "},"‚":{"ha":309,"x_min":97,"x_max":212,"o":"m 155 -269 q 139 -245 147 -269 q 123 -184 131 -221 q 110 -106 116 -146 q 100 -30 104 -65 q 97 24 97 5 q 112 63 97 47 q 155 78 127 78 q 212 24 212 78 q 209 -29 212 6 q 199 -105 205 -64 q 186 -183 193 -146 q 171 -245 179 -221 q 155 -269 163 -269 z "},"„":{"ha":471,"x_min":97,"x_max":375,"o":"m 318 -269 q 302 -245 310 -269 q 286 -185 294 -222 q 272 -107 278 -148 q 263 -31 267 -66 q 260 24 260 5 q 275 63 260 47 q 318 78 290 78 q 375 24 375 78 q 372 -29 375 6 q 362 -105 368 -64 q 349 -183 356 -146 q 334 -245 342 -221 q 318 -269 326 -269 m 155 -269 q 139 -245 147 -269 q 123 -184 131 -221 q 110 -106 116 -146 q 100 -30 104 -65 q 97 24 97 5 q 112 63 97 47 q 155 78 127 78 q 212 24 212 78 q 209 -29 212 6 q 199 -105 205 -64 q 186 -183 193 -146 q 171 -245 179 -221 q 155 -269 163 -269 z "},"“":{"ha":646,"x_min":96,"x_max":552,"o":"m 214 708 q 133 743 170 708 q 96 843 96 779 q 102 887 96 866 q 117 924 109 908 q 143 963 124 939 q 175 999 162 986 l 218 1042 l 248 991 q 193 944 218 973 q 168 890 168 916 q 173 871 168 878 q 226 888 197 888 q 283 861 258 888 q 309 802 309 834 q 279 736 309 765 q 214 708 250 708 m 458 708 q 377 743 414 708 q 340 843 340 779 q 347 895 340 871 q 373 945 354 918 q 409 988 392 970 q 460 1042 425 1006 l 491 991 q 436 944 461 973 q 410 890 410 916 q 416 871 410 878 q 469 888 439 888 q 526 861 500 888 q 552 802 552 834 q 523 736 552 765 q 458 708 493 708 z "}}}
